<?xml version="1.0" encoding="utf-8"?>
<!-- Generator: Adobe Illustrator 15.0.0, SVG Export Plug-In . SVG Version: 6.00 Build 0)  -->
<!DOCTYPE svg PUBLIC "-//W3C//DTD SVG 1.1//EN" "http://www.w3.org/Graphics/SVG/1.1/DTD/svg11.dtd">
<svg version="1.1" id="Layer_1" xmlns="http://www.w3.org/2000/svg" xmlns:xlink="http://www.w3.org/1999/xlink" x="0px" y="0px"
	 width="1.001px" height="1px" viewBox="0 0 1.001 1" enable-background="new 0 0 1.001 1" xml:space="preserve">
<path fill-rule="evenodd" clip-rule="evenodd" fill="#879EB2" d="M0.501,0C0.224,0,0,0.224,0,0.5C0,0.776,0.224,1,0.501,1
	c0.276,0,0.5-0.224,0.5-0.5C1.001,0.224,0.777,0,0.501,0z M0.545,0.814h-0.12l0.044-0.299l-0.118,0.02V0.443l0.238-0.06L0.545,0.814
	z M0.558,0.335c-0.053,0-0.091-0.033-0.091-0.082s0.038-0.084,0.091-0.084s0.09,0.035,0.09,0.084S0.61,0.335,0.558,0.335z"/>
</svg>
