<?xml version="1.0" encoding="utf-8"?>
<!-- Generator: Adobe Illustrator 15.0.0, SVG Export Plug-In . SVG Version: 6.00 Build 0)  -->
<!DOCTYPE svg PUBLIC "-//W3C//DTD SVG 1.1//EN" "http://www.w3.org/Graphics/SVG/1.1/DTD/svg11.dtd">
<svg version="1.1" id="Layer_1" xmlns="http://www.w3.org/2000/svg" xmlns:xlink="http://www.w3.org/1999/xlink" x="0px" y="0px"
	 width="14.809px" height="19.979px" viewBox="0 0 14.809 19.979" enable-background="new 0 0 14.809 19.979" xml:space="preserve">
<path fill="#FFFFFF" d="M7.404,0C3.314,0,0,3.314,0,7.404c0,1.161,0.275,2.255,0.751,3.233c0,0,0.736,1.238,1.087,1.64l5.44,7.702
	l5.463-7.451c0.462-0.48,1.316-1.891,1.316-1.891c0.477-0.978,0.751-2.072,0.751-3.233C14.809,3.314,11.494,0,7.404,0z
	 M7.404,11.223c-2.015,0-3.647-1.632-3.647-3.646c0-2.014,1.633-3.646,3.647-3.646s3.647,1.633,3.647,3.646
	C11.052,9.591,9.419,11.223,7.404,11.223z"/>
</svg>
