<?xml version="1.0" encoding="utf-8"?>
<!-- Generator: Adobe Illustrator 15.0.0, SVG Export Plug-In . SVG Version: 6.00 Build 0)  -->
<!DOCTYPE svg PUBLIC "-//W3C//DTD SVG 1.1//EN" "http://www.w3.org/Graphics/SVG/1.1/DTD/svg11.dtd">
<svg version="1.1" id="Layer_1" xmlns="http://www.w3.org/2000/svg" xmlns:xlink="http://www.w3.org/1999/xlink" x="0px" y="0px"
	 width="23.988px" height="21.961px" viewBox="0 0 23.988 21.961" enable-background="new 0 0 23.988 21.961" xml:space="preserve">
<path fill="#224179" d="M21.006,10.008V3.838C21.006,1.722,19.284,0,17.168,0H3.838C1.722,0,0,1.722,0,3.838v14.254
	c0,2.116,1.722,3.838,3.834,3.838l16.313,0.03c0.001,0,0.003,0,0.004,0c2.52,0,3.838-3.203,3.838-4.92v-4.184
	C23.988,10.548,22.274,9.722,21.006,10.008z M21.988,17.041c0,1.015-0.822,2.92-1.838,2.92l-16.313-0.03
	C2.823,19.931,2,19.108,2,18.093V3.838C2,2.823,2.823,2,3.838,2h13.33c1.015,0,1.838,0.823,1.838,1.838v14.254
	c0,0,1.841,0.07,1.99-1.789v-3.446c0-0.483,0.216-0.908,0.543-0.908c0.233,0,0.449,0.269,0.449,0.908V17.041z"/>
<g>
	<path fill="#224179" d="M10.425,6.217v-1h5.98v1H10.425z"/>
	<path fill="#224179" d="M10.425,9.24v-1h5.98v1H10.425z"/>
	<path fill="#224179" d="M4.418,12.241v-1h11.993v1H4.418z"/>
	<path fill="#224179" d="M4.42,15.241v-1h6.008v1H4.42z"/>
	<path fill="#224179" d="M4.425,5.226h3.984V9.21H4.425V5.226z"/>
</g>
</svg>
