<?xml version="1.0" encoding="utf-8"?>
<!-- Generator: Adobe Illustrator 15.0.0, SVG Export Plug-In . SVG Version: 6.00 Build 0)  -->
<!DOCTYPE svg PUBLIC "-//W3C//DTD SVG 1.1//EN" "http://www.w3.org/Graphics/SVG/1.1/DTD/svg11.dtd">
<svg version="1.1" id="Layer_1" xmlns="http://www.w3.org/2000/svg" xmlns:xlink="http://www.w3.org/1999/xlink" x="0px" y="0px"
	 width="1.273px" height="1px" viewBox="0 0 1.273 1" enable-background="new 0 0 1.273 1" xml:space="preserve">
<g>
	<g>
		<path fill-rule="evenodd" clip-rule="evenodd" fill="#879EB2" d="M0.456,0.391c0,0,0.098,0.14,0.128,0.108
			c0.033-0.033,0.164-0.194,0.164-0.194l0.101-0.068c0,0-0.159,0.532-0.33,0.389C0.4,0.525,0.456,0.391,0.456,0.391z"/>
	</g>
	<path fill="#879EB2" d="M1.273,1L1.159,0.771L1.268,0.62L1.072,0.602C1.089,0.555,1.1,0.503,1.1,0.45C1.1,0.202,0.897,0,0.649,0
		C0.402,0,0.2,0.202,0.2,0.45c0,0.053,0.01,0.103,0.027,0.15H0.226l-0.22,0.02l0.11,0.151L0,1l0.528-0.118l0,0
		C0.566,0.893,0.607,0.9,0.649,0.9c0.039,0,0.075-0.006,0.11-0.014l0,0L1.273,1z M1.162,0.668L1.091,0.766l0.077,0.152l-0.31-0.069
		c0.082-0.043,0.147-0.109,0.19-0.19l0,0L1.162,0.668z M0.434,0.844L0.107,0.917l0.076-0.152L0.112,0.668L0.25,0.656l0,0
		C0.291,0.735,0.355,0.801,0.434,0.844L0.434,0.844z M0.257,0.45c0-0.216,0.176-0.392,0.392-0.392c0.216,0,0.392,0.176,0.392,0.392
		c0,0.216-0.175,0.392-0.392,0.392C0.434,0.841,0.257,0.666,0.257,0.45z M0.811,0.87c0,0-0.002,0-0.003,0
		C0.809,0.87,0.811,0.87,0.811,0.87z"/>
</g>
</svg>
