<?xml version="1.0" encoding="utf-8"?>
<!-- Generator: Adobe Illustrator 15.0.0, SVG Export Plug-In . SVG Version: 6.00 Build 0)  -->
<!DOCTYPE svg PUBLIC "-//W3C//DTD SVG 1.1//EN" "http://www.w3.org/Graphics/SVG/1.1/DTD/svg11.dtd">
<svg version="1.1" id="Layer_1" xmlns="http://www.w3.org/2000/svg" xmlns:xlink="http://www.w3.org/1999/xlink" x="0px" y="0px"
	 width="16.527px" height="21.719px" viewBox="0 0 16.527 21.719" enable-background="new 0 0 16.527 21.719" xml:space="preserve">
<path fill="#869DB1" d="M8.353,3.767c-10.645,0-5.758,9.457-5.758,9.457s0.498,0.832,2.236,2.939c0.11,0.206,0.182,0.394,0.239,0.57
	H4.875l-0.001,2.71l0.044,0.695l1,0.376l-0.034,1.194l3.933,0.01l0.066-1.351l0.971-0.37l-0.021-3.265h-0.176
	c0.095-0.296,0.229-0.623,0.436-0.967c1.751-1.977,2.014-2.174,2.384-2.803C14.28,11.598,17.21,3.767,8.353,3.767z M12.754,12.691
	c-0.32,0.545-0.549,0.716-2.068,2.432c-0.395,0.659-0.712,1.259-0.893,1.611H8.385c-0.11-0.561-0.313-1.748-0.12-1.982
	c0.475-0.574,2.495-1.527,2.645-3.295c0.057-1.124-0.473-2.704-3.123-2.74c-1.626,0.006-2.372,1.196-2.57,2.062
	c-0.229,1,0.777,3.02,1.97,3.434c-0.315,0.825,0.098,2.154,0.041,2.522H5.885c-0.128-0.276-0.338-0.713-0.634-1.268
	c-1.509-1.829-1.94-2.551-1.94-2.551S-0.93,4.709,8.308,4.709C15.994,4.709,13.452,11.504,12.754,12.691z M7.784,13.217
	c0,0-1.149-0.539-1.406-2.223c0-0.539,0.183-1.253,1.53-1.271c1.314,0.009,2.186,0.535,1.969,1.793
	c-0.142,0.82-0.723,1.509-1.418,1.858C8.202,13.165,7.784,13.217,7.784,13.217z"/>
<path fill="#869DB1" d="M11.512,0.18L10.42,0l-0.334,1.673c0.366,0.073,0.722,0.174,1.07,0.288L11.512,0.18z"/>
<path fill="#869DB1" d="M6.316,0L5.223,0.18L5.559,1.86C5.91,1.759,6.272,1.683,6.64,1.623L6.316,0z"/>
<path fill="#869DB1" d="M2.156,3.667L0.723,2.358L0,3.17l1.364,1.245C1.613,4.151,1.876,3.9,2.156,3.667z"/>
<path fill="#869DB1" d="M15.068,4.452l1.459-1.281l-0.723-0.812l-1.525,1.34C14.558,3.934,14.82,4.186,15.068,4.452z"/>
</svg>
