<?xml version="1.0" encoding="utf-8"?>
<!-- Generator: Adobe Illustrator 15.0.0, SVG Export Plug-In . SVG Version: 6.00 Build 0)  -->
<!DOCTYPE svg PUBLIC "-//W3C//DTD SVG 1.1//EN" "http://www.w3.org/Graphics/SVG/1.1/DTD/svg11.dtd">
<svg version="1.1" id="Layer_1" xmlns="http://www.w3.org/2000/svg" xmlns:xlink="http://www.w3.org/1999/xlink" x="0px" y="0px"
	 width="17.219px" height="15.007px" viewBox="0 0 17.219 15.007" enable-background="new 0 0 17.219 15.007" xml:space="preserve">
<path fill="#FFFFFF" d="M4.734,3.855L3.29,0H0v1.326h2.206l3.976,10.882c-0.5,0.235-0.849,0.739-0.849,1.328
	c0,0.813,0.658,1.471,1.47,1.471c0.687,0,1.258-0.473,1.42-1.108h2.16c0.161,0.636,0.733,1.108,1.42,1.108
	c0.813,0,1.471-0.658,1.471-1.471c0-0.812-0.658-1.471-1.471-1.471c-0.586,0-1.087,0.346-1.324,0.841H8.127
	c-0.085-0.179-0.206-0.336-0.352-0.467L7.017,9.904c2.111,0,7.436,0,7.436,0s0.6,0.189,0.83-0.949
	c0.415-1.044,1.937-5.094,1.937-5.094L4.734,3.855z"/>
</svg>
