<?xml version="1.0" encoding="utf-8"?>
<!-- Generator: Adobe Illustrator 15.0.0, SVG Export Plug-In . SVG Version: 6.00 Build 0)  -->
<!DOCTYPE svg PUBLIC "-//W3C//DTD SVG 1.1//EN" "http://www.w3.org/Graphics/SVG/1.1/DTD/svg11.dtd">
<svg version="1.1" id="Layer_1" xmlns="http://www.w3.org/2000/svg" xmlns:xlink="http://www.w3.org/1999/xlink" x="0px" y="0px"
	 width="1.158px" height="1px" viewBox="0 0 1.158 1" enable-background="new 0 0 1.158 1" xml:space="preserve">
<polygon fill="#717171" points="1,0.47 0.841,0.47 0.841,0.261 0.789,0.261 0.789,0.523 0.841,0.523 0.841,0.523 1,0.523 "/>
<path fill="#717171" d="M1.158,0.491c0-0.143-0.087-0.265-0.211-0.316V0H0.683v0.176c-0.124,0.051-0.21,0.173-0.21,0.315
	s0.086,0.264,0.21,0.315V1h0.263V0.807C1.07,0.756,1.158,0.634,1.158,0.491z M0.87,0.786H0.761C0.622,0.76,0.516,0.638,0.516,0.491
	c0-0.125,0.076-0.232,0.184-0.277h0.23c0.108,0.045,0.184,0.152,0.184,0.277C1.115,0.638,1.009,0.76,0.87,0.786z"/>
<path fill="#717171" d="M0.449,0.771C0.432,0.777,0.415,0.782,0.396,0.786H0.288C0.148,0.76,0.042,0.638,0.042,0.491
	c0-0.125,0.076-0.232,0.185-0.277h0.22c0.01-0.013,0.02-0.025,0.032-0.036C0.477,0.177,0.476,0.176,0.473,0.175V0H0.21v0.176
	C0.086,0.227,0,0.349,0,0.491s0.086,0.264,0.21,0.315V1h0.263V0.807c0.002,0,0.004-0.001,0.006-0.003
	C0.469,0.793,0.458,0.782,0.449,0.771z"/>
</svg>
