<?xml version="1.0" encoding="utf-8"?>
<!-- Generator: Adobe Illustrator 15.0.0, SVG Export Plug-In . SVG Version: 6.00 Build 0)  -->
<!DOCTYPE svg PUBLIC "-//W3C//DTD SVG 1.1//EN" "http://www.w3.org/Graphics/SVG/1.1/DTD/svg11.dtd">
<svg version="1.1" id="Layer_1" xmlns="http://www.w3.org/2000/svg" xmlns:xlink="http://www.w3.org/1999/xlink" x="0px" y="0px"
	 width="1.063px" height="1px" viewBox="0 0 1.063 1" enable-background="new 0 0 1.063 1" xml:space="preserve">
<g>
	<path fill="#879EB2" d="M0.733,1L0.733,1c-0.2,0-0.277-0.09-0.306-0.154C0.179,0.806,0,0.632,0,0.427C0,0.191,0.238,0,0.532,0
		c0.293,0,0.532,0.191,0.532,0.427c0,0.166-0.117,0.314-0.302,0.385C0.789,0.871,0.843,0.916,0.9,0.924
		c0.014,0.002,0.024,0.015,0.025,0.029c0,0.014-0.01,0.026-0.024,0.029C0.84,0.994,0.784,1,0.733,1z M0.532,0.059
		c-0.261,0-0.473,0.166-0.473,0.369c0,0.18,0.166,0.333,0.394,0.362c0.011,0.001,0.02,0.009,0.024,0.02
		c0.018,0.049,0.075,0.132,0.257,0.132l0,0c0.018,0,0.037-0.001,0.057-0.002C0.747,0.906,0.712,0.858,0.696,0.803
		C0.691,0.788,0.7,0.771,0.715,0.767c0.176-0.058,0.29-0.191,0.29-0.339C1.005,0.224,0.792,0.059,0.532,0.059z"/>
</g>
<path fill-rule="evenodd" clip-rule="evenodd" fill="#879EB2" d="M0.529,0.19l0.078,0.141l0.158,0.03l-0.11,0.117l0.02,0.159
	L0.529,0.569L0.384,0.638l0.02-0.159L0.294,0.361l0.158-0.03L0.529,0.19"/>
</svg>
