<?xml version="1.0" encoding="utf-8"?>
<!-- Generator: Adobe Illustrator 15.0.0, SVG Export Plug-In . SVG Version: 6.00 Build 0)  -->
<!DOCTYPE svg PUBLIC "-//W3C//DTD SVG 1.1//EN" "http://www.w3.org/Graphics/SVG/1.1/DTD/svg11.dtd">
<svg version="1.1" id="Layer_1" xmlns="http://www.w3.org/2000/svg" xmlns:xlink="http://www.w3.org/1999/xlink" x="0px" y="0px"
	 width="185.642px" height="83.423px" viewBox="0 0 185.642 83.423" enable-background="new 0 0 185.642 83.423"
	 xml:space="preserve">
<g>
	<path fill="#222222" d="M8.216,67.667c0.254,0,0.445-0.13,0.508-0.415l1.745-6.44c0.443-1.682,0.92-3.618,1.206-4.919h0.126
		c0.254,1.3,0.729,3.237,1.174,4.919l1.777,6.44c0.064,0.285,0.222,0.415,0.507,0.415h3.173c0.254,0,0.445-0.13,0.508-0.415
		l4.431-15.664c0.095-0.286-0.021-0.428-0.37-0.428h-2.825c-0.286,0-0.486,0.016-0.549,0.301l-1.132,5.353
		c-0.381,1.587-1.301,5.329-1.618,6.821h-0.095c-0.413-1.841-1.079-4.537-1.523-6.282l-1.611-5.82
		c-0.063-0.254-0.222-0.379-0.507-0.379H10.19c-0.254,0-0.444,0.125-0.508,0.379l-1.467,5.82c-0.443,1.745-1.143,4.444-1.554,6.282
		H6.599C6.25,62.143,5.33,58.4,4.981,56.813L3.744,51.54c-0.063-0.285-0.254-0.381-0.507-0.381H0.38
		c-0.318,0-0.444,0.222-0.35,0.509l4.505,15.584c0.064,0.285,0.223,0.413,0.508,0.413h3.172L8.216,67.667L8.216,67.667z"/>
	<path fill="#222222" d="M23.594,52.867c-0.159,0.128-0.159,0.287,0,0.539l1.269,1.937c0.158,0.253,0.413,0.286,0.635,0.127
		c1.016-0.604,2.475-1.015,4.061-1.015c2.348,0,3.173,0.952,3.173,3.204l-0.053,0.202c-0.951-0.127-2.125-0.254-3.173-0.254
		c-4.061,0-6.949,1.318-6.949,4.777c0,3.966,3.395,5.301,7.076,5.301c2.348,0,4.514-0.445,6.163-0.954
		c0.222-0.096,0.349-0.286,0.349-0.54l0.01-8.563c0-4.475-2.408-6.441-6.342-6.441C27.244,51.186,25.117,51.82,23.594,52.867z
		 M26.271,62.352c0-1.3,0.952-2.092,3.331-2.092c0.985,0,2.221,0.126,3.078,0.253v3.585c-0.793,0.189-2,0.381-3.046,0.381
		C27.699,64.478,26.271,63.843,26.271,62.352z"/>
	<path fill="#222222" d="M59.115,65.852c0.254-0.188,0.254-0.38,0.096-0.635l-1.333-1.902c-0.158-0.285-0.38-0.285-0.667-0.128
		c-1.174,0.763-2.475,1.057-3.681,1.057c-2.189,0-3.693-1.024-3.693-2.992l0.03-3.763c0-1.967,1.495-2.972,3.748-2.972
		c1.175,0,2.348,0.521,3.332,1.091c0.286,0.16,0.507,0.096,0.666-0.126l1.238-2.161c0.158-0.254,0.126-0.508-0.127-0.666
		c-1.618-1.016-3.363-1.524-5.204-1.524c-4.378,0-7.075,2.486-7.076,6.357l-0.053,3.73c0,3.872,2.666,6.412,7.107,6.412
		C55.719,67.63,57.496,66.995,59.115,65.852z"/>
	<path fill="#222222" d="M88.271,62.406c0-3.649-3.3-4.132-5.903-4.608c-2.093-0.412-3.737-0.249-3.737-1.55
		c0-1.047,1.281-1.853,3.151-1.853c1.428,0,2.856,0.413,4.03,1.047c0.253,0.128,0.476,0.063,0.634-0.158l1.205-2.029
		c0.16-0.255,0.097-0.509-0.158-0.637c-1.871-1.014-3.711-1.459-5.52-1.459c-3.396,0-6.756,1.565-6.756,5.089
		c0,3.839,4.008,4.342,6.389,4.786c1.427,0.254,2.95,0.26,2.95,1.528c0,1.207-1.302,1.818-2.95,1.818
		c-1.651,0-3.364-0.549-4.792-1.596c-0.286-0.19-0.477-0.157-0.634,0.127l-1.206,2.063c-0.158,0.254-0.158,0.475,0.127,0.635
		c1.998,1.459,4.283,2.039,6.441,2.039C85.353,67.649,88.271,65.96,88.271,62.406z"/>
	<path fill="#222222" d="M185.642,67.26l-0.011-14.394c0-0.254-0.095-0.443-0.349-0.539c-1.712-0.729-3.739-1.195-6.088-1.195
		c-4.031,0-7.33,1.767-7.33,6.748l0.052,3.384c0,4.473,3.11,6.398,6.854,6.398c1.143,0,2.463-0.255,3.479-0.7
		c0.095,3.203-1.005,4.423-3.384,4.423c-1.649,0-3.109-0.656-4.284-1.514c-0.254-0.19-0.476-0.128-0.634,0.129l-1.333,1.966
		c-0.158,0.285-0.158,0.476,0.096,0.636c1.683,1.3,3.587,1.924,6.186,1.924C183.912,74.523,185.642,71.956,185.642,67.26z
		 M175.331,61.091l-0.011-3.17c0-2.729,1.749-3.488,3.938-3.488c0.952,0,2.286,0.126,2.951,0.348l0.011,8.848
		c-0.603,0.508-1.894,0.793-3.1,0.793C177.184,64.422,175.331,63.599,175.331,61.091z"/>
	<path fill="#222222" d="M134.893,58.067c0-4.79-2.771-6.919-6.958-6.919c-2.063,0-4.537,0.384-6.411,1.112
		c-0.253,0.096-0.349,0.255-0.349,0.508l-0.014,20.568c0,0.319,0.158,0.476,0.476,0.476h1.087c0,0,1.516,0.206,1.863-1.268v-5.558
		c0.952,0.413,2.32,0.698,3.59,0.698c4.029,0,6.729-2.602,6.729-6.759L134.893,58.067z M131.446,60.959
		c0,2.382-1.272,3.49-3.558,3.49c-1.205,0-2.507-0.35-3.301-0.89l0.014-8.619c0.761-0.316,2.157-0.442,3.237-0.442
		c2.285,0,3.619,0.951,3.619,3.68L131.446,60.959z"/>
	<g>
		<path fill="#222222" d="M153.805,49.169c1.204,0,2.061-0.92,2.061-2.094c0-1.206-0.856-2.063-2.061-2.063
			c-1.175,0-2.096,0.856-2.096,2.063C151.711,48.249,152.63,49.169,153.805,49.169z"/>
		<path fill="#222222" d="M154.167,67.656c0.485-0.064,1.15-0.346,1.315-1.365l-0.035-14.697c0-0.286-0.159-0.443-0.444-0.443
			h-2.502c-0.285,0-0.477,0.157-0.477,0.443l-0.005,15.584c0,0.317,0.19,0.479,0.476,0.479H154.167L154.167,67.656z"/>
	</g>
	<path fill="#222222" d="M169.579,67.656c0.413-0.082,0.842-0.364,0.973-1.117v-8.293c0-5.077-2.681-7.106-7.06-7.106
		c-2.253,0-4.476,0.442-6.316,1.237c-0.253,0.126-0.348,0.315-0.348,0.57v14.231c0,0.318,0.158,0.478,0.476,0.478h1.869
		c0.427-0.109,0.909-0.413,1.079-1.191V54.83c0.729-0.189,2.16-0.349,3.24-0.349c2.315,0,3.595,0.845,3.595,3.827v8.869
		c0,0.317,0.188,0.479,0.476,0.479H169.579z"/>
	<path fill="#222222" d="M101.915,67.667c0.518-0.062,1.229-0.344,1.42-1.354v-8.016c0-5.109-2.641-7.172-6.511-7.172
		c-1.364,0-2.85,0.223-3.77,0.54l-0.02-6.876c0-0.316-0.16-0.475-0.478-0.475h-2.428c-0.318,0-0.516,0.158-0.516,0.475l0.012,22.398
		c0,0.318,0.158,0.477,0.476,0.477h1.121c0,0,1.559,0.252,1.833-1.369V54.999c0.763-0.382,2.248-0.572,3.389-0.572
		c2.35,0,3.469,0.921,3.469,3.967v8.795c0,0.318,0.189,0.477,0.476,0.477h1.526L101.915,67.667L101.915,67.667z"/>
	<path fill="#222222" d="M73.856,66.055v-0.534c-0.006-0.119-0.013-0.237-0.031-0.37c0.011,0.083,0.02,0.155,0.031,0.233V58.33
		c0-5.108-2.446-7.17-6.616-7.17c-1.365,0-2.765,0.221-3.685,0.538l-0.021-6.896c0-0.317-0.158-0.476-0.476-0.476h-2.471
		c-0.317,0-0.477,0.158-0.477,0.476l0.021,22.376c0,0.317,0.158,0.476,0.476,0.476h1.113c0,0,1.568,0.251,1.835-1.383V55.029
		c0.761-0.38,2.161-0.57,3.303-0.57c2.348,0,3.553,0.92,3.553,3.967v8.751c0,0.318,0.19,0.479,0.475,0.479h1.103
		C71.99,67.656,73.701,67.937,73.856,66.055z"/>
	<path fill="#222222" d="M45.232,64.191c-0.507,0.032-1.272,0.044-1.558,0.044c-1.619,0-2.743-0.994-2.743-2.741v-6.879h3.646
		c0.469-0.093,1.027-0.413,1.161-1.359l-0.004-1.005c-0.003-0.021-0.002-0.038-0.005-0.06c0.001,0.014,0.003,0.025,0.005,0.037
		l-0.001-0.325c0-0.286-0.19-0.765-0.476-0.765h-4.324l0.008-6.398c-0.032-0.254-0.222-0.413-0.476-0.413h-2.476
		c-0.317,0-0.475,0.159-0.475,0.444l-0.025,17.041c0,4.188,2.57,5.851,5.87,5.851c0.477,0,1.4-0.013,1.939-0.044
		c0.318-0.033,0.445-0.254,0.445-0.507v-2.476C45.741,64.351,45.549,64.191,45.232,64.191z"/>
	<path fill="#222222" d="M149.98,58.067c0-4.79-2.771-6.919-6.958-6.919c-2.063,0-4.538,0.384-6.409,1.112
		c-0.254,0.096-0.35,0.255-0.351,0.508l-0.013,20.568c0,0.319,0.158,0.476,0.475,0.476h1.087c0,0,1.516,0.206,1.863-1.268v-5.558
		c0.953,0.413,2.32,0.698,3.59,0.698c4.029,0,6.729-2.602,6.729-6.759L149.98,58.067z M146.533,60.959
		c0,2.382-1.271,3.49-3.558,3.49c-1.204,0-2.506-0.35-3.301-0.89l0.014-8.619c0.761-0.316,2.157-0.442,3.237-0.442
		c2.286,0,3.62,0.951,3.62,3.68L146.533,60.959z"/>
	<g>
		<g>
			<path fill="#A72A2A" d="M98.098,1.571L95.1,6.119c0.945,0.399,1.746,0.925,2.396,1.583l3.02-4.59
				C99.789,2.524,98.992,2.006,98.098,1.571z"/>
			<path fill="#A72A2A" d="M92.718,5.432l-0.003-5.32C92.05,0.044,91.367,0,90.654,0c-0.216,0-0.422,0.013-0.633,0.021l0.002,5.293
				c0.209-0.011,0.414-0.03,0.631-0.03C91.388,5.284,92.072,5.335,92.718,5.432z"/>
			<rect x="99.525" y="14.762" fill="#A72A2A" width="5.424" height="2.705"/>
			<path fill="#A72A2A" d="M99.075,10.318c0.269,0.816,0.433,1.692,0.442,2.655l5.198-2.646c-0.159-0.876-0.396-1.72-0.716-2.513
				L99.075,10.318z"/>
		</g>
		<path fill="#222222" d="M99.525,21.035v0.843c0,4.594-3.086,7.531-8.873,7.531c-5.716,0-8.803-2.938-8.803-7.531v-8.814
			c0-3.377,1.656-5.927,4.742-7.08V0.441C80.019,1.854,76.033,6.71,76.033,12.918v9.117c0,7.405,5.649,12.405,14.62,12.405
			c9.043,0,14.292-5,14.292-12.405v-1.007L99.525,21.035z"/>
		<polygon fill="#A72A2A" points="96.725,14.774 92.696,14.774 92.689,8.006 90,8.006 90.007,17.456 90.949,17.456 92.7,17.456 
			96.741,17.456 		"/>
	</g>
	<g>
		<path fill="#222222" d="M5.727,78.36c0.458-0.228,0.723-0.678,0.723-1.245c0-0.951-0.702-1.476-1.978-1.476H2.841v5.887h1.745
			c1.405,0,2.211-0.638,2.211-1.752C6.798,79.058,6.411,78.552,5.727,78.36z M4.36,76.149c1.061,0,1.512,0.301,1.512,1.01
			c0,0.668-0.508,0.993-1.556,0.993H3.42v-2.003H4.36z M3.42,78.66h1.062c1.159,0,1.747,0.377,1.747,1.122
			c0,1.022-0.949,1.237-1.747,1.237H3.42V78.66z"/>
		<path fill="#222222" d="M11.276,80.313c-0.479,0.577-0.821,0.793-1.253,0.793c-0.599,0-0.854-0.363-0.854-1.212v-2.705H8.61v2.757
			c0,1.134,0.44,1.685,1.345,1.685c0.486,0,0.91-0.214,1.352-0.685l0.037,0.58h0.494V77.19h-0.56L11.276,80.313L11.276,80.313z"/>
		<path fill="#222222" d="M15.714,79.868l-0.086,0.272c-0.073,0.227-0.153,0.479-0.232,0.709c-0.106-0.261-0.213-0.548-0.311-0.807
			l-1.094-2.854h-0.61l1.745,4.329l-0.103,0.332c-0.156,0.473-0.453,1.037-0.981,1.037c-0.109,0-0.229-0.033-0.304-0.063
			l-0.096-0.037l-0.129,0.508l0.068,0.033c0.131,0.061,0.299,0.095,0.461,0.095c0.664,0,1.161-0.484,1.48-1.437l1.687-4.798h-0.581
			L15.714,79.868z"/>
		<polygon fill="#222222" points="21.978,75.64 21.4,75.64 21.4,81.526 24.612,81.526 24.612,81 21.978,81 		"/>
		<path fill="#222222" d="M28.874,80.313c-0.48,0.577-0.821,0.793-1.252,0.793c-0.599,0-0.855-0.363-0.855-1.212v-2.705h-0.559
			v2.757c0,1.134,0.439,1.685,1.345,1.685c0.486,0,0.909-0.214,1.352-0.685l0.037,0.58h0.493V77.19h-0.561L28.874,80.313
			L28.874,80.313z"/>
		<path fill="#222222" d="M34.453,77.19h-0.612l-0.675,1.097c-0.073,0.11-0.142,0.224-0.21,0.339
			c-0.053,0.087-0.105,0.173-0.159,0.259c-0.139-0.204-0.269-0.414-0.382-0.598l-0.702-1.097h-0.639l1.358,2.072l-1.47,2.264h0.623
			l0.735-1.175c0.063-0.101,0.124-0.2,0.185-0.301c0.078-0.129,0.155-0.256,0.235-0.377c0.135,0.194,0.278,0.418,0.434,0.679
			l0.763,1.174h0.64l-1.472-2.229L34.453,77.19z"/>
		<path fill="#222222" d="M38.711,80.313c-0.479,0.577-0.82,0.793-1.251,0.793c-0.599,0-0.855-0.363-0.855-1.212v-2.705h-0.56v2.757
			c0,1.134,0.44,1.685,1.345,1.685c0.487,0,0.91-0.214,1.353-0.685l0.037,0.58h0.493V77.19h-0.56v3.123H38.711z"/>
		<path fill="#222222" d="M43.21,77.085c-0.425,0-0.818,0.25-1.126,0.705l-0.027-0.601h-0.506v4.336h0.561v-2.903
			c0.263-0.631,0.644-0.993,1.045-0.993c0.155,0,0.224,0.015,0.35,0.063l0.094,0.034l0.128-0.513l-0.064-0.031
			C43.507,77.102,43.369,77.085,43.21,77.085z"/>
		<path fill="#222222" d="M46.762,79.868l-0.087,0.272c-0.072,0.227-0.153,0.479-0.232,0.709c-0.106-0.261-0.214-0.548-0.311-0.807
			l-1.094-2.854h-0.61l1.744,4.329l-0.104,0.332c-0.154,0.473-0.451,1.037-0.98,1.037c-0.109,0-0.229-0.033-0.304-0.063
			l-0.096-0.037l-0.129,0.508l0.068,0.033c0.131,0.061,0.299,0.095,0.461,0.095c0.663,0,1.161-0.484,1.479-1.437l1.688-4.798h-0.581
			L46.762,79.868z"/>
		<path fill="#222222" d="M56.693,79.072c-0.063,0.304-0.122,0.607-0.182,0.911c-0.042,0.213-0.083,0.427-0.126,0.64
			c-0.052-0.207-0.102-0.415-0.153-0.622c-0.076-0.311-0.152-0.619-0.23-0.934l-0.91-3.427h-0.546l-0.91,3.428
			c-0.128,0.516-0.253,1.032-0.369,1.543c-0.073-0.342-0.145-0.688-0.217-1.035l-0.84-3.936h-0.601l1.324,5.816l0.016,0.07h0.575
			l1.039-3.985c0.045-0.194,0.095-0.38,0.143-0.563c0.036-0.136,0.072-0.271,0.106-0.414c0.039,0.166,0.079,0.326,0.118,0.491
			c0.038,0.159,0.078,0.318,0.118,0.49l1.058,3.981h0.581l1.314-5.886h-0.573L56.693,79.072z"/>
		<path fill="#222222" d="M61.049,77.085c-0.71,0-1.31,0.348-1.602,0.553l-0.069,0.049l0.268,0.441l0.078-0.058
			c0.295-0.214,0.754-0.467,1.273-0.467c0.26,0,0.465,0.074,0.611,0.222c0.186,0.188,0.282,0.499,0.286,0.926
			c-1.904,0.225-2.684,0.704-2.684,1.647c0,0.762,0.496,1.232,1.294,1.232c0.563,0,1.064-0.307,1.419-0.574l0.031,0.47h0.501v-2.749
			C62.455,77.687,61.956,77.085,61.049,77.085z M61.896,79.227v1.269c-0.532,0.444-0.916,0.628-1.323,0.628
			c-0.297,0-0.794-0.098-0.794-0.741C59.779,79.916,60.039,79.457,61.896,79.227z"/>
		<path fill="#222222" d="M66.165,80.992c-0.127,0.063-0.335,0.122-0.481,0.122c-0.447,0-0.613-0.215-0.613-0.794v-2.622h1.204
			V77.19h-1.204v-1.204h-0.503l-0.054,1.208l-0.662,0.037v0.467h0.649v2.587c0,0.907,0.37,1.346,1.129,1.346
			c0.207,0,0.498-0.087,0.705-0.161l0.083-0.029l-0.164-0.49L66.165,80.992z"/>
		<path fill="#222222" d="M70.456,80.66c-0.228,0.207-0.595,0.454-1.049,0.454c-0.848,0-1.417-0.702-1.417-1.747
			c0-1.023,0.595-1.764,1.417-1.764c0.328,0,0.623,0.132,0.927,0.418l0.069,0.064l0.341-0.407l-0.063-0.058
			c-0.291-0.264-0.671-0.535-1.283-0.535c-0.956,0-1.987,0.714-1.987,2.281c0,1.354,0.795,2.264,1.979,2.264
			c0.489,0,0.956-0.19,1.384-0.568l0.062-0.053l-0.307-0.415L70.456,80.66z"/>
		<path fill="#222222" d="M74.206,77.085c-0.557,0-0.98,0.288-1.348,0.634V75.12h-0.561v6.406h0.561v-3.188
			c0.477-0.482,0.809-0.727,1.27-0.727c0.605,0,0.863,0.362,0.863,1.21v2.706h0.561v-2.757
			C75.551,77.636,75.111,77.085,74.206,77.085z"/>
		<path fill="#222222" d="M79.071,77.085c-0.92,0-1.899,0.801-1.899,2.282c0,1.331,0.827,2.264,2.012,2.264
			c0.608,0,0.988-0.198,1.355-0.419l0.073-0.045l-0.244-0.462l-0.084,0.06c-0.335,0.245-0.672,0.357-1.063,0.357
			c-0.841,0-1.425-0.647-1.475-1.623h2.98l0.011-0.074c0.02-0.112,0.02-0.223,0.02-0.327C80.755,77.839,80.126,77.085,79.071,77.085
			z M80.211,79.011H77.75c0.107-0.839,0.645-1.418,1.33-1.418C79.788,77.593,80.186,78.097,80.211,79.011z"/>
		<path fill="#222222" d="M83.624,79.053l-0.104-0.037c-0.473-0.176-0.92-0.34-0.92-0.756c0-0.308,0.222-0.667,0.846-0.667
			c0.414,0,0.698,0.172,0.941,0.356l0.071,0.053l0.315-0.409l-0.066-0.054c-0.343-0.284-0.809-0.454-1.244-0.454
			c-0.989,0-1.432,0.604-1.432,1.198c0,0.777,0.768,1.052,1.385,1.271c0.482,0.176,0.955,0.384,0.955,0.834
			c0,0.446-0.354,0.733-0.898,0.733s-0.89-0.195-1.269-0.509l-0.07-0.059l-0.336,0.427l0.067,0.057
			c0.265,0.222,0.823,0.592,1.582,0.592c1.025,0,1.492-0.652,1.492-1.258C84.937,79.537,84.239,79.28,83.624,79.053z"/>
		<path fill="#222222" d="M91.222,75.536c-1.458,0-2.437,1.215-2.437,3.025c0,1.837,0.979,3.069,2.437,3.069
			c1.463,0,2.446-1.233,2.446-3.069C93.667,76.752,92.685,75.536,91.222,75.536z M91.222,81.088c-1.118,0-1.842-0.992-1.842-2.526
			c0-1.509,0.724-2.482,1.842-2.482c1.119,0,1.842,0.974,1.842,2.482C93.064,80.096,92.34,81.088,91.222,81.088z"/>
		<path fill="#222222" d="M97.526,77.085c-0.572,0-1.002,0.305-1.375,0.656l-0.028-0.552h-0.506v4.336h0.562v-3.188
			c0.478-0.482,0.811-0.727,1.27-0.727c0.605,0,0.863,0.361,0.863,1.209v2.706h0.562V78.77
			C98.873,77.636,98.432,77.085,97.526,77.085z"/>
		<path fill="#222222" d="M101.88,81.099c-0.077,0.016-0.105,0.016-0.138,0.016c-0.082,0-0.093-0.126-0.093-0.181v-5.814h-0.561
			v5.763c0,0.618,0.327,0.748,0.602,0.748c0.14,0,0.229-0.021,0.307-0.047l0.076-0.025l-0.106-0.478L101.88,81.099z"/>
		<path fill="#222222" d="M104.299,75.499c-0.254,0-0.436,0.187-0.436,0.438c0,0.243,0.187,0.428,0.436,0.428
			c0.247,0,0.436-0.185,0.436-0.428C104.735,75.686,104.551,75.499,104.299,75.499z"/>
		<rect x="104.009" y="77.19" fill="#222222" width="0.562" height="4.336"/>
		<path fill="#222222" d="M108.767,77.085c-0.572,0-1.003,0.305-1.375,0.656l-0.029-0.552h-0.505v4.336h0.562v-3.188
			c0.476-0.482,0.811-0.727,1.269-0.727c0.605,0,0.864,0.361,0.864,1.209v2.706h0.56V78.77
			C110.112,77.636,109.671,77.085,108.767,77.085z"/>
		<path fill="#222222" d="M113.886,77.085c-0.921,0-1.899,0.801-1.899,2.282c0,1.331,0.827,2.264,2.013,2.264
			c0.607,0,0.988-0.198,1.354-0.419l0.073-0.045l-0.245-0.462l-0.083,0.06c-0.337,0.245-0.674,0.357-1.066,0.357
			c-0.84,0-1.422-0.647-1.474-1.623h2.98l0.013-0.074c0.018-0.112,0.018-0.223,0.018-0.327
			C115.569,77.839,114.939,77.085,113.886,77.085z M115.025,79.011h-2.461c0.107-0.839,0.645-1.418,1.33-1.418
			C114.601,77.593,115,78.097,115.025,79.011z"/>
	</g>
	<path fill="#222222" d="M119.253,60.873v-4.624c0-3.756-2.865-6.292-7.415-6.292c-0.734,0-1.746,0.06-2.047,0.132
		s-1.114,0.323-1.615,0.552c-0.078,0.033-0.15,0.07-0.226,0.106c-0.182,0.09-0.364,0.178-0.533,0.281
		c-0.25,0.148-0.481,0.313-0.7,0.488c-0.043,0.034-0.087,0.066-0.128,0.103c-0.221,0.188-0.424,0.39-0.608,0.605
		c-0.098,0.109-0.186,0.226-0.274,0.342c-0.025,0.035-0.051,0.072-0.075,0.108c-0.763,1.046-1.195,2.317-1.195,3.742v4.624
		c0,3.756,2.865,6.292,7.415,6.292c0.734,0,1.414-0.071,2.047-0.196c0,0,1.114-0.259,1.615-0.486
		c0.078-0.034,0.151-0.072,0.227-0.107c0.181-0.09,0.363-0.178,0.531-0.281c0.25-0.147,0.482-0.313,0.701-0.488
		c0.043-0.034,0.087-0.066,0.128-0.102c0.221-0.188,0.424-0.391,0.608-0.606c0.098-0.109,0.186-0.226,0.274-0.342
		c0.025-0.035,0.051-0.072,0.075-0.108C118.821,63.569,119.253,62.298,119.253,60.873z M111.851,64.781
		c-2.899,0-4.465-1.49-4.465-3.819v-4.471c0-1.713,0.84-3.006,2.405-3.591c0,0,1.263-0.392,2.047-0.392
		c2.899,0,4.465,1.49,4.465,3.819v4.471c0,1.713-0.84,3.006-2.405,3.591C113.898,64.39,112.635,64.781,111.851,64.781z"/>
</g>
</svg>
