<?xml version="1.0" encoding="utf-8"?>
<!-- Generator: Adobe Illustrator 15.0.0, SVG Export Plug-In . SVG Version: 6.00 Build 0)  -->
<!DOCTYPE svg PUBLIC "-//W3C//DTD SVG 1.1//EN" "http://www.w3.org/Graphics/SVG/1.1/DTD/svg11.dtd">
<svg version="1.1" id="Layer_1" xmlns="http://www.w3.org/2000/svg" xmlns:xlink="http://www.w3.org/1999/xlink" x="0px" y="0px"
	 width="26.298px" height="33.888px" viewBox="0 0 26.298 33.888" enable-background="new 0 0 26.298 33.888" xml:space="preserve">
<path fill="#C9BF8B" d="M19.052,11.815c1.869-0.871,10.063-5.382,5.071-10.374c-1.214-1.214-3.272-1.781-5.167-0.757
	c-3.022,1.635-5.939,8.973-6.14,9.626c-0.417-1.365-1-3.131-1.697-4.852C7.51-3.399,1.594,0.768,0.586,2.542
	c-2.417,4.253,3.212,7.709,6.591,9.274H0.051v22.072h26.247V11.815H19.052z M22.937,2.822c2.963,3.533-6.947,9.071-6.947,9.071
	l-1.563-0.083C14.427,11.81,19.677-1.065,22.937,2.822z M3.016,3.068c2.536-1.946,5.036,0.054,6.411,2.976
	c1.106,2.729,2.375,5.766,2.375,5.766s-1.191,0.103-2.158-0.304C8.417,10.99-0.087,6.171,3.016,3.068z M12.203,31.828H2.208V20.867
	h9.995V31.828z M12.203,18.878H2.208v-5.032h9.995V18.878z M24.143,31.828h-9.951V20.867h9.951V31.828z M24.143,18.878h-9.951
	v-5.032h9.951V18.878z"/>
<path fill="#C9BF8B" d="M13.677,15.31"/>
</svg>
