<?xml version="1.0" encoding="utf-8"?>
<!-- Generator: Adobe Illustrator 15.0.0, SVG Export Plug-In . SVG Version: 6.00 Build 0)  -->
<!DOCTYPE svg PUBLIC "-//W3C//DTD SVG 1.1//EN" "http://www.w3.org/Graphics/SVG/1.1/DTD/svg11.dtd">
<svg version="1.1" id="Layer_1" xmlns="http://www.w3.org/2000/svg" xmlns:xlink="http://www.w3.org/1999/xlink" x="0px" y="0px"
	 width="12.5px" height="11.251px" viewBox="0 0 12.5 11.251" enable-background="new 0 0 12.5 11.251" xml:space="preserve">
<g>
	<path fill-rule="evenodd" clip-rule="evenodd" fill="#035280" d="M5.078,4.383C4.652,4.808,4.471,7.077,4.394,9.08l1.856,2.171
		l6.25-7.312l-0.147-0.273C11.312,3.695,5.586,3.875,5.078,4.383z"/>
	<path fill-rule="evenodd" clip-rule="evenodd" fill="#035280" d="M5.176,2.916c0.628,0.538,6.136,0.712,7.172,0.74L10.38,0.009
		L4.415,0.002C4.499,1.169,4.697,2.505,5.176,2.916z"/>
	<path fill-rule="evenodd" clip-rule="evenodd" fill="#035280" d="M3.694,2.844c0.387-0.387,0.547-1.692,0.615-2.841L2.119,0
		L0.185,3.597C1.53,3.483,3.278,3.26,3.694,2.844z"/>
	<path fill-rule="evenodd" clip-rule="evenodd" fill="#035280" d="M3.599,4.394c-0.4-0.4-2.166-0.569-3.499-0.641L0,3.939
		l4.268,4.992C4.183,6.964,4,4.794,3.599,4.394z"/>
</g>
</svg>
