<?xml version="1.0" encoding="utf-8"?>
<!-- Generator: Adobe Illustrator 15.0.0, SVG Export Plug-In . SVG Version: 6.00 Build 0)  -->
<!DOCTYPE svg PUBLIC "-//W3C//DTD SVG 1.1//EN" "http://www.w3.org/Graphics/SVG/1.1/DTD/svg11.dtd">
<svg version="1.1" id="Layer_1" xmlns="http://www.w3.org/2000/svg" xmlns:xlink="http://www.w3.org/1999/xlink" x="0px" y="0px"
	 width="14.013px" height="14.028px" viewBox="0 0 14.013 14.028" enable-background="new 0 0 14.013 14.028" xml:space="preserve">
<path fill-rule="evenodd" clip-rule="evenodd" fill="#FFFFFF" d="M8.147,7.992c1.346-0.527,2.328-2.06,2.328-3.891
	C10.476,1.836,8.983,0,7.144,0c-1.84,0-3.332,1.836-3.332,4.101c0,1.854,1.006,3.401,2.377,3.909C3.77,8.254,1.293,9.464,0,13.982
	c0.395-0.082,1.756-0.015,1.756-0.015s0.998-0.016,5.488,0.026c3.3,0.083,4.345-0.01,5.364-0.01
	c0.312,0.021,1.404-0.011,1.404-0.011S13.372,8.422,8.147,7.992z"/>
</svg>
