<?xml version="1.0" encoding="utf-8"?>
<!-- Generator: Adobe Illustrator 15.0.0, SVG Export Plug-In . SVG Version: 6.00 Build 0)  -->
<!DOCTYPE svg PUBLIC "-//W3C//DTD SVG 1.1//EN" "http://www.w3.org/Graphics/SVG/1.1/DTD/svg11.dtd">
<svg version="1.1" id="Layer_1" xmlns="http://www.w3.org/2000/svg" xmlns:xlink="http://www.w3.org/1999/xlink" x="0px" y="0px"
	 width="17.894px" height="15.009px" viewBox="0 0 17.894 15.009" enable-background="new 0 0 17.894 15.009" xml:space="preserve">
<path fill="#FFFFFF" d="M17.894,6.342C17.894,2.84,13.888,0,8.946,0C4.006,0,0,2.84,0,6.342c0,3.184,3.313,5.812,7.627,6.265
	c0.402,1.095,1.862,3.14,7.127,2.13c-1.176-0.186-2.286-1.153-2.712-2.451C15.455,11.392,17.894,9.071,17.894,6.342z M6.275,7.618
	H3.737V5.079h2.538V7.618z M10.076,7.618H7.538V5.079h2.538V7.618z M13.878,7.618H11.34V5.079h2.538V7.618z"/>
</svg>
