<?xml version="1.0" encoding="utf-8"?>
<!-- Generator: Adobe Illustrator 15.0.0, SVG Export Plug-In . SVG Version: 6.00 Build 0)  -->
<!DOCTYPE svg PUBLIC "-//W3C//DTD SVG 1.1//EN" "http://www.w3.org/Graphics/SVG/1.1/DTD/svg11.dtd">
<svg version="1.1" id="Layer_2" xmlns="http://www.w3.org/2000/svg" xmlns:xlink="http://www.w3.org/1999/xlink" x="0px" y="0px"
	 width="254.703px" height="41.612px" viewBox="0 0 254.703 41.612" enable-background="new 0 0 254.703 41.612"
	 xml:space="preserve">
<path fill="#FFFFFF" d="M11.317,32.163c0.35,0,0.612-0.178,0.699-0.57l2.404-8.872c0.612-2.315,1.268-4.981,1.661-6.774h0.174
	c0.35,1.792,1.005,4.458,1.617,6.774l2.448,8.872c0.088,0.393,0.306,0.57,0.699,0.57h4.371c0.349,0,0.612-0.178,0.699-0.57
	l6.104-21.576c0.132-0.394-0.029-0.589-0.51-0.589h-3.89c-0.394,0-0.67,0.021-0.757,0.415l-1.56,7.372
	c-0.524,2.186-1.792,7.342-2.229,9.397h-0.131c-0.567-2.536-1.486-6.25-2.097-8.653l-2.22-8.016
	c-0.086-0.35-0.306-0.524-0.698-0.524h-4.065c-0.35,0-0.612,0.175-0.699,0.524l-2.021,8.016c-0.611,2.404-1.574,6.12-2.141,8.653
	H9.09c-0.481-2.055-1.748-7.211-2.229-9.397L5.157,9.952C5.069,9.559,4.806,9.426,4.458,9.426H0.523c-0.438,0-0.611,0.307-0.48,0.7
	l6.206,21.466c0.088,0.393,0.306,0.568,0.7,0.568h4.37L11.317,32.163L11.317,32.163z"/>
<path fill="#FFFFFF" d="M32.499,11.78c-0.219,0.175-0.219,0.394,0,0.743l1.749,2.667c0.218,0.35,0.568,0.395,0.874,0.174
	c1.398-0.83,3.409-1.397,5.593-1.397c3.234,0,4.371,1.311,4.371,4.414l-0.073,0.279c-1.311-0.175-2.928-0.35-4.371-0.35
	c-5.594,0-9.571,1.815-9.571,6.578c0,5.464,4.677,7.303,9.746,7.303c3.235,0,6.217-0.612,8.49-1.315
	c0.306-0.131,0.48-0.393,0.48-0.743l0.014-11.795c0-6.162-3.317-8.872-8.736-8.872C37.525,9.464,34.596,10.336,32.499,11.78z
	 M36.186,24.843c0-1.791,1.311-2.882,4.589-2.882c1.355,0,3.059,0.174,4.239,0.348v4.938c-1.092,0.262-2.753,0.524-4.196,0.524
	C38.152,27.772,36.186,26.896,36.186,24.843z"/>
<path fill="#FFFFFF" d="M80.426,29.666c0.349-0.264,0.349-0.525,0.13-0.875l-1.835-2.622c-0.218-0.394-0.524-0.394-0.917-0.176
	c-1.618,1.051-3.41,1.456-5.07,1.456c-3.015,0-5.089-1.411-5.089-4.121l0.042-5.184c0-2.709,2.06-4.092,5.163-4.092
	c1.617,0,3.233,0.717,4.588,1.502c0.394,0.22,0.699,0.132,0.918-0.174l1.704-2.976c0.218-0.351,0.175-0.7-0.175-0.918
	c-2.229-1.398-4.633-2.099-7.167-2.099c-6.032,0-9.746,3.423-9.746,8.756L62.9,23.281c0,5.333,3.671,8.832,9.789,8.832
	C75.748,32.113,78.195,31.238,80.426,29.666z"/>
<path fill="#FFFFFF" d="M120.583,24.918c0-5.027-4.545-5.692-8.129-6.347c-2.885-0.569-5.148-0.344-5.148-2.136
	c0-1.442,1.763-2.551,4.341-2.551c1.967,0,3.933,0.568,5.55,1.442c0.35,0.176,0.656,0.086,0.875-0.218l1.66-2.797
	c0.218-0.35,0.132-0.699-0.218-0.875c-2.578-1.397-5.113-2.01-7.603-2.01c-4.677,0-9.306,2.158-9.306,7.009
	c0,5.289,5.522,5.98,8.8,6.593c1.966,0.349,4.065,0.358,4.065,2.105c0,1.663-1.792,2.505-4.065,2.505
	c-2.273,0-4.633-0.757-6.599-2.198c-0.393-0.262-0.656-0.218-0.874,0.175l-1.661,2.842c-0.217,0.351-0.217,0.655,0.175,0.874
	c2.753,2.01,5.9,2.809,8.873,2.809C116.563,32.139,120.583,29.813,120.583,24.918z"/>
<path fill="#FFFFFF" d="M254.703,31.603l-0.015-19.825c0-0.35-0.131-0.611-0.479-0.743c-2.36-1.004-5.153-1.646-8.388-1.646
	c-5.551,0-10.095,2.433-10.095,9.294l0.072,4.661c0,6.161,4.283,8.813,9.44,8.813c1.573,0,3.392-0.351,4.789-0.965
	c0.133,4.413-1.385,6.093-4.66,6.093c-2.273,0-4.284-0.905-5.9-2.085c-0.351-0.263-0.656-0.175-0.874,0.178l-1.836,2.708
	c-0.216,0.393-0.216,0.653,0.133,0.876c2.315,1.788,4.939,2.65,8.521,2.65C252.321,41.608,254.703,38.072,254.703,31.603z
	 M240.499,23.106l-0.015-4.365c0-3.759,2.409-4.807,5.425-4.807c1.311,0,3.146,0.175,4.063,0.48l0.015,12.188
	c-0.829,0.697-2.607,1.091-4.269,1.091C243.052,27.694,240.499,26.56,240.499,23.106z"/>
<path fill="#FFFFFF" d="M184.801,18.942c0-6.599-3.816-9.531-9.583-9.531c-2.843,0-6.25,0.529-8.831,1.534
	c-0.349,0.131-0.481,0.35-0.481,0.7l-0.019,28.33c0,0.438,0.218,0.656,0.655,0.656h1.496c0,0,2.088,0.283,2.567-1.748v-7.655
	c1.313,0.57,3.196,0.963,4.945,0.963c5.549,0,9.269-3.583,9.269-9.309L184.801,18.942z M180.052,22.925
	c0,3.279-1.751,4.808-4.899,4.808c-1.66,0-3.452-0.481-4.547-1.226l0.021-11.871c1.047-0.438,2.97-0.611,4.456-0.611
	c3.148,0,4.986,1.311,4.986,5.07L180.052,22.925z"/>
<g>
	<path fill="#FFFFFF" d="M209.849,6.686c1.66,0,2.839-1.268,2.839-2.885c0-1.662-1.179-2.841-2.839-2.841
		c-1.617,0-2.885,1.179-2.885,2.841C206.967,5.417,208.232,6.686,209.849,6.686z"/>
	<path fill="#FFFFFF" d="M210.351,32.147c0.668-0.086,1.584-0.473,1.812-1.88l-0.052-20.241c0-0.396-0.216-0.613-0.608-0.613h-3.448
		c-0.393,0-0.655,0.217-0.655,0.613l-0.007,21.464c0,0.438,0.262,0.656,0.654,0.656H210.351L210.351,32.147z"/>
</g>
<path fill="#FFFFFF" d="M232.577,32.147c0.568-0.111,1.158-0.5,1.339-1.536V19.187c0-6.992-3.692-9.788-9.724-9.788
	c-3.104,0-6.164,0.611-8.699,1.704c-0.349,0.175-0.479,0.437-0.479,0.787v19.604c0,0.438,0.218,0.654,0.654,0.654h2.575
	c0.588-0.149,1.252-0.565,1.486-1.638V14.482c1.003-0.262,2.977-0.48,4.463-0.48c3.189,0,4.951,1.164,4.951,5.272v12.217
	c0,0.438,0.26,0.656,0.656,0.656H232.577z"/>
<path fill="#FFFFFF" d="M139.378,32.163c0.712-0.085,1.691-0.472,1.953-1.863V19.258c0-7.036-3.636-9.877-8.966-9.877
	c-1.88,0-3.926,0.306-5.193,0.744l-0.028-9.47c0-0.437-0.218-0.655-0.657-0.655h-3.345c-0.438,0-0.71,0.218-0.71,0.655l0.017,30.851
	c0,0.438,0.219,0.655,0.656,0.655h1.543c0,0,2.147,0.346,2.526-1.886v-15.56c1.047-0.525,3.094-0.788,4.666-0.788
	c3.236,0,4.778,1.268,4.778,5.462v12.115c0,0.438,0.26,0.655,0.653,0.655h2.107V32.163L139.378,32.163z"/>
<path fill="#FFFFFF" d="M100.729,29.943v-0.735c-0.01-0.164-0.019-0.327-0.043-0.51c0.015,0.114,0.029,0.215,0.043,0.32v-9.714
	c0-7.036-3.369-9.877-9.114-9.877c-1.88,0-3.807,0.306-5.075,0.743l-0.028-9.499c0-0.437-0.219-0.656-0.656-0.656h-3.403
	c-0.437,0-0.656,0.219-0.656,0.656l0.029,30.82c0,0.438,0.217,0.654,0.655,0.654h1.532c0,0,2.16,0.348,2.528-1.904V14.758
	c1.049-0.524,2.977-0.786,4.55-0.786c3.234,0,4.894,1.267,4.894,5.463v12.056c0,0.438,0.262,0.656,0.656,0.656h1.518
	C98.16,32.147,100.516,32.538,100.729,29.943z"/>
<path fill="#FFFFFF" d="M62.303,27.376c-0.699,0.046-1.752,0.061-2.146,0.061c-2.229,0-3.778-1.369-3.778-3.774v-9.476h5.021
	c0.646-0.126,1.415-0.567,1.598-1.873l-0.006-1.384c-0.003-0.027-0.002-0.051-0.006-0.081c0.002,0.018,0.003,0.033,0.006,0.051
	l-0.001-0.449c0-0.394-0.262-1.054-0.655-1.054H56.38l0.011-8.812c-0.044-0.35-0.307-0.569-0.656-0.569h-3.41
	c-0.437,0-0.655,0.218-0.655,0.611L51.635,24.1c0,5.77,3.54,8.057,8.085,8.057c0.655,0,1.928-0.016,2.67-0.059
	c0.437-0.044,0.612-0.349,0.612-0.7V27.99C63.003,27.597,62.739,27.376,62.303,27.376z"/>
<path fill="#FFFFFF" d="M205.583,18.942c0-6.599-3.817-9.531-9.583-9.531c-2.844,0-6.25,0.529-8.831,1.534
	c-0.35,0.131-0.48,0.35-0.482,0.7l-0.018,28.33c0,0.438,0.218,0.656,0.654,0.656h1.497c0,0,2.089,0.283,2.567-1.748v-7.655
	c1.312,0.57,3.195,0.963,4.944,0.963c5.55,0,9.27-3.583,9.27-9.309L205.583,18.942z M200.834,22.925
	c0,3.279-1.751,4.808-4.901,4.808c-1.66,0-3.451-0.481-4.546-1.226l0.021-11.871c1.047-0.438,2.971-0.611,4.458-0.611
	c3.146,0,4.986,1.311,4.986,5.07L200.834,22.925z"/>
<g>
	<path fill="#FFFFFF" d="M158.265,8.742l-2.095,3.178c0.66,0.277,1.221,0.646,1.673,1.104l2.111-3.207
		C159.446,9.408,158.889,9.044,158.265,8.742z"/>
	<path fill="#FFFFFF" d="M154.505,11.438l-0.001-3.715c-0.463-0.046-0.94-0.079-1.437-0.079c-0.152,0-0.298,0.01-0.444,0.015
		l0.002,3.697c0.145-0.007,0.288-0.021,0.442-0.021C153.579,11.335,154.054,11.371,154.505,11.438z"/>
	<rect x="159.26" y="17.958" fill="#FFFFFF" width="3.789" height="1.89"/>
	<path fill="#FFFFFF" d="M158.947,14.852c0.188,0.57,0.301,1.184,0.309,1.856l3.633-1.849c-0.109-0.612-0.277-1.201-0.498-1.756
		L158.947,14.852z"/>
</g>
<path fill="#FFFFFF" d="M159.26,22.339v0.59c0,3.208-2.155,5.26-6.196,5.26c-3.994,0-6.151-2.055-6.151-5.26v-6.157
	c0-2.36,1.156-4.141,3.313-4.947V7.952c-4.593,0.987-7.376,4.379-7.376,8.716v6.369c0,5.173,3.946,8.668,10.214,8.668
	c6.317,0,9.983-3.495,9.983-8.668v-0.703L159.26,22.339z"/>
<polygon fill="#FFFFFF" points="157.305,17.966 154.489,17.966 154.486,13.237 152.608,13.237 152.613,19.839 153.27,19.839 
	154.493,19.839 157.316,19.839 "/>
</svg>
