<?xml version="1.0" encoding="utf-8"?>
<!-- Generator: Adobe Illustrator 15.0.0, SVG Export Plug-In . SVG Version: 6.00 Build 0)  -->
<!DOCTYPE svg PUBLIC "-//W3C//DTD SVG 1.1//EN" "http://www.w3.org/Graphics/SVG/1.1/DTD/svg11.dtd">
<svg version="1.1" id="Layer_1" xmlns="http://www.w3.org/2000/svg" xmlns:xlink="http://www.w3.org/1999/xlink" x="0px" y="0px"
	 width="270.704px" height="50.024px" viewBox="0 0 270.704 50.024" enable-background="new 0 0 270.704 50.024"
	 xml:space="preserve">
<g>
	<path fill="#222222" d="M11.982,34.05c0.37,0,0.648-0.188,0.74-0.604l2.545-9.392c0.647-2.452,1.342-5.274,1.758-7.172h0.185
		c0.37,1.897,1.064,4.72,1.712,7.172l2.591,9.392c0.093,0.416,0.324,0.604,0.74,0.604h4.627c0.37,0,0.648-0.188,0.74-0.604
		l6.462-22.841c0.139-0.417-0.031-0.624-0.54-0.624h-4.118c-0.417,0-0.709,0.022-0.802,0.438l-1.651,7.805
		c-0.555,2.313-1.897,7.773-2.359,9.949h-0.139c-0.601-2.686-1.573-6.617-2.221-9.162l-2.349-8.486
		c-0.092-0.37-0.324-0.555-0.74-0.555H14.86c-0.37,0-0.648,0.185-0.74,0.555l-2.139,8.486c-0.647,2.545-1.666,6.479-2.267,9.162
		H9.624c-0.509-2.176-1.851-7.636-2.36-9.949l-1.804-7.688C5.367,10.119,5.089,9.98,4.72,9.98H0.555
		c-0.463,0-0.648,0.324-0.509,0.741l6.57,22.725c0.093,0.416,0.324,0.602,0.741,0.602h4.626V34.05z"/>
	<path fill="#222222" d="M34.406,12.471c-0.231,0.185-0.231,0.417,0,0.786l1.851,2.823c0.231,0.37,0.602,0.417,0.925,0.185
		c1.481-0.879,3.609-1.48,5.922-1.48c3.424,0,4.627,1.388,4.627,4.673l-0.077,0.295c-1.388-0.185-3.1-0.37-4.627-0.37
		c-5.922,0-10.133,1.922-10.133,6.966c0,5.783,4.951,7.729,10.318,7.729c3.424,0,6.582-0.648,8.987-1.391
		c0.324-0.139,0.509-0.416,0.509-0.787l0.015-12.488c0-6.523-3.512-9.392-9.249-9.392C39.728,10.019,36.626,10.943,34.406,12.471z
		 M38.309,26.302c0-1.897,1.388-3.053,4.858-3.053c1.435,0,3.239,0.185,4.488,0.369v5.229c-1.157,0.277-2.915,0.555-4.442,0.555
		C40.391,29.401,38.309,28.476,38.309,26.302z"/>
	<path fill="#222222" d="M86.203,31.405c0.37-0.277,0.37-0.555,0.139-0.926l-1.943-2.775c-0.231-0.416-0.555-0.416-0.972-0.186
		c-1.712,1.111-3.609,1.541-5.367,1.541c-3.192,0-5.387-1.494-5.387-4.363l0.045-5.488c0-2.868,2.18-4.332,5.465-4.332
		c1.712,0,3.423,0.759,4.858,1.591c0.417,0.232,0.74,0.14,0.972-0.185l1.804-3.151c0.231-0.37,0.185-0.74-0.185-0.972
		c-2.36-1.48-4.905-2.221-7.588-2.221c-6.385,0-10.317,3.624-10.318,9.269l-0.077,5.441c0,5.645,3.887,9.348,10.364,9.348
		C81.251,33.997,83.842,33.071,86.203,31.405z"/>
	<path fill="#222222" d="M128.717,26.38c0-5.322-4.812-6.025-8.606-6.719c-3.054-0.602-5.45-0.364-5.45-2.261
		c0-1.527,1.867-2.701,4.596-2.701c2.082,0,4.164,0.602,5.876,1.527c0.37,0.186,0.694,0.092,0.925-0.231l1.758-2.961
		c0.231-0.37,0.139-0.74-0.231-0.926c-2.729-1.48-5.413-2.128-8.05-2.128c-4.951,0-9.851,2.284-9.851,7.42
		c0,5.599,5.847,6.332,9.316,6.979c2.082,0.369,4.303,0.379,4.303,2.229c0,1.76-1.897,2.652-4.303,2.652s-4.904-0.801-6.986-2.328
		c-0.417-0.277-0.694-0.23-0.925,0.186l-1.758,3.008c-0.231,0.371-0.231,0.693,0.185,0.926c2.915,2.127,6.246,2.975,9.393,2.975
		C124.461,34.026,128.717,31.562,128.717,26.38z"/>
	<path fill="#222222" d="M270.704,33.458l-0.016-20.989c0-0.37-0.139-0.647-0.508-0.786c-2.498-1.064-5.455-1.742-8.879-1.742
		c-5.877,0-10.688,2.575-10.688,9.839l0.076,4.934c0,6.524,4.535,9.329,9.994,9.329c1.666,0,3.592-0.371,5.072-1.02
		c0.139,4.672-1.465,6.449-4.934,6.449c-2.406,0-4.535-0.957-6.246-2.207c-0.371-0.277-0.695-0.186-0.926,0.188l-1.943,2.867
		c-0.23,0.416-0.23,0.693,0.139,0.926c2.453,1.896,5.229,2.807,9.021,2.807C268.181,44.05,270.704,40.306,270.704,33.458z
		 M255.667,24.461l-0.016-4.62c0-3.979,2.551-5.089,5.742-5.089c1.389,0,3.332,0.185,4.303,0.508l0.016,12.902
		c-0.879,0.74-2.76,1.156-4.52,1.156C258.37,29.319,255.667,28.118,255.667,24.461z"/>
	<path fill="#222222" d="M196.702,20.054c0-6.986-4.041-10.091-10.146-10.091c-3.008,0-6.617,0.561-9.348,1.624
		c-0.369,0.139-0.51,0.37-0.51,0.74l-0.02,29.992c0,0.465,0.23,0.695,0.693,0.695h1.584c0,0,2.211,0.299,2.719-1.85v-8.104
		c1.389,0.602,3.383,1.018,5.234,1.018c5.875,0,9.813-3.793,9.813-9.855L196.702,20.054z M191.675,24.271
		c0,3.47-1.854,5.089-5.188,5.089c-1.758,0-3.654-0.51-4.813-1.297l0.021-12.568c1.109-0.463,3.146-0.647,4.719-0.647
		c3.332,0,5.279,1.388,5.279,5.367L191.675,24.271z"/>
	<g>
		<path fill="#222222" d="M224.278,7.078c1.758,0,3.006-1.341,3.006-3.053c0-1.759-1.248-3.008-3.006-3.008
			c-1.713,0-3.055,1.249-3.055,3.008C221.226,5.736,222.565,7.078,224.278,7.078z"/>
		<path fill="#222222" d="M224.808,34.034c0.707-0.092,1.678-0.502,1.918-1.99l-0.053-21.43c0-0.417-0.23-0.648-0.646-0.648h-3.65
			c-0.416,0-0.693,0.231-0.693,0.648l-0.008,22.725c0,0.463,0.277,0.695,0.693,0.695H224.808L224.808,34.034z"/>
	</g>
	<path fill="#222222" d="M247.28,34.034c0.602-0.119,1.227-0.529,1.418-1.627V20.313c0-7.403-3.91-10.364-10.295-10.364
		c-3.285,0-6.525,0.648-9.209,1.805c-0.369,0.185-0.508,0.462-0.508,0.833v20.754c0,0.463,0.23,0.693,0.693,0.693h2.725
		c0.623-0.158,1.326-0.6,1.574-1.734V15.332c1.063-0.277,3.15-0.509,4.725-0.509c3.377,0,5.242,1.233,5.242,5.582v12.934
		c0,0.463,0.275,0.695,0.693,0.695H247.28z"/>
	<path fill="#222222" d="M148.614,34.05c0.754-0.09,1.791-0.5,2.068-1.973V20.389c0-7.449-3.85-10.457-9.492-10.457
		c-1.99,0-4.156,0.324-5.498,0.787l-0.03-10.025c0-0.463-0.231-0.694-0.694-0.694h-3.542c-0.463,0-0.752,0.231-0.752,0.694
		l0.018,32.661c0,0.463,0.231,0.693,0.694,0.693h1.634c0,0,2.273,0.367,2.673-1.996V15.578c1.11-0.555,3.276-0.833,4.94-0.833
		c3.426,0,5.059,1.342,5.059,5.783v12.827c0,0.463,0.275,0.693,0.691,0.693h2.23V34.05z"/>
	<path fill="#222222" d="M107.698,31.7v-0.779c-0.01-0.174-0.02-0.346-0.045-0.539c0.016,0.121,0.03,0.227,0.045,0.34V20.437
		c0-7.449-3.567-10.456-9.649-10.456c-1.99,0-4.03,0.323-5.372,0.786L92.647,0.71c0-0.463-0.231-0.694-0.694-0.694H88.35
		c-0.463,0-0.694,0.231-0.694,0.694l0.03,32.629c0,0.463,0.231,0.693,0.694,0.693h1.622c0,0,2.287,0.367,2.676-2.018v-16.39
		c1.11-0.555,3.151-0.833,4.817-0.833c3.424,0,5.181,1.342,5.181,5.784v12.763c0,0.463,0.277,0.695,0.694,0.695h1.608
		C104.978,34.034,107.472,34.446,107.698,31.7z"/>
	<path fill="#222222" d="M65.959,28.983c-0.74,0.047-1.855,0.063-2.272,0.063c-2.36,0-3.999-1.449-3.999-3.995V15.019h5.316
		c0.683-0.134,1.498-0.601,1.692-1.983l-0.006-1.464c-0.004-0.03-0.003-0.055-0.007-0.086c0.002,0.019,0.004,0.035,0.007,0.053
		l-0.002-0.474c0-0.417-0.278-1.117-0.694-1.117h-6.305L59.7,0.62c-0.046-0.37-0.324-0.602-0.694-0.602h-3.61
		c-0.463,0-0.694,0.231-0.694,0.647l-0.037,24.85c0,6.107,3.748,8.529,8.56,8.529c0.694,0,2.041-0.016,2.827-0.063
		c0.463-0.047,0.648-0.369,0.648-0.74v-3.609C66.7,29.216,66.421,28.983,65.959,28.983z"/>
	<path fill="#222222" d="M218.702,20.054c0-6.986-4.041-10.091-10.146-10.091c-3.01,0-6.617,0.561-9.348,1.624
		c-0.369,0.139-0.508,0.37-0.51,0.74l-0.02,29.992c0,0.465,0.23,0.695,0.693,0.695h1.584c0,0,2.211,0.299,2.719-1.85v-8.104
		c1.389,0.602,3.383,1.018,5.234,1.018c5.875,0,9.813-3.793,9.813-9.855L218.702,20.054z M213.675,24.271
		c0,3.47-1.854,5.089-5.188,5.089c-1.758,0-3.654-0.51-4.813-1.297l0.021-12.568c1.109-0.463,3.146-0.647,4.719-0.647
		c3.332,0,5.279,1.388,5.279,5.367L213.675,24.271z"/>
	<g>
		<path fill="#A72A2A" d="M168.608,9.255l-2.217,3.364c0.699,0.294,1.293,0.684,1.771,1.169l2.234-3.394
			C169.86,9.959,169.269,9.575,168.608,9.255z"/>
		<path fill="#A72A2A" d="M164.63,12.11l-0.002-3.934c-0.492-0.049-0.996-0.083-1.523-0.083c-0.16,0-0.313,0.01-0.469,0.016
			l0.002,3.914c0.154-0.008,0.305-0.023,0.467-0.023C163.646,12,164.151,12.038,164.63,12.11z"/>
		<rect x="169.663" y="19.011" fill="#A72A2A" width="4.012" height="2.001"/>
		<path fill="#A72A2A" d="M169.331,15.724c0.199,0.603,0.318,1.253,0.326,1.964l3.846-1.956c-0.117-0.649-0.293-1.272-0.529-1.86
			L169.331,15.724z"/>
	</g>
	<path fill="#222222" d="M169.663,23.65v0.625c0,3.396-2.281,5.568-6.561,5.568c-4.229,0-6.512-2.174-6.512-5.568v-6.52
		c0-2.498,1.225-4.383,3.508-5.236v-4.1c-4.861,1.045-7.809,4.636-7.809,9.228v6.742c0,5.477,4.178,9.176,10.813,9.176
		c6.688,0,10.57-3.699,10.57-9.176v-0.744L169.663,23.65z"/>
	<polygon fill="#A72A2A" points="167.593,19.02 164.612,19.02 164.608,14.014 162.62,14.014 162.626,21.003 163.321,21.003 
		164.616,21.003 167.604,21.003 	"/>
	<g>
		<path fill="#222222" d="M9.624,42.969c0.637-0.317,1.008-0.944,1.008-1.735c0-1.326-0.979-2.057-2.756-2.057H5.603v8.204h2.431
			c1.958,0,3.082-0.891,3.082-2.442C11.116,43.94,10.577,43.236,9.624,42.969z M7.719,39.886c1.478,0,2.108,0.421,2.108,1.408
			c0,0.931-0.709,1.383-2.169,1.383H6.408v-2.791H7.719z M6.408,43.386h1.48c1.615,0,2.434,0.526,2.434,1.564
			c0,1.424-1.323,1.723-2.434,1.723h-1.48V43.386z"/>
		<path fill="#222222" d="M17.357,45.69c-0.668,0.803-1.144,1.103-1.745,1.103c-0.835,0-1.191-0.504-1.191-1.686v-3.771h-0.78v3.843
			c0,1.579,0.613,2.347,1.875,2.347c0.678,0,1.267-0.297,1.884-0.955l0.051,0.81h0.688v-6.044h-0.781V45.69z"/>
		<path fill="#222222" d="M23.542,45.069l-0.121,0.379c-0.101,0.317-0.213,0.669-0.323,0.99c-0.149-0.364-0.298-0.765-0.433-1.125
			l-1.524-3.977H20.29l2.431,6.033l-0.144,0.462c-0.216,0.66-0.629,1.447-1.366,1.447c-0.152,0-0.319-0.045-0.424-0.088
			l-0.133-0.053l-0.181,0.709l0.095,0.044c0.182,0.084,0.417,0.133,0.643,0.133c0.924,0,1.618-0.675,2.062-2.003l2.351-6.685h-0.809
			L23.542,45.069z"/>
		<polygon fill="#222222" points="32.27,39.177 31.465,39.177 31.465,47.381 35.94,47.381 35.94,46.647 32.27,46.647 		"/>
		<path fill="#222222" d="M41.879,45.69c-0.668,0.803-1.144,1.103-1.745,1.103c-0.835,0-1.191-0.504-1.191-1.686v-3.771h-0.78v3.843
			c0,1.579,0.613,2.347,1.875,2.347c0.678,0,1.267-0.297,1.884-0.955l0.051,0.81h0.688v-6.044h-0.781V45.69z"/>
		<path fill="#222222" d="M49.654,41.337h-0.853l-0.94,1.529c-0.102,0.155-0.197,0.313-0.293,0.472
			c-0.073,0.121-0.146,0.241-0.221,0.36c-0.194-0.285-0.376-0.576-0.532-0.831l-0.979-1.53h-0.891l1.893,2.89l-2.049,3.154h0.867
			l1.025-1.64c0.088-0.139,0.173-0.278,0.257-0.417c0.109-0.179,0.216-0.355,0.328-0.526c0.189,0.272,0.388,0.582,0.605,0.945
			l1.063,1.638h0.891l-2.05-3.107L49.654,41.337z"/>
		<path fill="#222222" d="M55.589,45.69c-0.668,0.803-1.144,1.103-1.745,1.103c-0.835,0-1.191-0.504-1.191-1.686v-3.771h-0.78v3.843
			c0,1.579,0.613,2.347,1.875,2.347c0.678,0,1.267-0.297,1.884-0.955l0.051,0.81h0.688v-6.044h-0.781V45.69z"/>
		<path fill="#222222" d="M61.857,41.192c-0.591,0-1.14,0.346-1.569,0.982l-0.037-0.838h-0.704v6.044h0.781v-4.047
			c0.367-0.88,0.896-1.384,1.456-1.384c0.216,0,0.311,0.021,0.487,0.088l0.131,0.049l0.178-0.715l-0.089-0.045
			C62.27,41.215,62.078,41.192,61.857,41.192z"/>
		<path fill="#222222" d="M66.806,45.069l-0.121,0.379c-0.101,0.317-0.213,0.669-0.323,0.99c-0.149-0.364-0.298-0.765-0.433-1.125
			l-1.524-3.977h-0.851l2.431,6.033l-0.144,0.462c-0.216,0.66-0.629,1.447-1.366,1.447c-0.152,0-0.319-0.045-0.424-0.088
			l-0.133-0.053l-0.181,0.709l0.095,0.044c0.182,0.084,0.417,0.133,0.643,0.133c0.924,0,1.618-0.675,2.062-2.003l2.351-6.685h-0.809
			L66.806,45.069z"/>
		<path fill="#222222" d="M80.646,43.96c-0.088,0.425-0.171,0.847-0.254,1.27c-0.058,0.296-0.116,0.593-0.176,0.891
			c-0.072-0.29-0.142-0.578-0.213-0.867c-0.106-0.432-0.212-0.863-0.321-1.3l-1.268-4.776h-0.76l-1.268,4.778
			c-0.179,0.717-0.352,1.438-0.515,2.151c-0.101-0.479-0.201-0.961-0.302-1.444l-1.17-5.485h-0.837l1.845,8.106l0.022,0.098h0.8
			l1.449-5.553c0.063-0.273,0.131-0.53,0.199-0.786c0.05-0.188,0.101-0.38,0.149-0.578c0.054,0.232,0.109,0.457,0.165,0.686
			c0.053,0.221,0.108,0.443,0.164,0.683l1.473,5.549h0.812l1.83-8.204h-0.8L80.646,43.96z"/>
		<path fill="#222222" d="M86.716,41.192c-0.99,0-1.824,0.483-2.232,0.771l-0.096,0.067l0.372,0.614l0.11-0.079
			c0.41-0.298,1.051-0.652,1.773-0.652c0.363,0,0.649,0.104,0.852,0.309c0.259,0.263,0.393,0.696,0.399,1.29
			c-2.655,0.313-3.741,0.981-3.741,2.296c0,1.061,0.691,1.719,1.803,1.719c0.785,0,1.482-0.429,1.977-0.803l0.042,0.657h0.701V43.55
			C88.676,42.029,87.98,41.192,86.716,41.192z M87.895,44.174v1.77c-0.739,0.62-1.275,0.874-1.842,0.874
			c-0.413,0-1.106-0.135-1.106-1.034C84.947,45.137,85.308,44.496,87.895,44.174z"/>
		<path fill="#222222" d="M93.845,46.636c-0.179,0.085-0.467,0.17-0.671,0.17c-0.622,0-0.853-0.3-0.853-1.107v-3.652h1.678v-0.709
			h-1.678v-1.678h-0.703l-0.074,1.684l-0.922,0.05v0.653h0.905v3.604c0,1.263,0.515,1.876,1.573,1.876
			c0.29,0,0.694-0.122,0.983-0.225l0.115-0.041l-0.228-0.685L93.845,46.636z"/>
		<path fill="#222222" d="M99.824,46.174c-0.318,0.288-0.829,0.632-1.461,0.632c-1.182,0-1.976-0.979-1.976-2.435
			c0-1.424,0.831-2.458,1.976-2.458c0.456,0,0.866,0.185,1.291,0.582l0.096,0.09l0.476-0.566l-0.089-0.081
			c-0.404-0.368-0.933-0.745-1.786-0.745c-1.333,0-2.768,0.995-2.768,3.179c0,1.888,1.107,3.155,2.756,3.155
			c0.682,0,1.331-0.267,1.929-0.793l0.086-0.076l-0.428-0.576L99.824,46.174z"/>
		<path fill="#222222" d="M105.049,41.192c-0.774,0-1.365,0.401-1.879,0.881v-3.621h-0.781v8.929h0.781v-4.442
			c0.666-0.673,1.128-1.014,1.77-1.014c0.843,0,1.203,0.504,1.203,1.686v3.771h0.781v-3.843
			C106.924,41.96,106.311,41.192,105.049,41.192z"/>
		<path fill="#222222" d="M111.831,41.192c-1.283,0-2.647,1.114-2.647,3.179c0,1.857,1.153,3.155,2.804,3.155
			c0.847,0,1.376-0.277,1.888-0.586l0.102-0.062l-0.341-0.642l-0.116,0.084c-0.467,0.339-0.939,0.496-1.483,0.496
			c-1.172,0-1.986-0.903-2.055-2.261h4.152l0.017-0.104c0.026-0.155,0.026-0.308,0.026-0.455
			C114.176,42.241,113.299,41.192,111.831,41.192z M113.418,43.872h-3.428c0.149-1.167,0.897-1.971,1.852-1.971
			C112.828,41.901,113.384,42.6,113.418,43.872z"/>
		<path fill="#222222" d="M118.174,43.934l-0.145-0.054c-0.66-0.243-1.283-0.473-1.283-1.054c0-0.427,0.309-0.925,1.179-0.925
			c0.578,0,0.972,0.237,1.313,0.494l0.099,0.074l0.439-0.568l-0.093-0.077c-0.479-0.396-1.127-0.632-1.734-0.632
			c-1.378,0-1.995,0.839-1.995,1.67c0,1.083,1.07,1.465,1.929,1.771c0.673,0.244,1.33,0.534,1.33,1.162
			c0,0.62-0.491,1.021-1.251,1.021c-0.76,0-1.24-0.271-1.767-0.708l-0.099-0.081l-0.468,0.594l0.093,0.078
			c0.369,0.309,1.146,0.826,2.204,0.826c1.429,0,2.08-0.91,2.08-1.755C120.005,44.609,119.032,44.25,118.174,43.934z"/>
		<path fill="#222222" d="M128.762,39.032c-2.031,0-3.396,1.694-3.396,4.217c0,2.559,1.365,4.277,3.396,4.277
			c2.039,0,3.408-1.719,3.408-4.277C132.17,40.727,130.801,39.032,128.762,39.032z M128.762,46.769c-1.559,0-2.566-1.382-2.566-3.52
			c0-2.102,1.007-3.46,2.566-3.46s2.566,1.358,2.566,3.46C131.329,45.387,130.321,46.769,128.762,46.769z"/>
		<path fill="#222222" d="M137.548,41.192c-0.797,0-1.396,0.422-1.916,0.915l-0.041-0.771h-0.703v6.044h0.781v-4.442
			c0.666-0.673,1.128-1.014,1.769-1.014c0.844,0,1.203,0.504,1.203,1.686v3.771h0.781v-3.843
			C139.423,41.96,138.81,41.192,137.548,41.192z"/>
		<path fill="#222222" d="M143.616,46.783c-0.108,0.022-0.146,0.022-0.191,0.022c-0.115,0-0.129-0.175-0.129-0.25v-8.104h-0.781
			v8.031c0,0.862,0.455,1.043,0.838,1.043c0.193,0,0.318-0.032,0.425-0.066l0.108-0.035l-0.148-0.667L143.616,46.783z"/>
		<path fill="#222222" d="M146.985,38.983c-0.353,0-0.607,0.256-0.607,0.608c0,0.34,0.261,0.596,0.607,0.596
			c0.346,0,0.607-0.256,0.607-0.596C147.593,39.239,147.337,38.983,146.985,38.983z"/>
		<rect x="146.583" y="41.337" fill="#222222" width="0.781" height="6.044"/>
		<path fill="#222222" d="M153.212,41.192c-0.797,0-1.396,0.422-1.916,0.915l-0.041-0.771h-0.703v6.044h0.781v-4.442
			c0.666-0.673,1.129-1.014,1.77-1.014c0.844,0,1.203,0.504,1.203,1.686v3.771h0.781v-3.843
			C155.087,41.96,154.474,41.192,153.212,41.192z"/>
		<path fill="#222222" d="M160.345,41.192c-1.283,0-2.646,1.114-2.646,3.179c0,1.857,1.152,3.155,2.803,3.155
			c0.848,0,1.377-0.277,1.889-0.586l0.102-0.062l-0.342-0.642l-0.115,0.084c-0.468,0.339-0.939,0.496-1.484,0.496
			c-1.172,0-1.985-0.903-2.055-2.261h4.152l0.018-0.104c0.025-0.155,0.025-0.308,0.025-0.455
			C162.69,42.241,161.813,41.192,160.345,41.192z M161.933,43.872h-3.428c0.149-1.167,0.896-1.971,1.852-1.971
			C161.343,41.901,161.898,42.6,161.933,43.872z"/>
	</g>
</g>
</svg>
