<?xml version="1.0" encoding="utf-8"?>
<!-- Generator: Adobe Illustrator 15.0.0, SVG Export Plug-In . SVG Version: 6.00 Build 0)  -->
<!DOCTYPE svg PUBLIC "-//W3C//DTD SVG 1.1//EN" "http://www.w3.org/Graphics/SVG/1.1/DTD/svg11.dtd">
<svg version="1.1" id="Layer_1" xmlns="http://www.w3.org/2000/svg" xmlns:xlink="http://www.w3.org/1999/xlink" x="0px" y="0px"
	 width="1.465px" height="1px" viewBox="0 0 1.465 1" enable-background="new 0 0 1.465 1" xml:space="preserve">
<path fill="#8EA4B7" d="M1.374,0H0.092C0.041,0,0,0.041,0,0.092v0.816C0,0.959,0.041,1,0.092,1h1.282
	c0.051,0,0.091-0.041,0.091-0.092V0.092C1.465,0.041,1.424,0,1.374,0z M1.389,0.908c0,0.008-0.007,0.015-0.015,0.015H0.092
	c-0.008,0-0.015-0.006-0.015-0.015V0.092c0-0.008,0.006-0.015,0.015-0.015h1.282c0.008,0,0.015,0.006,0.015,0.015V0.908z"/>
<path fill="#8EA4B7" d="M0.361,0.702v0.077h-0.2V0.702H0.361z"/>
<path fill="#8EA4B7" d="M0.696,0.702v0.077H0.497V0.702H0.696z"/>
<path fill="#8EA4B7" d="M1.003,0.702v0.077h-0.2V0.702H1.003z"/>
<path fill="#8EA4B7" d="M1.316,0.702v0.077H1.117V0.702H1.316z"/>
<path fill="#8EA4B7" d="M0.181,0.463h0.37v-0.3h-0.37V0.463z M0.258,0.24h0.215v0.146H0.258V0.24z"/>
</svg>
