<?xml version="1.0" encoding="utf-8"?>
<!-- Generator: Adobe Illustrator 15.0.0, SVG Export Plug-In . SVG Version: 6.00 Build 0)  -->
<!DOCTYPE svg PUBLIC "-//W3C//DTD SVG 1.1//EN" "http://www.w3.org/Graphics/SVG/1.1/DTD/svg11.dtd">
<svg version="1.1" id="Layer_1" xmlns="http://www.w3.org/2000/svg" xmlns:xlink="http://www.w3.org/1999/xlink" x="0px" y="0px"
	 width="18.398px" height="20.009px" viewBox="0 0 18.398 20.009" enable-background="new 0 0 18.398 20.009" xml:space="preserve">
<g>
	<path fill-rule="evenodd" clip-rule="evenodd" fill="#FFFFFF" d="M7.054,5.826L5.068,7.381c0,0-0.691,0.69,0.086,2.159
		c0.777,1.469,2.505,3.542,4.492,5.097c0.691,0.691,1.382,1.036,1.987,0.086c0.863-0.776,1.641-1.641,1.641-1.641
		s0.26-1.296,1.641-0.173c1.383,1.123,3.456,3.023,3.456,3.023s0.173,0.519-0.346,1.296s-2.245,2.332-2.245,2.332
		s-4.233,1.296-6.738-0.519c-2.505-1.813-7.429-5.096-8.984-11.229C-0.202,4.185,0.403,3.062,2.13,1.42
		c0.951-1.036,0.951-1.036,0.951-1.036s0.691-0.864,1.728,0C5.845,1.42,7.746,4.617,7.746,4.617S7.746,5.567,7.054,5.826z"/>
</g>
</svg>
