<?xml version="1.0" encoding="utf-8"?>
<!-- Generator: Adobe Illustrator 15.0.0, SVG Export Plug-In . SVG Version: 6.00 Build 0)  -->
<!DOCTYPE svg PUBLIC "-//W3C//DTD SVG 1.1//EN" "http://www.w3.org/Graphics/SVG/1.1/DTD/svg11.dtd">
<svg version="1.1" id="Layer_1" xmlns="http://www.w3.org/2000/svg" xmlns:xlink="http://www.w3.org/1999/xlink" x="0px" y="0px"
	 width="24.125px" height="24.125px" viewBox="0 0 24.125 24.125" enable-background="new 0 0 24.125 24.125" xml:space="preserve">
<path fill="#25437B" d="M12.063,0C5.4,0,0,5.4,0,12.063c0,6.661,5.4,12.063,12.063,12.063s12.063-5.401,12.063-12.063
	C24.125,5.4,18.725,0,12.063,0z M12.064,22.061c-5.522,0-10-4.478-10-10.001c0-5.522,4.478-10,10-10c5.523,0,10,4.478,10,10
	C22.064,17.583,17.588,22.061,12.064,22.061z"/>
<path fill="#25437B" d="M10.601,7.489c-0.242-0.205-0.636-0.205-0.879,0v9.655c0.243,0.205,0.637,0.205,0.879,0l6.036-4.457
	c0.243-0.204,0.243-0.537,0-0.742L10.601,7.489z"/>
</svg>
