<?xml version="1.0" encoding="utf-8"?>
<!-- Generator: Adobe Illustrator 15.0.0, SVG Export Plug-In . SVG Version: 6.00 Build 0)  -->
<!DOCTYPE svg PUBLIC "-//W3C//DTD SVG 1.1//EN" "http://www.w3.org/Graphics/SVG/1.1/DTD/svg11.dtd">
<svg version="1.1" id="Layer_1" xmlns="http://www.w3.org/2000/svg" xmlns:xlink="http://www.w3.org/1999/xlink" x="0px" y="0px"
	 width="1px" height="1.346px" viewBox="0 0 1 1.346" enable-background="new 0 0 1 1.346" xml:space="preserve">
<path fill="#035280" d="M1,0.5C1,0.224,0.776,0,0.5,0S0.001,0.224,0.001,0.5c0,0.163,0.079,0.308,0.2,0.399L0,1.198l0.001,0.001
	l0.202-0.058l0.058,0.203l0.001,0.001l0.178-0.352C0.46,0.997,0.48,0.999,0.5,0.999c0.013,0,0.025-0.001,0.038-0.001l0.177,0.349
	l0.001-0.001l0.059-0.203l0.203,0.056L0.785,0.91C0.915,0.82,1,0.669,1,0.5z M0.661,0.556l0.023,0.187l-0.17-0.08l-0.17,0.08
	l0.023-0.187L0.238,0.419l0.185-0.036l0.091-0.165l0.091,0.165L0.79,0.419L0.661,0.556z"/>
</svg>
