<?xml version="1.0" encoding="utf-8"?>
<!-- Generator: Adobe Illustrator 15.0.0, SVG Export Plug-In . SVG Version: 6.00 Build 0)  -->
<!DOCTYPE svg PUBLIC "-//W3C//DTD SVG 1.1//EN" "http://www.w3.org/Graphics/SVG/1.1/DTD/svg11.dtd">
<svg version="1.1" id="Layer_1" xmlns="http://www.w3.org/2000/svg" xmlns:xlink="http://www.w3.org/1999/xlink" x="0px" y="0px"
	 width="1.085px" height="1px" viewBox="0 0 1.085 1" enable-background="new 0 0 1.085 1" xml:space="preserve">
<g>
	<path fill="#879EB2" d="M0.722,1L0.388,0.725H0.124C0.055,0.725,0,0.669,0,0.602V0.124C0,0.055,0.055,0,0.124,0h0.838
		C1.03,0,1.085,0.055,1.085,0.124v0.478c0,0.068-0.055,0.124-0.124,0.124h-0.24L0.722,1z M0.124,0.061
		c-0.035,0-0.063,0.028-0.063,0.063v0.478c0,0.035,0.028,0.063,0.063,0.063h0.285l0.253,0.208V0.665h0.3
		c0.035,0,0.063-0.028,0.063-0.063V0.124c0-0.035-0.028-0.063-0.063-0.063H0.124z"/>
</g>
<g>
	<path fill-rule="evenodd" clip-rule="evenodd" fill="#879EB2" d="M0.243,0.274c0.05,0,0.09,0.041,0.09,0.09s-0.04,0.09-0.09,0.09
		s-0.091-0.041-0.091-0.09S0.193,0.274,0.243,0.274z"/>
</g>
<g>
	<path fill-rule="evenodd" clip-rule="evenodd" fill="#879EB2" d="M0.545,0.274c0.05,0,0.091,0.041,0.091,0.09
		s-0.041,0.09-0.091,0.09s-0.09-0.041-0.09-0.09S0.496,0.274,0.545,0.274z"/>
</g>
<g>
	<path fill-rule="evenodd" clip-rule="evenodd" fill="#879EB2" d="M0.847,0.274c0.049,0,0.09,0.041,0.09,0.09s-0.041,0.09-0.09,0.09
		c-0.05,0-0.091-0.041-0.091-0.09S0.797,0.274,0.847,0.274z"/>
</g>
</svg>
