<?xml version="1.0" encoding="utf-8"?>
<!-- Generator: Adobe Illustrator 15.0.0, SVG Export Plug-In . SVG Version: 6.00 Build 0)  -->
<!DOCTYPE svg PUBLIC "-//W3C//DTD SVG 1.1//EN" "http://www.w3.org/Graphics/SVG/1.1/DTD/svg11.dtd">
<svg version="1.1" id="Layer_1" xmlns="http://www.w3.org/2000/svg" xmlns:xlink="http://www.w3.org/1999/xlink" x="0px" y="0px"
	 width="1.297px" height="1px" viewBox="0 0 1.297 1" enable-background="new 0 0 1.297 1" xml:space="preserve">
<g>
	<path fill="#8EA4B7" d="M0.662,0.76V0.706C0.73,0.69,0.771,0.641,0.771,0.577c0-0.127-0.176-0.122-0.176-0.186
		c0-0.03,0.018-0.042,0.049-0.042c0.028,0,0.049,0.011,0.073,0.034l0.049-0.057C0.74,0.299,0.705,0.278,0.662,0.272V0.205H0.604
		v0.068C0.542,0.286,0.501,0.332,0.501,0.396c0,0.12,0.175,0.119,0.175,0.187c0,0.031-0.017,0.046-0.054,0.046
		c-0.032,0-0.061-0.013-0.095-0.039L0.485,0.657c0.031,0.028,0.079,0.045,0.119,0.051V0.76H0.662z"/>
	<path fill="#8EA4B7" d="M0.317,0.437L0.206,0.549C0.204,0.533,0.203,0.517,0.203,0.5c0-0.246,0.199-0.445,0.444-0.445
		c0.181,0,0.336,0.108,0.405,0.262h0.061C1.039,0.132,0.859,0,0.647,0c-0.276,0-0.5,0.224-0.5,0.5c0,0.014,0.001,0.028,0.002,0.042
		L0.044,0.437L0,0.48l0.181,0.181l0.18-0.181L0.317,0.437z"/>
	<path fill="#8EA4B7" d="M1.297,0.585l-0.18-0.181l-0.18,0.181L0.98,0.628l0.11-0.11C1.08,0.755,0.886,0.945,0.646,0.945
		c-0.149,0-0.282-0.074-0.362-0.188H0.219C0.306,0.902,0.464,1,0.647,1c0.27,0,0.488-0.213,0.499-0.48l0.108,0.108L1.297,0.585z"/>
</g>
</svg>
