<?xml version="1.0" encoding="utf-8"?>
<!-- Generator: Adobe Illustrator 15.0.0, SVG Export Plug-In . SVG Version: 6.00 Build 0)  -->
<!DOCTYPE svg PUBLIC "-//W3C//DTD SVG 1.1//EN" "http://www.w3.org/Graphics/SVG/1.1/DTD/svg11.dtd">
<svg version="1.1" id="Layer_1" xmlns="http://www.w3.org/2000/svg" xmlns:xlink="http://www.w3.org/1999/xlink" x="0px" y="0px"
	 width="25.976px" height="21.743px" viewBox="0 0 25.976 21.743" enable-background="new 0 0 25.976 21.743" xml:space="preserve">
<path fill-rule="evenodd" clip-rule="evenodd" fill="#516995" d="M6.149,6.037l0.854,1.55L8.74,7.92L7.531,9.211l0.22,1.756
	l-1.602-0.751l-1.602,0.751l0.22-1.756L3.558,7.92l1.737-0.333L6.149,6.037"/>
<path fill-rule="evenodd" clip-rule="evenodd" fill="#516995" d="M13.149,6.037l0.854,1.55L15.74,7.92l-1.209,1.291l0.22,1.756
	l-1.602-0.751l-1.602,0.751l0.22-1.756l-1.21-1.291l1.737-0.333L13.149,6.037"/>
<path fill-rule="evenodd" clip-rule="evenodd" fill="#516995" d="M19.815,6.037l0.854,1.55l1.737,0.333l-1.209,1.291l0.219,1.756
	l-1.602-0.751l-1.602,0.751l0.22-1.756L17.225,7.92l1.737-0.333L19.815,6.037"/>
<path fill="#516995" d="M21.976,0H4C1.794,0,0,1.794,0,4v8.955c0,2.206,1.794,4,4,4h5.845l4.814,4.282
	c0.373,0.332,0.849,0.506,1.329,0.506c0.277,0,0.558-0.058,0.82-0.176c0.719-0.323,1.181-1.038,1.18-1.827l-0.003-2.785h3.99
	c2.206,0,4-1.794,4-4V4C25.976,1.794,24.182,0,21.976,0z M23.976,12.955c0,1.104-0.896,2-2,2h-5.993l0.006,4.788l-5.383-4.788H4
	c-1.104,0-2-0.896-2-2V4c0-1.104,0.896-2,2-2h17.976c1.104,0,2,0.896,2,2V12.955z"/>
</svg>
