<?xml version="1.0" encoding="utf-8"?>
<!-- Generator: Adobe Illustrator 15.0.0, SVG Export Plug-In . SVG Version: 6.00 Build 0)  -->
<!DOCTYPE svg PUBLIC "-//W3C//DTD SVG 1.1//EN" "http://www.w3.org/Graphics/SVG/1.1/DTD/svg11.dtd">
<svg version="1.1" id="Layer_1" xmlns="http://www.w3.org/2000/svg" xmlns:xlink="http://www.w3.org/1999/xlink" x="0px" y="0px"
	 width="11.775px" height="11.779px" viewBox="0 0 11.775 11.779" enable-background="new 0 0 11.775 11.779" xml:space="preserve">
<path fill-rule="evenodd" clip-rule="evenodd" fill="#C9BF8B" d="M5.888,0.004C2.636,0.004,0,2.64,0,5.892
	c0,3.251,2.636,5.887,5.888,5.887c3.251,0,5.887-2.636,5.887-5.887C11.775,2.64,9.139,0.004,5.888,0.004z M5.887,10.861
	c-2.745,0-4.971-2.226-4.971-4.971c0-2.746,2.226-4.971,4.971-4.971s4.971,2.225,4.971,4.971
	C10.858,8.636,8.632,10.861,5.887,10.861z"/>
<path fill-rule="evenodd" clip-rule="evenodd" fill="#BDAC53" d="M3.544,3.661c0,0,1.373,2.178,2.006,1.756
	C6.185,4.995,11.588,0,11.588,0L10.73,2.469c0,0-4.58,8.396-6.954,5.374C2.121,5.734,3.544,3.661,3.544,3.661z"/>
</svg>
