<?xml version="1.0" encoding="utf-8"?>
<!-- Generator: Adobe Illustrator 13.0.0, SVG Export Plug-In . SVG Version: 6.00 Build 14948)  -->
<!DOCTYPE svg PUBLIC "-//W3C//DTD SVG 1.1//EN" "http://www.w3.org/Graphics/SVG/1.1/DTD/svg11.dtd">
<svg version="1.1" id="Layer_1" xmlns="http://www.w3.org/2000/svg" xmlns:xlink="http://www.w3.org/1999/xlink" x="0px" y="0px"
	 width="7.225px" height="1px" viewBox="60.167 7.221 7.225 1" enable-background="new 60.167 7.221 7.225 1" xml:space="preserve">
<g id="Ap_3_">
	<g>
		<path fill="#FFFFFF" d="M0.987,0.194c0.04,0,0.06,0.04,0.06,0.102V0.73c0,0.227-0.114,0.232-0.159,0.209
			c-0.059-0.029-0.07-0.125-0.07-0.216V0.295c0-0.063,0.022-0.103,0.063-0.103V0.17H0.647v0.022c0.041,0,0.06,0.04,0.06,0.103v0.472
			c0,0.085,0.051,0.221,0.171,0.232c0.119,0.004,0.199-0.067,0.199-0.278V0.295c0-0.063,0.021-0.103,0.057-0.103V0.17H0.99v0.023
			L0.987,0.194L0.987,0.194z"/>
		<path fill="#FFFFFF" d="M1.402,0.17H1.18v0.022c0.04,0,0.063,0.04,0.063,0.103v0.557c0,0.063-0.023,0.103-0.063,0.103v0.022h0.239
			c0.051,0,0.102-0.027,0.151-0.092c0.078-0.104,0.104-0.34,0.063-0.479C1.595,0.221,1.504,0.17,1.402,0.17L1.402,0.17z
			 M1.515,0.785C1.504,0.842,1.487,0.944,1.384,0.944c-0.028,0-0.028-0.012-0.028-0.073V0.279c0-0.063,0-0.067,0.028-0.067
			c0.04,0,0.068-0.007,0.102,0.063C1.544,0.381,1.544,0.643,1.515,0.785L1.515,0.785z"/>
		<path fill="#FFFFFF" d="M1.879,0.943c-0.035-0.006-0.04-0.022-0.04-0.079V0.592c0.08,0.006,0.096,0.027,0.12,0.176H1.97V0.375
			H1.959c-0.023,0.147-0.04,0.165-0.12,0.176V0.279c0-0.063,0.005-0.073,0.028-0.067H1.93c0.114,0.006,0.119,0.164,0.125,0.203
			h0.021V0.17H1.669v0.022c0.034,0,0.057,0.04,0.057,0.103v0.557c0,0.063-0.021,0.103-0.057,0.103v0.022h0.409l0.025-0.244H2.088
			C2.038,0.904,1.981,0.955,1.879,0.943L1.879,0.943z"/>
		<path fill="#FFFFFF" d="M0.589,0.006L0.351,0v0.045h0.074L0.079,0.943H0v0.045h0.21V0.943H0.125L0.23,0.676c0,0,0.007,0,0.21,0
			c0,0,0,0,0,0.267H0.345c0,0,0,0.006,0,0.045c0,0,0.017,0,0.335,0V0.943H0.589V0.006L0.589,0.006z M0.442,0.643H0.249l0.19-0.5
			L0.442,0.643L0.442,0.643z"/>
		<path fill="#FFFFFF" d="M4.866,0L4.866,0H4.491v0.045h0.091v0.897H4.479v0.045c0.08,0,0.205,0,0.35,0c0,0,0-0.005,0-0.045h-0.1
			c0,0,0,0,0-0.392h0.147c0.052,0,0.092-0.052,0.092-0.086v-0.38C4.969,0.057,4.935,0,4.866,0L4.866,0z M4.826,0.484
			c0,0.017-0.015,0.028-0.027,0.028H4.731V0.301V0.25V0.045h0.068c0.017,0,0.027,0.012,0.027,0.023V0.484L4.826,0.484z"/>
		<path fill="#FFFFFF" d="M5.573,0.637c0.036,0,0.056,0.039,0.056,0.104v0.153c0,0.018,0,0.045-0.028,0.063
			c-0.018,0.012-0.04,0.012-0.058,0.012c-0.011,0-0.028,0-0.039-0.018C5.47,0.926,5.452,0.881,5.436,0.801
			C5.424,0.75,5.418,0.666,5.418,0.581c0-0.091,0.006-0.176,0.018-0.228c0.02-0.079,0.033-0.125,0.068-0.147
			c0.011-0.012,0.028-0.017,0.039-0.017c0.046,0,0.146,0.08,0.183,0.255h0.02V0.16h-0.02C5.713,0.182,5.713,0.221,5.674,0.211
			C5.651,0.2,5.605,0.165,5.542,0.16c-0.045,0-0.1,0.022-0.145,0.073c-0.065,0.068-0.1,0.205-0.1,0.347
			c0,0.136,0.033,0.272,0.103,0.347C5.447,0.971,5.498,1,5.543,1C5.564,1,5.589,1,5.61,0.995C5.63,0.989,5.724,0.966,5.743,0.938
			V0.739c0-0.063,0.021-0.104,0.063-0.104V0.614H5.573V0.637L5.573,0.637z"/>
		<path fill="#FFFFFF" d="M6.145,0.194c0.039,0,0.06,0.04,0.06,0.102V0.73c0,0.227-0.114,0.232-0.159,0.209
			c-0.061-0.029-0.07-0.125-0.07-0.216V0.295c0-0.063,0.022-0.103,0.063-0.103V0.17H5.806v0.022c0.039,0,0.056,0.04,0.056,0.103
			v0.472c0,0.085,0.056,0.221,0.174,0.232c0.116,0.004,0.196-0.067,0.196-0.278V0.295c0-0.063,0.022-0.103,0.06-0.103V0.17H6.147
			v0.023L6.145,0.194L6.145,0.194z"/>
		<path fill="#FFFFFF" d="M6.559,0.943C6.52,0.937,6.52,0.92,6.52,0.864V0.592C6.599,0.598,6.61,0.62,6.633,0.768H6.65V0.375H6.633
			C6.611,0.523,6.599,0.541,6.52,0.551V0.279c0-0.063,0.006-0.073,0.028-0.067H6.61c0.114,0.006,0.12,0.164,0.126,0.203h0.014V0.17
			H6.344v0.022c0.04,0,0.063,0.04,0.063,0.103v0.557c0,0.063-0.023,0.103-0.063,0.103v0.022h0.409l0.034-0.244H6.765
			C6.712,0.904,6.662,0.955,6.559,0.943L6.559,0.943z"/>
		<path fill="#FFFFFF" d="M6.798,0.17v0.238h0.017c0.007-0.027,0.007-0.084,0.04-0.146c0.04-0.068,0.085-0.051,0.104-0.051v0.642
			c0,0.063-0.023,0.102-0.06,0.102v0.023h0.23V0.955c-0.035,0-0.06-0.039-0.06-0.102V0.211c0.02,0,0.063-0.019,0.104,0.051
			c0.034,0.063,0.034,0.119,0.04,0.146h0.012V0.17H6.798L6.798,0.17z"/>
		<path fill="#FFFFFF" d="M2.481,0.721L2.333,0.17H2.134v0.022c0.052,0,0.069,0.017,0.069,0.103v0.557
			c0,0.063-0.021,0.103-0.063,0.103v0.022H2.3V0.955c-0.04,0-0.063-0.04-0.063-0.103V0.273L2.43,0.977H2.45l0.196-0.704v0.579
			c0,0.063-0.021,0.103-0.063,0.103v0.022h0.25V0.955c-0.041,0-0.063-0.04-0.063-0.103V0.295c0-0.063,0.022-0.103,0.063-0.103V0.17
			H2.641L2.481,0.721L2.481,0.721z"/>
		<path fill="#FFFFFF" d="M3.838,0.91L3.702,0.581c0.04-0.018,0.07-0.046,0.096-0.107C3.827,0.4,3.81,0.304,3.781,0.253
			c-0.04-0.063-0.108-0.08-0.165-0.08H3.394v0.021c0.034,0,0.06,0.04,0.06,0.102v0.558c0,0.063-0.023,0.102-0.06,0.102H3.4v0.023
			h0.225V0.955c-0.034,0-0.06-0.04-0.06-0.103v-0.25h0.021L3.73,0.977h0.145V0.955C3.861,0.955,3.855,0.959,3.838,0.91L3.838,0.91z
			 M3.691,0.473C3.668,0.581,3.6,0.563,3.566,0.563V0.262c0-0.034,0.021-0.051,0.029-0.051C3.652,0.2,3.675,0.24,3.686,0.285
			C3.697,0.313,3.702,0.415,3.691,0.473L3.691,0.473z"/>
		<path fill="#FFFFFF" d="M3.304,0.898L3.122,0.172H3.105L2.929,0.875c-0.017,0.069-0.034,0.08-0.051,0.08v0.022H3.02V0.955
			c-0.051,0-0.065-0.04-0.051-0.103l0.023-0.108h0.165L3.19,0.882c0.014,0.063-0.031,0.073-0.063,0.073v0.023H3.35V0.955l0,0
			C3.339,0.955,3.316,0.95,3.304,0.898L3.304,0.898z M3.003,0.7L3.07,0.405L3.145,0.7H3.003L3.003,0.7z"/>
		<path fill="#FFFFFF" d="M5.026,0.194c0.046,0,0.068,0.04,0.068,0.102v0.558c0,0.063-0.022,0.103-0.068,0.103v0.022H5.27V0.955
			c-0.046,0-0.063-0.04-0.063-0.103V0.295c0-0.063,0.017-0.103,0.063-0.103V0.17H5.026V0.194L5.026,0.194z"/>
		<path fill="#FFFFFF" d="M4.128,0.489C4.037,0.444,4.009,0.381,4.009,0.33c0-0.028,0.011-0.13,0.079-0.13
			c0.103,0,0.137,0.159,0.153,0.221h0.018V0.16H4.241C4.229,0.182,4.229,0.2,4.214,0.2c-0.04,0-0.075-0.04-0.154-0.04
			c-0.065,0-0.146,0.062-0.146,0.222c0,0.073,0.021,0.176,0.111,0.238c0.125,0.09,0.173,0.124,0.173,0.193
			c0,0.027-0.015,0.146-0.114,0.146c-0.074,0-0.125-0.119-0.13-0.164L3.934,0.709H3.918V1h0.017c0-0.022,0.005-0.04,0.015-0.04
			C3.987,0.959,4.054,1,4.1,1c0.17,0,0.199-0.153,0.199-0.232C4.298,0.654,4.247,0.551,4.128,0.489L4.128,0.489z"/>
	</g>
</g>
</svg>
