<?xml version="1.0" encoding="utf-8"?>
<!-- Generator: Adobe Illustrator 13.0.0, SVG Export Plug-In . SVG Version: 6.00 Build 14948)  -->
<!DOCTYPE svg PUBLIC "-//W3C//DTD SVG 1.1//EN" "http://www.w3.org/Graphics/SVG/1.1/DTD/svg11.dtd">
<svg version="1.1" id="Layer_1" xmlns="http://www.w3.org/2000/svg" xmlns:xlink="http://www.w3.org/1999/xlink" x="0px" y="0px"
	 width="3.648px" height="1px" viewBox="61.955 7.221 3.648 1" enable-background="new 61.955 7.221 3.648 1" xml:space="preserve">
<polygon fill="#FFFFFF" points="0.943,0.316 0.943,0.425 0.943,0.557 0.943,0.675 0.943,0.74 1.009,0.74 1.009,0.271 0.943,0.271 
	"/>
<polygon fill="#FFFFFF" points="0.784,0.316 0.784,0.425 0.784,0.557 0.784,0.675 0.784,0.74 0.852,0.74 0.852,0.271 0.784,0.271 
	"/>
<path fill="#FFFFFF" d="M0.198,0.273L0.176,0.271h-0.177v0.467h0.022h0.052h0.063h0.06h0.004h0.004h0.008l0.004-0.001l0.002-0.001
	h0.002l0.011-0.001l0.007-0.001l0.009-0.003l0.008-0.003L0.26,0.726l0.01-0.004L0.27,0.721L0.272,0.72l0.004-0.002l0.006-0.004
	l0.007-0.005l0.007-0.005l0.006-0.006l0.008-0.007l0.004-0.005l0.005-0.008L0.32,0.674L0.321,0.67l0.002-0.005l0.002-0.004
	l0.003-0.009l0.001-0.005L0.33,0.642l0.003-0.01V0.621l0.001-0.006V0.61L0.332,0.602L0.331,0.594V0.586L0.329,0.579L0.327,0.572
	L0.326,0.565L0.324,0.56L0.321,0.554L0.317,0.548L0.314,0.542l-0.007-0.01L0.301,0.527L0.297,0.523L0.289,0.517L0.281,0.51
	L0.274,0.505L0.266,0.5L0.258,0.498L0.245,0.491L0.247,0.49l0.002-0.001l0.006-0.002l0.004-0.003l0.007-0.001L0.268,0.48L0.27,0.479
	h0.002h0.001l0.004-0.003L0.28,0.474l0.004-0.003l0.004-0.002l0.006-0.006l0.005-0.006l0.006-0.006l0.005-0.006L0.31,0.439
	l0.004-0.006l0.002-0.006L0.32,0.416l0.002-0.011l0.002-0.021L0.321,0.375L0.32,0.364l-0.003-0.01L0.316,0.35L0.315,0.346
	L0.311,0.337L0.309,0.333L0.307,0.33L0.301,0.322L0.296,0.316L0.29,0.311L0.284,0.305L0.28,0.3L0.274,0.296L0.268,0.291L0.26,0.289
	L0.253,0.285L0.246,0.283L0.198,0.273L0.198,0.273L0.198,0.273z M0.069,0.466V0.33h0.1L0.19,0.331L0.2,0.332l0.006,0.002L0.21,0.336
	L0.22,0.34l0.011,0.007l0.004,0.004l0.002,0.002l0.002,0.003L0.242,0.36l0.004,0.006l0.002,0.006L0.25,0.38l0.001,0.008v0.007v0.004
	L0.25,0.4v0.002L0.249,0.41L0.248,0.412v0.002L0.247,0.418L0.246,0.421L0.245,0.423v0.002L0.244,0.426L0.243,0.428L0.242,0.43
	L0.24,0.436L0.237,0.44L0.235,0.442L0.233,0.444L0.227,0.448L0.222,0.451l-0.01,0.006l-0.01,0.004H0.201L0.2,0.462L0.199,0.463
	H0.196L0.175,0.466H0.069L0.069,0.466L0.069,0.466z M0.184,0.525l0.021,0.004l0.01,0.002l0.012,0.006l0.01,0.006L0.24,0.547
	l0.006,0.004L0.25,0.556l0.003,0.005l0.004,0.007L0.26,0.575L0.26,0.579L0.26,0.583l0.003,0.009L0.263,0.6l0.002,0.01L0.26,0.629
	L0.26,0.633L0.258,0.637L0.257,0.641L0.254,0.646L0.251,0.649L0.247,0.654L0.243,0.658L0.24,0.663L0.235,0.667L0.232,0.668
	L0.229,0.67L0.225,0.672H0.222l0,0l0,0L0.221,0.673L0.217,0.674L0.213,0.676L0.204,0.678L0.2,0.679L0.196,0.68H0.192H0.186
	L0.174,0.681H0.087h-0.02V0.525H0.184L0.184,0.525L0.184,0.525z"/>
<path fill="#FFFFFF" d="M2.496,0.273L2.474,0.271h-0.19V0.74h0.067V0.542H2.46L2.547,0.74h0.072l-0.09-0.211l0.006-0.003
	l0.006-0.003l0,0l0,0l0.002-0.001l0.002-0.001l0.006-0.003l0.005-0.003l0.004-0.003l0.01-0.006L2.57,0.504h0.002L2.574,0.5
	l0.004-0.004l0.004-0.002l0.004-0.008l0.006-0.007l0.005-0.008l0.006-0.007l0.002-0.008L2.607,0.45l0.002-0.008l0.002-0.006
	L2.613,0.43V0.424l0.004-0.026l-0.002-0.01V0.377L2.611,0.366V0.361L2.609,0.356L2.605,0.348L2.603,0.34L2.601,0.336L2.597,0.332
	L2.594,0.325L2.588,0.318L2.582,0.313L2.576,0.308L2.57,0.303L2.564,0.298L2.558,0.294L2.551,0.29L2.545,0.287L2.496,0.273
	L2.496,0.273L2.496,0.273z M2.353,0.481v-0.15h0.11l0.021,0.001l0.01,0.002l0.01,0.004l0.011,0.006l0.01,0.006l0.004,0.004
	l0.002,0.004l0.004,0.006l0.002,0.003V0.37l0.004,0.007l0.002,0.008v0.008l0.002,0.01L2.543,0.406V0.41v0.005V0.42L2.541,0.427
	L2.539,0.43v0.004L2.537,0.436v0.002L2.535,0.44L2.533,0.446L2.531,0.449L2.529,0.451L2.527,0.453l0,0L2.525,0.456l-0.01,0.008
	L2.51,0.467L2.506,0.471L2.494,0.475H2.492L2.49,0.477L2.484,0.478L2.455,0.482H2.42H2.375L2.353,0.481L2.353,0.481L2.353,0.481z"/>
<path fill="#FFFFFF" d="M0.65,0.415L0.641,0.408L0.635,0.404L0.632,0.401L0.621,0.396l-0.01-0.004L0.606,0.39L0.6,0.388L0.593,0.387
	L0.586,0.386L0.573,0.384L0.567,0.383H0.559L0.544,0.384L0.531,0.386L0.518,0.388L0.51,0.389L0.505,0.391L0.499,0.393L0.493,0.395
	L0.484,0.4l-0.01,0.005l-0.01,0.006L0.456,0.418L0.45,0.424L0.444,0.432L0.438,0.439L0.432,0.447L0.426,0.455L0.421,0.463
	l-0.004,0.01L0.414,0.48L0.411,0.488L0.408,0.496L0.406,0.505L0.405,0.512L0.403,0.52L0.402,0.526L0.401,0.533L0.398,0.561
	l0.001,0.02L0.4,0.59L0.401,0.6l0.004,0.02l0.007,0.021l0.004,0.01L0.42,0.662l0.005,0.01L0.429,0.68l0.007,0.01l0.008,0.009
	L0.45,0.707l0.009,0.009l0.008,0.007l0.005,0.002l0.006,0.003L0.482,0.73l0.005,0.002l0.006,0.002l0.006,0.003l0.006,0.002
	L0.509,0.74l0.016,0.004l0.014,0.001l0.014,0.001h0.013l0.005-0.002h0.003h0.002l0.01-0.001l0.01-0.001l0.012-0.003l0.008-0.003
	l0.008-0.002L0.624,0.73l0.008-0.004l0.007-0.004l0.003-0.001l0,0l0,0h0.001l0.003-0.002l0.006-0.004l0.006-0.004l0.005-0.005
	l0.003-0.003l0.002-0.002L0.67,0.697l0.009-0.01L0.684,0.68l0.005-0.009l0.004-0.007L0.7,0.648l-0.057-0.01L0.638,0.646H0.635
	L0.635,0.648L0.633,0.652L0.629,0.659L0.628,0.66L0.627,0.661H0.626v0.001L0.624,0.665L0.622,0.668L0.62,0.669V0.67l0,0l0,0
	L0.616,0.676L0.614,0.678H0.613L0.612,0.68L0.608,0.683L0.602,0.686L0.597,0.688L0.593,0.69L0.588,0.692L0.579,0.695H0.576
	L0.573,0.696L0.559,0.697L0.55,0.696L0.542,0.695L0.534,0.693L0.528,0.691L0.522,0.689L0.516,0.687L0.509,0.683L0.503,0.68
	L0.499,0.674L0.495,0.67L0.492,0.665L0.489,0.66L0.485,0.655L0.483,0.65L0.48,0.645L0.478,0.64L0.466,0.599V0.581h0.237v-0.03
	L0.702,0.542V0.535L0.701,0.526L0.7,0.518L0.698,0.51L0.697,0.501L0.694,0.492l-0.002-0.01l-0.004-0.01l-0.003-0.01L0.679,0.454
	L0.675,0.445L0.669,0.438L0.663,0.43L0.656,0.422L0.65,0.415L0.65,0.415L0.65,0.415z M0.606,0.446l0.009,0.008l0.007,0.009
	l0.006,0.009l0.004,0.01l0.002,0.005v0.002V0.49l0.001,0.005L0.635,0.5l0.002,0.004v0.002l0.001,0.002v0.004L0.64,0.516l0.001,0.017
	H0.466l0.002-0.017l0.014-0.034l0.004-0.01L0.49,0.463l0.008-0.009l0.008-0.008L0.51,0.442l0.007-0.003l0.005-0.001l0.006-0.002
	l0.006-0.002L0.54,0.432l0.007-0.001h0.009h0.008l0.009,0.001l0.007,0.002l0.007,0.002L0.59,0.438L0.596,0.44l0.006,0.002
	L0.606,0.446L0.606,0.446L0.606,0.446z"/>
<path fill="#FFFFFF" d="M2.84,0.384L2.816,0.383H2.808L2.801,0.384L2.787,0.386L2.773,0.389L2.767,0.391L2.76,0.393L2.75,0.396
	L2.74,0.401L2.734,0.404L2.73,0.407L2.72,0.414L2.705,0.428L2.699,0.435L2.693,0.442L2.687,0.45L2.683,0.458L2.677,0.467
	L2.674,0.475L2.672,0.483L2.668,0.492L2.666,0.499L2.664,0.507L2.662,0.515L2.66,0.521v0.008v0.006L2.658,0.563V0.58L2.66,0.596
	l0.002,0.015l0.004,0.014l0.002,0.014L2.672,0.65l0.007,0.012l0.006,0.011L2.69,0.682L2.695,0.69l0.006,0.008l0.006,0.007
	l0.006,0.007L2.72,0.718l0.008,0.005l0.008,0.004L2.742,0.73l0.006,0.004l0.008,0.002l0.007,0.002L2.767,0.74l0.004,0.001
	l0.002,0.001l0.006,0.001l0.006,0.001l0.023,0.002h0.004l0.004-0.001l0.008-0.001H2.83l0.008-0.001l0.006-0.002L2.851,0.74
	l0.006-0.002l0.006-0.002l0.006-0.002l0.006-0.002L2.881,0.73l0.002-0.002h0.002l0,0l0,0L2.89,0.725l0.006-0.003L2.9,0.719
	l0.006-0.004l0.002-0.003L2.91,0.71V0.709h0.002V0.708L2.92,0.701l0.009-0.008l0.006-0.008L2.94,0.677l0.002-0.003L2.945,0.67
	l0.004-0.009l0.002-0.004V0.656V0.654l0.002-0.002l0.006-0.017l0.002-0.009l0.002-0.008L2.965,0.61l0.002-0.007l0.002-0.007V0.591
	L2.97,0.564L2.969,0.547V0.53L2.967,0.522L2.965,0.516V0.508L2.963,0.501L2.961,0.494L2.959,0.488L2.955,0.477L2.951,0.465
	l-0.006-0.01L2.939,0.446L2.933,0.438L2.926,0.43L2.92,0.423L2.912,0.416L2.906,0.411L2.898,0.406L2.892,0.402L2.877,0.395
	L2.871,0.392L2.865,0.389L2.857,0.387L2.851,0.386L2.845,0.385L2.84,0.384L2.84,0.384L2.84,0.384z M2.867,0.451l0.004,0.004
	l0.006,0.006l0.004,0.005l0.002,0.005L2.89,0.483l0.002,0.006l0.002,0.006v0.003L2.896,0.5l0.002,0.006v0.006L2.9,0.516v0.002
	l0.002,0.005v0.006v0.006L2.904,0.54v0.053l-0.01,0.043L2.892,0.642L2.888,0.647L2.885,0.649v0.003L2.883,0.658L2.879,0.663
	L2.875,0.668L2.873,0.669V0.67L2.871,0.673L2.867,0.678L2.861,0.682l0,0L2.859,0.684L2.857,0.686L2.851,0.688L2.844,0.691
	L2.836,0.693L2.83,0.694L2.822,0.695H2.82H2.818L2.814,0.696l-0.01-0.001L2.797,0.694L2.789,0.692L2.783,0.69L2.777,0.688
	L2.771,0.684L2.765,0.68L2.76,0.676L2.756,0.67L2.752,0.666L2.748,0.66L2.744,0.655L2.742,0.648L2.738,0.644L2.736,0.637
	L2.734,0.631L2.73,0.619L2.728,0.613V0.607l-0.002-0.01v-0.01V0.546V0.54V0.535l0.002-0.012V0.518L2.73,0.512L2.734,0.5l0.002-0.008
	l0.002-0.006L2.742,0.48l0.002-0.006l0.004-0.006l0.004-0.006l0.004-0.006L2.76,0.452l0.007-0.006l0.006-0.004L2.777,0.44
	l0.006-0.003l0.008-0.003l0.008-0.001l0.009-0.002h0.01h0.008l0.008,0.002L2.84,0.434l0.009,0.003l0.004,0.002l0.006,0.003
	l0.006,0.004L2.867,0.451L2.867,0.451L2.867,0.451z"/>
<polygon fill="#FFFFFF" points="3.287,0.45 3.283,0.444 3.281,0.439 3.279,0.438 3.279,0.437 3.277,0.434 3.271,0.43 3.265,0.424 
	3.26,0.418 3.252,0.412 3.246,0.408 3.238,0.402 3.228,0.398 3.219,0.395 3.207,0.392 3.197,0.389 3.183,0.387 3.17,0.386 
	3.156,0.385 3.142,0.386 3.127,0.387 3.115,0.389 3.105,0.392 3.094,0.395 3.084,0.398 3.076,0.403 3.068,0.408 3.062,0.414 
	3.056,0.419 3.051,0.424 3.045,0.43 3.041,0.436 3.037,0.441 3.035,0.447 3.033,0.453 3.027,0.487 3.029,0.518 3.029,0.521 
	3.033,0.527 3.035,0.532 3.037,0.538 3.041,0.543 3.045,0.549 3.054,0.56 3.062,0.564 3.064,0.566 3.068,0.568 3.076,0.573 
	3.086,0.578 3.09,0.579 3.095,0.581 3.099,0.582 3.105,0.584 3.117,0.588 3.131,0.591 3.209,0.607 3.215,0.609 3.22,0.611 
	3.224,0.613 3.23,0.615 3.232,0.617 3.236,0.619 3.24,0.622 3.242,0.625 3.244,0.629 3.246,0.635 3.248,0.641 3.248,0.646 
	3.248,0.649 3.248,0.652 3.246,0.654 3.246,0.656 3.246,0.658 3.246,0.658 3.246,0.66 3.246,0.662 3.244,0.668 3.242,0.67 
	3.24,0.672 3.238,0.676 3.234,0.68 3.232,0.682 3.23,0.684 3.224,0.688 3.22,0.688 3.219,0.689 3.219,0.689 3.211,0.692 
	3.209,0.692 3.207,0.693 3.205,0.694 3.197,0.696 3.189,0.697 3.181,0.698 3.176,0.698 3.174,0.698 3.172,0.698 3.162,0.698 
	3.154,0.697 3.146,0.696 3.138,0.695 3.131,0.693 3.123,0.691 3.117,0.688 3.111,0.686 3.105,0.682 3.099,0.678 3.094,0.673 
	3.09,0.668 3.086,0.66 3.082,0.654 3.078,0.646 3.076,0.638 3.017,0.649 3.021,0.665 3.041,0.699 3.045,0.703 3.049,0.709 
	3.054,0.713 3.06,0.717 3.066,0.721 3.074,0.725 3.088,0.732 3.095,0.736 3.105,0.739 3.113,0.742 3.123,0.744 3.135,0.746 
	3.146,0.747 3.152,0.748 3.158,0.748 3.172,0.749 3.183,0.748 3.189,0.748 3.191,0.747 3.193,0.747 3.195,0.747 3.199,0.746 
	3.199,0.746 3.201,0.746 3.207,0.746 3.217,0.744 3.226,0.741 3.232,0.74 3.236,0.738 3.244,0.735 3.248,0.733 3.25,0.732 
	3.252,0.732 3.256,0.729 3.256,0.729 3.258,0.727 3.265,0.723 3.271,0.718 3.277,0.713 3.281,0.708 3.283,0.705 3.285,0.704 
	3.285,0.703 3.289,0.698 3.293,0.693 3.295,0.688 3.297,0.682 3.302,0.672 3.304,0.668 3.304,0.663 3.306,0.658 3.306,0.655 
	3.308,0.638 3.306,0.617 3.306,0.612 3.304,0.609 3.304,0.607 3.302,0.603 3.301,0.598 3.297,0.592 3.293,0.586 3.289,0.581 
	3.285,0.576 3.279,0.57 3.273,0.564 3.265,0.559 3.258,0.555 3.248,0.549 3.238,0.545 3.228,0.541 3.215,0.539 3.119,0.519 
	3.115,0.518 3.111,0.516 3.107,0.515 3.105,0.514 3.099,0.51 3.095,0.508 3.094,0.506 3.092,0.504 3.09,0.502 3.088,0.498 
	3.086,0.496 3.086,0.494 3.084,0.488 3.084,0.482 3.086,0.477 3.086,0.471 3.088,0.467 3.092,0.462 3.095,0.457 3.099,0.453 
	3.105,0.45 3.109,0.446 3.115,0.443 3.127,0.439 3.133,0.438 3.14,0.437 3.146,0.436 3.154,0.436 3.205,0.445 3.23,0.467 
	3.24,0.483 3.297,0.473 "/>
<polygon fill="#FFFFFF" points="3.627,0.45 3.623,0.444 3.619,0.439 3.617,0.438 3.617,0.437 3.615,0.434 3.611,0.43 3.605,0.424 
	3.599,0.418 3.592,0.412 3.584,0.408 3.576,0.402 3.568,0.398 3.558,0.395 3.547,0.392 3.535,0.389 3.523,0.387 3.51,0.386 
	3.494,0.385 3.48,0.386 3.467,0.387 3.455,0.389 3.443,0.392 3.433,0.395 3.424,0.398 3.416,0.403 3.408,0.408 3.402,0.414 
	3.396,0.419 3.39,0.424 3.385,0.43 3.381,0.436 3.377,0.441 3.375,0.447 3.373,0.453 3.367,0.487 3.369,0.518 3.369,0.521 
	3.371,0.527 3.373,0.532 3.377,0.538 3.381,0.543 3.385,0.549 3.394,0.56 3.4,0.564 3.404,0.566 3.408,0.568 3.416,0.573 
	3.424,0.578 3.429,0.579 3.435,0.581 3.439,0.582 3.445,0.584 3.457,0.588 3.469,0.591 3.547,0.607 3.552,0.609 3.56,0.611 
	3.564,0.613 3.57,0.615 3.572,0.617 3.576,0.619 3.578,0.622 3.58,0.625 3.584,0.629 3.586,0.635 3.586,0.641 3.588,0.646 
	3.586,0.649 3.586,0.652 3.586,0.654 3.586,0.656 3.586,0.658 3.586,0.658 3.586,0.66 3.584,0.662 3.582,0.668 3.58,0.67 
	3.58,0.672 3.576,0.676 3.574,0.68 3.572,0.682 3.57,0.684 3.564,0.688 3.56,0.688 3.558,0.689 3.558,0.689 3.551,0.692 
	3.549,0.692 3.547,0.693 3.545,0.694 3.537,0.696 3.529,0.697 3.521,0.698 3.515,0.698 3.513,0.698 3.51,0.698 3.502,0.698 
	3.494,0.697 3.486,0.696 3.478,0.695 3.47,0.693 3.463,0.691 3.457,0.688 3.451,0.686 3.445,0.682 3.439,0.678 3.433,0.673 
	3.429,0.668 3.426,0.66 3.422,0.654 3.418,0.646 3.416,0.638 3.357,0.649 3.361,0.665 3.381,0.699 3.385,0.703 3.39,0.709 
	3.394,0.713 3.4,0.717 3.406,0.721 3.412,0.725 3.427,0.732 3.435,0.736 3.443,0.739 3.453,0.742 3.463,0.744 3.474,0.746 
	3.486,0.747 3.492,0.748 3.498,0.748 3.51,0.749 3.523,0.748 3.529,0.748 3.531,0.747 3.533,0.747 3.535,0.747 3.537,0.746 
	3.539,0.746 3.541,0.746 3.547,0.746 3.556,0.744 3.566,0.741 3.572,0.74 3.576,0.738 3.584,0.735 3.586,0.733 3.588,0.732 
	3.592,0.732 3.594,0.729 3.595,0.729 3.599,0.727 3.605,0.723 3.611,0.718 3.617,0.713 3.621,0.708 3.623,0.705 3.623,0.704 
	3.625,0.703 3.629,0.698 3.631,0.693 3.635,0.688 3.635,0.682 3.642,0.672 3.644,0.668 3.644,0.663 3.646,0.658 3.646,0.655 
	3.648,0.638 3.646,0.617 3.646,0.612 3.644,0.609 3.644,0.607 3.642,0.603 3.64,0.598 3.635,0.592 3.633,0.586 3.629,0.581 
	3.625,0.576 3.619,0.57 3.613,0.564 3.605,0.559 3.597,0.555 3.588,0.549 3.578,0.545 3.568,0.541 3.554,0.539 3.457,0.519 
	3.453,0.518 3.451,0.516 3.447,0.515 3.445,0.514 3.439,0.51 3.435,0.508 3.433,0.506 3.431,0.504 3.429,0.502 3.427,0.498 
	3.426,0.496 3.426,0.494 3.424,0.488 3.424,0.482 3.424,0.477 3.426,0.471 3.427,0.467 3.431,0.462 3.435,0.457 3.439,0.453 
	3.443,0.45 3.449,0.446 3.453,0.443 3.465,0.439 3.472,0.438 3.478,0.437 3.486,0.436 3.492,0.436 3.545,0.445 3.57,0.467 
	3.58,0.483 3.635,0.473 "/>
<path fill="#FFFFFF" d="M1.774,0.266L1.768,0.254L1.76,0.242l-0.008-0.01l-0.01-0.01L1.739,0.217L1.733,0.212L1.726,0.207
	L1.718,0.203L1.711,0.199L1.704,0.195L1.698,0.191L1.69,0.189L1.682,0.187l-0.01-0.003L1.664,0.182L1.656,0.181L1.647,0.18
	l-0.01-0.001l-0.01-0.001h-0.01L1.606,0.179L1.591,0.18L1.579,0.182l-0.01,0.002l-0.01,0.003L1.548,0.19l-0.01,0.004L1.531,0.198
	L1.516,0.207L1.508,0.211L1.502,0.216l-0.01,0.009L1.489,0.229L1.485,0.234L1.47,0.254L1.466,0.262L1.462,0.27L1.46,0.277
	L1.458,0.285L1.456,0.301v0.007v0.008V0.33l0.002,0.006l0.001,0.008l0.004,0.013L1.468,0.37l0.021,0.037l0.01,0.013L1.481,0.431
	L1.47,0.435L1.458,0.439L1.452,0.441L1.448,0.445L1.442,0.448L1.435,0.451L1.421,0.459l-0.012,0.01L1.399,0.48L1.394,0.486
	L1.388,0.494L1.383,0.502L1.379,0.51L1.375,0.518l-0.003,0.01L1.37,0.538l-0.002,0.01L1.367,0.559V0.57l0.001,0.014l0.001,0.015
	l0.002,0.007v0.006l0.004,0.013l0.004,0.013L1.384,0.65l0.009,0.01l0.007,0.011l0.008,0.01l0.008,0.01l0.007,0.008l0.012,0.008
	l0.01,0.007l0.01,0.007l0.011,0.006l0.014,0.006l0.012,0.005l0.012,0.004L1.51,0.745l0.015,0.004l0.01,0.001l0.013,0.002h0.015
	l0.013,0.001l0.012-0.001h0.013l0.01-0.002H1.61h0.001h0.001l0.006-0.001l0.006-0.001l0.002-0.001l0.002-0.001h0.001L1.64,0.744
	l0.01-0.003l0.01-0.003l0.01-0.004L1.68,0.73l0.009-0.004l0.009-0.002l0.005-0.003l0.003-0.002L1.71,0.717l0.007-0.004L1.722,0.71
	l0.024-0.016l0.008,0.007h0.002l0.001,0.001l0.001,0.001l0.007,0.004l0.003,0.002L1.77,0.711h0.002l0.001,0.001l0.004,0.002
	l0.004,0.003l0.003,0.002l0.004,0.002l0.008,0.004l0.006,0.003l0.004,0.001L1.807,0.73h0.002l0.049,0.008l0.045-0.004l0.021-0.006
	L1.921,0.643L1.867,0.641L1.859,0.637L1.855,0.635L1.852,0.633L1.847,0.631L1.844,0.629L1.839,0.625l-0.008-0.01l0.008-0.01
	l0.002-0.001l0.002-0.002l0.005-0.005l0.008-0.01l0.007-0.009l0.006-0.01L1.872,0.56l0.006-0.009l0.004-0.01l0.03-0.064l0.009-0.03
	L1.809,0.448L1.807,0.455L1.804,0.462L1.802,0.469L1.8,0.475L1.798,0.48L1.796,0.483L1.795,0.486L1.79,0.498L1.772,0.53L1.76,0.542
	L1.676,0.454l0.009-0.003L1.69,0.448l0.012-0.007L1.703,0.44l0.001-0.001l0.002-0.001l0.006-0.003l0.013-0.007L1.733,0.42
	l0.01-0.008L1.75,0.404l0.008-0.009l0,0l0.001-0.002H1.76l0.006-0.005l0.001-0.003l0.001-0.001V0.383l0.004-0.004l0.001-0.006V0.371
	l0.002-0.002l0.002-0.006l0.001-0.002l0.001-0.002L1.78,0.353l0.001-0.005l0.003-0.011V0.332V0.326l0.002-0.011L1.784,0.309
	L1.783,0.303L1.781,0.289L1.779,0.277L1.774,0.266L1.774,0.266L1.774,0.266z M1.682,0.32L1.68,0.322L1.679,0.326v0.006L1.677,0.338
	L1.675,0.34v0.002H1.674v0.001L1.671,0.348L1.669,0.35L1.667,0.353L1.665,0.354L1.663,0.356L1.659,0.36L1.658,0.361L1.656,0.362
	L1.655,0.364L1.65,0.367L1.638,0.374L1.628,0.38L1.622,0.383L1.617,0.385L1.616,0.386L1.6,0.369L1.575,0.334L1.572,0.322
	l-0.001-0.01v-0.01V0.297l0.002-0.005l0.006-0.007l0.017-0.014l0.026-0.006h0.005h0.005l0.006,0.001l0.007,0.001L1.648,0.27
	l0.005,0.002l0.005,0.003l0.004,0.002l0.004,0.004L1.67,0.285l0.003,0.004l0.003,0.006l0.003,0.006L1.68,0.307v0.006L1.682,0.32
	L1.682,0.32L1.682,0.32z M1.502,0.586L1.5,0.581L1.499,0.576V0.57V0.565V0.56l0.002-0.005l0.002-0.006l0.002-0.005L1.51,0.535
	l0.007-0.007l0.006-0.007L1.53,0.515L1.536,0.51l0.008-0.005L1.554,0.5l0.012-0.004l0.106,0.119L1.661,0.624L1.632,0.638
	L1.589,0.645h-0.01L1.57,0.643L1.562,0.641L1.553,0.639L1.548,0.637L1.545,0.636L1.538,0.633L1.533,0.628L1.531,0.626L1.529,0.624
	L1.52,0.613L1.51,0.604l-0.006-0.01L1.502,0.586L1.502,0.586L1.502,0.586z"/>
<path fill="#FFFFFF" d="M1.645,0c-0.277,0-0.5,0.225-0.5,0.5S1.37,1,1.645,1c0.273,0,0.5-0.225,0.5-0.5S1.919,0,1.645,0z
	 M1.645,0.924C1.41,0.924,1.22,0.733,1.22,0.5S1.41,0.076,1.645,0.076c0.231,0,0.424,0.19,0.424,0.424S1.879,0.924,1.645,0.924z"/>
</svg>
