<?xml version="1.0" encoding="utf-8"?>
<!-- Generator: Adobe Illustrator 13.0.0, SVG Export Plug-In . SVG Version: 6.00 Build 14948)  -->
<!DOCTYPE svg PUBLIC "-//W3C//DTD SVG 1.1//EN" "http://www.w3.org/Graphics/SVG/1.1/DTD/svg11.dtd">
<svg version="1.1" id="Layer_1" xmlns="http://www.w3.org/2000/svg" xmlns:xlink="http://www.w3.org/1999/xlink" x="0px" y="0px"
	 width="3.84px" height="1px" viewBox="61.86 3.591 3.84 1" enable-background="new 61.86 3.591 3.84 1" xml:space="preserve">
<g>
	<path fill="#FFFFFF" d="M2.183,0.675v0.047c-0.06,0.043-0.104,0.043-0.17,0.043c-0.066,0-0.135-0.037-0.162-0.082
		C1.822,0.639,1.806,0.552,1.884,0.489c0.084-0.064,0.174-0.053,0.201-0.047c0.028,0.012,0.062,0.02,0.075,0.013
		c0,0,0.013-0.007,0.013-0.019l0.01,0.002v0.107H2.164C2.117,0.43,1.934,0.449,1.934,0.61C1.934,0.778,2.111,0.747,2.183,0.675"/>
	<path fill="#FFFFFF" d="M3.041,0.446h0.207v0.013c-0.063,0-0.057,0.028-0.057,0.043c0,0.017,0,0.205,0,0.205
		c0,0.028,0.016,0.038,0.059,0.038v0.018H3.041V0.747c0.039,0,0.061-0.004,0.061-0.043s0-0.204,0-0.204
		c0-0.042-0.05-0.038-0.059-0.038L3.041,0.446"/>
	<path fill="#FFFFFF" d="M0.736,0.446H0.51v0.017c0.066,0,0.061,0.034,0.061,0.034L0.573,0.7c0,0.03,0,0.047-0.063,0.047v0.014
		h0.336l0.023-0.112L0.843,0.643C0.832,0.7,0.783,0.732,0.761,0.732c-0.023,0-0.061,0-0.061,0c-0.016,0-0.03-0.007-0.03-0.03
		c0,0,0-0.193,0-0.204s0-0.032,0.063-0.032L0.736,0.446"/>
	<path fill="#FFFFFF" d="M1.032,0.641h0.084L1.071,0.563L1.032,0.641 M1.265,0.707c0.012,0.017,0.018,0.036,0.049,0.036v0.02H1.117
		V0.747c0.04,0,0.062-0.004,0.042-0.04l-0.023-0.04H1.02c0,0-0.004,0.009-0.019,0.041C0.987,0.743,0.994,0.747,1.038,0.747v0.016
		H0.909V0.747c0,0,0.023,0.003,0.036-0.021l0.133-0.278h0.028C1.105,0.446,1.253,0.69,1.265,0.707z"/>
	<path fill="#FFFFFF" d="M2.738,0.641h0.084L2.775,0.563L2.738,0.641 M2.971,0.707C2.982,0.724,2.989,0.743,3.02,0.743v0.02H2.822
		V0.747c0.039,0,0.063-0.004,0.041-0.04L2.84,0.667H2.727c0,0-0.002,0.009-0.02,0.041C2.691,0.743,2.699,0.747,2.742,0.747v0.016
		H2.613V0.747c0,0,0.025,0.003,0.037-0.021l0.131-0.278h0.027C2.811,0.446,2.959,0.69,2.971,0.707z"/>
	<path fill="#FFFFFF" d="M1.675,0.489c0-0.023-0.031-0.026-0.05-0.026V0.45h0.136c0,0.005,0,0.011-0.018,0.011
		c-0.016,0-0.03,0.009-0.03,0.028V0.76H1.694L1.431,0.532v0.167c0,0.04,0.018,0.045,0.055,0.045v0.015H1.338V0.745
		c0.049,0,0.051-0.011,0.051-0.045V0.487C1.364,0.467,1.342,0.463,1.342,0.463V0.45h0.137L1.67,0.62L1.675,0.489"/>
	<path fill="#FFFFFF" d="M2.418,0.477v0.109c0.102,0,0.105-0.017,0.105-0.062C2.523,0.473,2.498,0.477,2.418,0.477 M2.509,0.446
		c0,0,0.118-0.006,0.118,0.075c0,0.094-0.086,0.101-0.208,0.101v0.084c0,0-0.015,0.038,0.056,0.038v0.017H2.268V0.745
		c0.037,0,0.055-0.009,0.055-0.038c0,0,0-0.2,0-0.208c0-0.01,0-0.033-0.055-0.033v-0.02H2.509L2.509,0.446z"/>
	<path fill="#FFFFFF" d="M3.781,0.768H3.764L3.406,0.45V0.7c0,0.025,0.027,0.038,0.063,0.038l0.002,0.023H3.305L3.301,0.739
		c0.061,0,0.061-0.026,0.061-0.04c0-0.015,0-0.271,0-0.271c0-0.049-0.063-0.045-0.063-0.045V0.36h0.166L3.734,0.6V0.417
		c0-0.034-0.068-0.032-0.068-0.032L3.668,0.36H3.84v0.023c-0.049,0-0.061,0.018-0.061,0.036v0.349"/>
	<path fill="#FFFFFF" d="M0.201,0.583v0.141c0.101,0.017,0.144-0.021,0.144-0.068C0.345,0.617,0.325,0.566,0.201,0.583 M0.201,0.409
		V0.54c0.079,0,0.12-0.023,0.12-0.072C0.321,0.429,0.28,0.386,0.201,0.409z M0.284,0.368c0.129,0,0.152,0.068,0.152,0.092
		S0.447,0.522,0.35,0.556c0.1,0.022,0.108,0.069,0.108,0.104c0,0.035-0.016,0.104-0.125,0.104H0V0.746
		c0.039,0,0.064-0.013,0.064-0.038c0,0,0-0.237,0-0.276c0-0.041-0.01-0.043-0.064-0.043v-0.02L0.284,0.368L0.284,0.368z"/>
	<polyline fill="#FFFFFF" points="1.886,0 1.811,0 1.811,0.014 1.838,0.014 1.838,0.186 1.813,0.186 1.806,0.201 1.886,0.201 
		1.886,0 	"/>
	<polyline fill="#FFFFFF" points="1.683,0.227 1.736,0.227 1.745,0.24 1.745,0.304 1.708,0.304 1.708,0.248 1.688,0.248 
		1.683,0.227 	"/>
	<polyline fill="#FFFFFF" points="1.768,0.225 1.768,0.248 1.847,0.248 1.797,0.304 1.843,0.304 1.896,0.248 1.896,0.225 
		1.768,0.225 	"/>
	<path fill="#FFFFFF" d="M1.922,0.25c0-0.029,0.014-0.029,0.035-0.029c0.02,0,0.084,0,0.084,0c0.034,0,0.025,0.039,0.014,0.039
		C2.066,0.27,2.07,0.309,2.038,0.309c-0.034,0-0.083,0-0.083,0c-0.021,0.002-0.036-0.01-0.036-0.031h0.034
		c0,0.008,0.005,0.01,0.019,0.01c0.015,0,0.053,0.005,0.053-0.015H1.987V0.259h0.037c0-0.017-0.002-0.019-0.055-0.019
		c-0.011,0-0.017,0.004-0.017,0.009H1.92"/>
	<path fill="#FFFFFF" d="M2.125,0.257V0.24h0.097V0.223H2.088v0.045h0.094c0.014,0,0.014,0.023,0,0.023c-0.01,0-0.1,0-0.1,0
		S2.064,0.313,2.14,0.311c0.071-0.002,0.09-0.007,0.09-0.034c0-0.019-0.01-0.021-0.03-0.021L2.125,0.257"/>
	<path fill="#FFFFFF" d="M1.98,0.108v0.074c0.043,0,0.068,0,0.068-0.037C2.05,0.107,1.999,0.108,1.98,0.108 M1.98,0.018v0.065
		c0.045,0,0.059-0.015,0.059-0.03C2.04,0.037,2.029,0.013,1.98,0.018z M2.029,0c0.101,0.003,0.094,0.093,0.03,0.099
		c0.025,0,0.054,0.02,0.054,0.048c0,0.062-0.056,0.055-0.195,0.055V0H2.029L2.029,0z"/>
	<path fill="#FFFFFF" d="M0.07,0.998L0.025,0.902v0.075c0,0.007,0.003,0.011,0.003,0.013C0.032,0.994,0.034,0.994,0.04,0.994h0.004
		v0.004h-0.04V0.994h0.004c0.004,0,0.008-0.002,0.008-0.004c0.002-0.002,0.002-0.005,0.002-0.013V0.904c0-0.006,0-0.011-0.002-0.013
		c0,0,0-0.002-0.002-0.002c-0.002-0.001-0.006-0.001-0.01-0.001V0.886h0.032l0.041,0.088l0.04-0.088h0.031v0.002H0.146
		c-0.004,0-0.008,0.002-0.01,0.004c-0.002,0-0.002,0.005-0.002,0.013v0.073c0,0.007,0,0.011,0.002,0.013
		c0.002,0.004,0.006,0.004,0.01,0.004h0.002v0.004H0.102V0.994h0.004c0.007,0,0.008,0,0.01-0.004
		c0.002-0.002,0.002-0.005,0.002-0.011V0.902L0.075,0.998H0.07"/>
	<path fill="#FFFFFF" d="M0.246,0.953L0.227,0.908L0.206,0.953H0.246 M0.248,0.96H0.205L0.197,0.978
		c-0.001,0.004-0.003,0.008-0.003,0.01c0,0.001,0.002,0.003,0.003,0.005c0,0.002,0.004,0.002,0.009,0.002v0.004H0.17V0.994
		c0.006,0,0.008-0.002,0.01-0.004s0.004-0.007,0.008-0.015l0.041-0.094h0.002l0.041,0.094C0.276,0.982,0.276,0.988,0.28,0.99
		c0.004,0.002,0.008,0.004,0.012,0.004v0.004H0.247V0.994c0.006,0,0.008,0,0.009-0.002C0.258,0.99,0.26,0.99,0.26,0.987
		c0-0.002-0.002-0.006-0.004-0.012L0.248,0.96z"/>
	<path fill="#FFFFFF" d="M0.308,0.886H0.34L0.408,0.97V0.905c0-0.008,0-0.013-0.002-0.013c-0.002-0.003-0.008-0.004-0.01-0.004
		H0.393V0.886h0.039v0.002H0.428c-0.006,0-0.009,0.002-0.011,0.004c0,0-0.002,0.005-0.002,0.013V1H0.413L0.337,0.909v0.069
		c0,0.008,0,0.012,0.002,0.014c0.002,0.004,0.006,0.004,0.008,0.004h0.006v0.003h-0.04V0.994h0.006c0.004,0,0.007-0.002,0.009-0.004
		S0.33,0.985,0.33,0.977V0.899C0.326,0.895,0.325,0.893,0.323,0.893C0.321,0.891,0.319,0.889,0.314,0.889
		C0.314,0.887,0.313,0.887,0.308,0.886L0.308,0.886"/>
	<path fill="#FFFFFF" d="M0.533,0.888V0.886h0.04v0.002H0.569c-0.004,0-0.008,0.002-0.012,0.004c0,0.002,0,0.007,0,0.013v0.047
		c0,0.011-0.002,0.021-0.004,0.026C0.551,0.983,0.546,0.989,0.538,0.995C0.532,0.999,0.522,1,0.512,1C0.5,1,0.491,0.999,0.484,0.995
		C0.479,0.991,0.473,0.984,0.471,0.976C0.47,0.972,0.47,0.961,0.47,0.949V0.904c0-0.008,0-0.013-0.002-0.013
		C0.465,0.889,0.46,0.887,0.458,0.887H0.454V0.883h0.049v0.004H0.499c-0.005,0-0.009,0.002-0.011,0.004c0,0-0.002,0.005-0.002,0.013
		v0.049c0,0.003,0,0.009,0.002,0.015c0,0.006,0.002,0.012,0.004,0.014C0.494,0.986,0.497,0.988,0.5,0.991
		c0.004,0,0.01,0.002,0.016,0.002c0.006,0,0.014-0.002,0.022-0.005c0.005-0.002,0.009-0.006,0.011-0.012
		C0.551,0.97,0.553,0.962,0.553,0.951V0.905c0-0.008-0.002-0.013-0.004-0.013c-0.003-0.003-0.005-0.004-0.01-0.004H0.533"/>
	<path fill="#FFFFFF" d="M0.626,0.891v0.043h0.021c0.004,0,0.008,0,0.01-0.002C0.659,0.93,0.661,0.924,0.663,0.917h0.002v0.038
		H0.663c0-0.003-0.002-0.007-0.002-0.007C0.658,0.946,0.657,0.946,0.655,0.944C0.653,0.942,0.65,0.942,0.646,0.942H0.625v0.035
		c0,0.006,0,0.01,0,0.012C0.627,0.991,0.627,0.993,0.63,0.993c0.004,0.002,0.004,0.002,0.006,0.002h0.006v0.004H0.595V0.994h0.004
		c0.004,0,0.008,0,0.01-0.004c0.002-0.002,0.002-0.005,0.002-0.013V0.904c0-0.006,0-0.011,0-0.013c-0.002,0-0.002,0-0.004-0.002
		c-0.002,0-0.006-0.002-0.008-0.002H0.595V0.885h0.084l0.002,0.024H0.679C0.677,0.904,0.675,0.9,0.672,0.898
		C0.67,0.893,0.668,0.891,0.665,0.891c-0.002,0-0.007,0-0.014,0H0.626"/>
	<path fill="#FFFFFF" d="M0.779,0.953L0.761,0.908l-0.02,0.045H0.779 M0.783,0.96H0.738L0.729,0.977c0,0.004,0,0.008,0,0.01
		c0,0.001,0,0.003,0,0.005C0.73,0.994,0.736,0.994,0.742,0.994v0.004H0.706V0.994c0.003,0,0.007-0.002,0.01-0.004
		C0.718,0.988,0.72,0.983,0.724,0.975l0.041-0.093h0.002l0.039,0.094c0.004,0.007,0.008,0.013,0.01,0.015
		c0,0.002,0.005,0.004,0.011,0.004v0.004H0.781V0.994c0.004,0,0.008,0,0.01-0.002C0.792,0.99,0.792,0.99,0.792,0.987
		c0-0.002-0.001-0.006-0.003-0.012L0.783,0.96z"/>
	<path fill="#FFFFFF" d="M0.948,0.882L0.95,0.92H0.948C0.945,0.908,0.938,0.9,0.933,0.895C0.925,0.891,0.917,0.888,0.91,0.888
		c-0.007,0-0.015,0.002-0.021,0.006C0.883,0.898,0.877,0.905,0.874,0.912C0.871,0.918,0.869,0.93,0.869,0.942
		c0,0.012,0.002,0.021,0.005,0.027C0.877,0.977,0.881,0.983,0.89,0.987C0.895,0.99,0.9,0.992,0.911,0.992
		c0.008,0,0.014-0.002,0.02-0.004c0.003-0.003,0.01-0.009,0.018-0.019l0.004,0.002C0.947,0.98,0.939,0.988,0.933,0.993
		C0.925,0.997,0.915,0.999,0.906,0.999c-0.019,0-0.034-0.006-0.045-0.021C0.852,0.97,0.849,0.956,0.849,0.942S0.853,0.92,0.857,0.91
		c0.006-0.009,0.014-0.017,0.021-0.022c0.01-0.004,0.02-0.006,0.03-0.006c0.007,0,0.017,0,0.024,0.006h0.002
		c0.002,0,0.004,0,0.004,0C0.94,0.886,0.942,0.884,0.942,0.882H0.948"/>
	<path fill="#FFFFFF" d="M1.076,0.886v0.025H1.072c0-0.005,0-0.007-0.002-0.011C1.066,0.896,1.064,0.893,1.063,0.891
		c-0.002,0-0.006,0-0.01,0H1.036v0.088c0,0.006,0.002,0.009,0.002,0.011c0.001,0.004,0.005,0.004,0.01,0.004h0.006v0.004h-0.05
		V0.994h0.003c0.006,0,0.008,0,0.012-0.004c0-0.002,0-0.005,0-0.011V0.891H1.004c-0.005,0-0.009,0-0.011,0S0.989,0.896,0.987,0.898
		C0.984,0.902,0.984,0.906,0.982,0.911H0.98V0.886H1.076"/>
	<path fill="#FFFFFF" d="M1.179,0.888V0.886H1.22v0.002H1.215c-0.005,0-0.009,0.002-0.01,0.004C1.204,0.893,1.204,0.898,1.204,0.904
		v0.047c0,0.011-0.002,0.021-0.004,0.026S1.191,0.988,1.186,0.994C1.181,0.998,1.172,1,1.161,1C1.146,1,1.14,0.998,1.134,0.994
		C1.125,0.99,1.122,0.983,1.118,0.975C1.116,0.972,1.116,0.961,1.116,0.949V0.904c0-0.008-0.002-0.013-0.003-0.013
		C1.111,0.889,1.107,0.888,1.102,0.888H1.101V0.884H1.15v0.004H1.145c-0.006,0-0.008,0.002-0.01,0.004
		c-0.002,0-0.002,0.005-0.002,0.013v0.049c0,0.003,0,0.009,0,0.015c0.003,0.004,0.003,0.01,0.005,0.012
		c0.004,0.004,0.006,0.006,0.01,0.009c0.004,0,0.009,0.002,0.015,0.002c0.008,0,0.015-0.002,0.021-0.005
		c0.006-0.002,0.01-0.006,0.012-0.012C1.2,0.969,1.2,0.961,1.2,0.95V0.904c0-0.008,0-0.013-0.002-0.013
		C1.194,0.889,1.189,0.888,1.186,0.888H1.179"/>
	<path fill="#FFFFFF" d="M1.271,0.94c0.002,0,0.002,0,0.004,0c0,0,0,0,0.002,0c0.012,0,0.02-0.001,0.023-0.008
		C1.307,0.93,1.309,0.924,1.309,0.915c0-0.007-0.002-0.013-0.006-0.019C1.3,0.893,1.292,0.891,1.285,0.891
		c-0.004,0-0.009,0-0.013,0.002L1.271,0.94 M1.352,0.998H1.323L1.285,0.945c-0.004,0-0.006,0-0.008,0H1.275
		c-0.002,0-0.002,0-0.004,0v0.032c0,0.007,0.002,0.011,0.002,0.013c0.002,0.004,0.005,0.004,0.011,0.004h0.004v0.004H1.241V0.994
		h0.003c0.006,0,0.008,0,0.011-0.004c0-0.002,0.002-0.005,0.002-0.013V0.904c0-0.008-0.002-0.013-0.003-0.013
		c-0.002-0.002-0.006-0.003-0.01-0.003H1.241V0.886h0.041c0.011,0,0.021,0,0.025,0.002c0.006,0.001,0.012,0.003,0.016,0.008
		C1.326,0.9,1.328,0.907,1.328,0.913c0,0.007-0.002,0.014-0.005,0.018c-0.006,0.005-0.014,0.01-0.021,0.01l0.023,0.034
		C1.33,0.982,1.333,0.986,1.337,0.99c0.003,0.002,0.01,0.004,0.016,0.004L1.352,0.998L1.352,0.998z"/>
	<path fill="#FFFFFF" d="M1.406,0.891v0.043H1.43c0.004,0,0.008,0,0.012-0.002C1.444,0.93,1.446,0.925,1.446,0.918H1.45v0.04H1.446
		c0-0.005-0.002-0.009-0.002-0.011C1.441,0.946,1.441,0.944,1.438,0.944C1.436,0.942,1.434,0.942,1.431,0.942H1.406v0.037
		c0,0.004,0,0.008,0,0.008c0,0.001,0,0.003,0.002,0.003s0.003,0,0.005,0h0.021c0.004,0,0.011,0,0.013,0
		c0.004-0.002,0.006-0.003,0.01-0.005c0.001-0.004,0.005-0.01,0.009-0.016H1.47L1.46,0.997H1.372V0.994h0.003
		c0.004,0,0.007,0,0.009-0.002c0.002,0,0.002-0.002,0.004-0.004c0-0.001,0-0.005,0-0.011V0.904c0-0.008,0-0.013-0.002-0.013
		c0-0.002-0.004-0.004-0.009-0.004H1.372V0.885H1.46l0.002,0.021H1.458c-0.001-0.002-0.001-0.008-0.003-0.01
		C1.453,0.893,1.451,0.891,1.447,0.891c-0.002,0-0.005,0-0.011,0H1.406"/>
	<path fill="#FFFFFF" d="M1.585,0.99c0.007,0,0.013,0.002,0.017,0.002c0.014,0,0.024-0.005,0.033-0.015
		c0.008-0.01,0.012-0.021,0.012-0.036S1.642,0.913,1.635,0.904c-0.009-0.011-0.02-0.013-0.033-0.013c-0.004,0-0.01,0-0.017,0V0.99
		 M1.554,0.998V0.994h0.004c0.004,0,0.008-0.002,0.01-0.004S1.57,0.983,1.57,0.977V0.904c0-0.008,0-0.013-0.002-0.013
		c-0.003-0.002-0.007-0.003-0.01-0.003H1.554V0.886h0.045c0.018,0,0.03,0,0.039,0.004c0.01,0.002,0.016,0.011,0.021,0.021
		C1.665,0.918,1.667,0.929,1.667,0.94c0,0.017-0.004,0.027-0.013,0.04c-0.011,0.013-0.028,0.019-0.05,0.019L1.554,0.998L1.554,0.998
		z"/>
	<path fill="#FFFFFF" d="M1.727,0.891v0.043H1.75c0.008,0,0.012,0,0.014-0.002s0.004-0.007,0.004-0.013H1.77v0.04H1.768
		C1.767,0.954,1.767,0.95,1.767,0.948S1.765,0.944,1.763,0.944C1.761,0.942,1.756,0.942,1.75,0.942H1.727v0.037
		c0,0.004,0,0.008,0,0.008C1.729,0.988,1.729,0.99,1.729,0.99s0.002,0,0.007,0h0.019c0.008,0,0.012,0,0.016,0
		c0.002-0.002,0.006-0.003,0.008-0.005c0.003-0.004,0.007-0.01,0.011-0.016h0.003L1.781,0.998H1.695V0.994h0.003
		c0.004,0,0.006,0,0.008-0.002c0.001,0,0.003-0.002,0.003-0.004C1.71,0.987,1.71,0.983,1.71,0.977V0.904
		c0-0.008-0.002-0.013-0.002-0.013c-0.002-0.002-0.004-0.003-0.01-0.003H1.695V0.886h0.088v0.021H1.781
		C1.779,0.904,1.778,0.898,1.778,0.896C1.775,0.893,1.773,0.891,1.77,0.891c-0.002,0-0.006,0-0.012,0H1.727"/>
	<path fill="#FFFFFF" d="M1.907,0.938h0.052V0.904c0-0.006,0-0.011,0-0.013c-0.001,0-0.001,0-0.003-0.002
		c-0.002,0-0.006-0.002-0.008-0.002H1.945V0.885h0.048v0.002H1.988c-0.002,0-0.005,0.002-0.007,0.002
		C1.979,0.891,1.979,0.891,1.977,0.891c0,0.002,0,0.007,0,0.013v0.073c0,0.005,0,0.009,0,0.011C1.979,0.99,1.979,0.99,1.98,0.992
		s0.005,0.002,0.007,0.002h0.005v0.004H1.945V0.994h0.003c0.004,0,0.008,0,0.01-0.004c0.001-0.002,0.001-0.005,0.001-0.013V0.943
		H1.907v0.034c0,0.005,0.002,0.009,0.002,0.011c0,0.002,0.001,0.002,0.003,0.004S1.916,0.994,1.92,0.994h0.003v0.004H1.874V0.994
		h0.004c0.006,0,0.01,0,0.012-0.004c0-0.002,0.002-0.005,0.002-0.013V0.904c0-0.006,0-0.011-0.002-0.013c0,0-0.002,0-0.004-0.002
		c-0.002,0-0.004-0.002-0.008-0.002H1.874V0.885h0.049v0.002H1.919c-0.004,0-0.006,0.002-0.008,0.002
		C1.91,0.891,1.909,0.891,1.909,0.891c0,0.002-0.002,0.007-0.002,0.013V0.938"/>
	<path fill="#FFFFFF" d="M2.088,0.953L2.07,0.908L2.05,0.953H2.088 M2.09,0.96H2.047L2.039,0.977
		c-0.001,0.004-0.003,0.008-0.003,0.01c0,0.001,0.002,0.003,0.003,0.005c0,0.002,0.004,0.002,0.011,0.002v0.004H2.013V0.994
		c0.006,0,0.008-0.002,0.01-0.004c0.004-0.002,0.006-0.007,0.009-0.015l0.04-0.094h0.003l0.039,0.094
		C2.118,0.982,2.12,0.988,2.122,0.99c0.003,0.002,0.007,0.004,0.012,0.004v0.004H2.09V0.994c0.004,0,0.008,0,0.008-0.002
		C2.101,0.99,2.101,0.99,2.101,0.987c0-0.002,0-0.006-0.002-0.012L2.09,0.96z"/>
	<path fill="#FFFFFF" d="M2.234,0.888V0.886h0.039v0.002H2.27c-0.002,0-0.006,0.002-0.008,0.004C2.26,0.894,2.261,0.898,2.261,0.904
		v0.047c0,0.011-0.002,0.021-0.004,0.026C2.254,0.982,2.249,0.988,2.243,0.994C2.234,0.998,2.227,1,2.218,1
		C2.204,1,2.196,0.998,2.187,0.994C2.183,0.99,2.179,0.983,2.175,0.975C2.172,0.972,2.172,0.961,2.172,0.949V0.904
		c0-0.008-0.002-0.013-0.004-0.013C2.167,0.889,2.165,0.888,2.16,0.888H2.156V0.884h0.049v0.004H2.201
		c-0.005,0-0.009,0.002-0.011,0.004c0,0-0.002,0.005-0.002,0.013v0.049c0,0.003,0,0.009,0.002,0.015
		c0.002,0.006,0.002,0.01,0.004,0.012C2.196,0.985,2.199,0.987,2.203,0.99c0.004,0,0.009,0.002,0.015,0.002
		c0.008,0,0.016-0.002,0.021-0.005C2.245,0.985,2.248,0.981,2.25,0.975C2.251,0.969,2.253,0.961,2.253,0.95V0.904
		c0-0.008-0.002-0.013-0.002-0.013C2.25,0.889,2.246,0.888,2.241,0.888H2.234"/>
	<path fill="#FFFFFF" d="M2.393,0.886l0.002,0.025H2.392c0-0.005-0.002-0.007-0.002-0.011C2.388,0.896,2.386,0.893,2.381,0.891
		c-0.002,0-0.006,0-0.011,0H2.355v0.088c0,0.006,0,0.009,0.002,0.011c0.002,0.004,0.006,0.004,0.009,0.004H2.37v0.004H2.324V0.994
		h0.003c0.004,0,0.008,0,0.01-0.004c0.002-0.002,0.002-0.005,0.002-0.011V0.891H2.326c-0.006,0-0.011,0-0.011,0
		c-0.004,0-0.006,0.005-0.008,0.007C2.306,0.902,2.304,0.906,2.304,0.911H2.3l0.002-0.025H2.393"/>
	<path fill="#FFFFFF" d="M2.451,0.891v0.043h0.025c0.006,0,0.01,0,0.012-0.002C2.492,0.93,2.494,0.925,2.494,0.918h0.004v0.04H2.494
		c0-0.005-0.002-0.009-0.002-0.011C2.49,0.946,2.488,0.944,2.486,0.944C2.484,0.942,2.48,0.942,2.477,0.942H2.451v0.037
		c0,0.004,0,0.008,0.002,0.008c0,0.001,0,0.003,0.002,0.003s0.004,0,0.006,0h0.02c0.009,0,0.013,0,0.017,0
		C2.5,0.988,2.502,0.987,2.504,0.985c0.004-0.004,0.008-0.01,0.012-0.016H2.52L2.51,0.997H2.42V0.994h0.005
		c0.005,0,0.007,0,0.009-0.002c0.002,0,0.004-0.002,0.004-0.004c0.002-0.001,0.002-0.005,0.002-0.011V0.904
		c0-0.008-0.002-0.013-0.002-0.013C2.434,0.889,2.432,0.888,2.425,0.888H2.42V0.886h0.089v0.021H2.506
		C2.504,0.904,2.502,0.898,2.5,0.896c0-0.003-0.002-0.005-0.006-0.005c-0.002,0-0.006,0-0.012,0H2.451"/>
	<path fill="#FFFFFF" d="M2.634,0.938h0.054V0.904c0-0.006,0-0.011,0-0.013c-0.002,0-0.002,0-0.004-0.002
		c-0.002,0-0.004-0.002-0.007-0.002H2.672V0.885h0.049v0.002H2.715c-0.002,0-0.004,0.002-0.008,0.002
		C2.705,0.891,2.705,0.891,2.703,0.891c0,0.002,0,0.007,0,0.013v0.073c0,0.005,0,0.009,0,0.011C2.705,0.99,2.705,0.99,2.707,0.992
		c0.004,0.002,0.006,0.002,0.008,0.002h0.006v0.004H2.672V0.994h0.005c0.003,0,0.007,0,0.009-0.004
		c0.002-0.002,0.002-0.005,0.002-0.013V0.943H2.634v0.034c0,0.005,0.002,0.009,0.002,0.011c0,0.002,0.003,0.002,0.005,0.004
		s0.004,0.002,0.008,0.002h0.004v0.004H2.602V0.994h0.004c0.006,0,0.011,0,0.013-0.004C2.62,0.988,2.62,0.985,2.62,0.977V0.904
		c0-0.006,0-0.011-0.002-0.013c0,0,0,0-0.004-0.002c-0.003,0-0.005-0.002-0.009-0.002H2.602V0.885H2.65v0.002H2.646
		c-0.002,0-0.006,0.002-0.008,0.002c0,0.002-0.003,0.002-0.003,0.002c0,0.002-0.002,0.007-0.002,0.013V0.938"/>
	<path fill="#FFFFFF" d="M2.802,0.888c-0.011,0-0.021,0.004-0.024,0.011c-0.006,0.009-0.01,0.022-0.01,0.041s0.004,0.034,0.01,0.043
		c0.009,0.006,0.017,0.01,0.024,0.01c0.013,0,0.021-0.004,0.024-0.011c0.008-0.009,0.012-0.022,0.012-0.04
		c0-0.021-0.004-0.034-0.012-0.043C2.82,0.891,2.813,0.888,2.802,0.888 M2.805,0.882C2.82,0.882,2.83,0.888,2.84,0.9
		c0.014,0.011,0.02,0.023,0.02,0.041c0,0.017-0.006,0.031-0.02,0.043C2.83,0.995,2.816,1,2.802,1c-0.017,0-0.03-0.006-0.036-0.017
		c-0.014-0.011-0.02-0.025-0.02-0.042c0-0.021,0.006-0.034,0.021-0.045C2.773,0.888,2.789,0.882,2.805,0.882z"/>
	<path fill="#FFFFFF" d="M2.916,0.94c0.002,0,0.002,0,0.004,0h0.002c0.014,0,0.02-0.001,0.023-0.008
		C2.951,0.93,2.953,0.924,2.953,0.915c0-0.007-0.002-0.013-0.006-0.019C2.941,0.892,2.936,0.89,2.928,0.89
		c-0.004,0-0.008,0-0.014,0.002L2.916,0.94 M2.996,0.998H2.968L2.932,0.945c-0.005,0-0.007,0-0.01,0H2.92c-0.002,0-0.002,0-0.004,0
		v0.032c0,0.007,0.002,0.011,0.002,0.013c0.004,0.004,0.009,0.004,0.014,0.004h0.004v0.004h-0.05V0.994h0.005
		c0.004,0,0.008,0,0.01-0.004c0-0.002,0.002-0.005,0.002-0.013V0.904c0-0.008-0.002-0.013-0.004-0.013
		C2.895,0.889,2.893,0.888,2.891,0.888H2.886V0.886h0.041c0.013,0,0.021,0,0.024,0.002C2.954,0.89,2.963,0.892,2.968,0.897
		c0.005,0.004,0.007,0.011,0.007,0.017c0,0.007-0.002,0.014-0.007,0.018C2.961,0.936,2.955,0.941,2.945,0.941l0.022,0.034
		C2.975,0.982,2.979,0.986,2.982,0.99c0.004,0.002,0.01,0.004,0.016,0.004L2.996,0.998L2.996,0.998z"/>
	<path fill="#FFFFFF" d="M3.111,0.966l0.002,0.002l-0.01,0.03H3.016V0.994h0.006c0.004,0,0.008,0,0.011-0.004
		c0.002-0.002,0.002-0.007,0.002-0.013V0.904c0-0.008,0-0.013-0.002-0.013C3.029,0.889,3.023,0.888,3.02,0.888H3.016V0.886h0.053
		v0.002c-0.008,0-0.01,0.002-0.012,0.002C3.055,0.891,3.052,0.891,3.05,0.891c0,0.002,0,0.009,0,0.015v0.071
		c0,0.005,0,0.007,0,0.009c0.002,0.001,0.002,0.001,0.005,0.003c0.002,0,0.006,0,0.012,0h0.009c0.01,0,0.016,0,0.021-0.002
		C3.1,0.986,3.104,0.984,3.105,0.98C3.105,0.979,3.105,0.973,3.111,0.966"/>
	<path fill="#FFFFFF" d="M3.195,0.888c-0.012,0-0.021,0.004-0.023,0.011C3.164,0.907,3.16,0.921,3.16,0.939
		c0,0.019,0.004,0.034,0.012,0.043c0.004,0.007,0.012,0.011,0.023,0.011c0.011,0,0.02-0.004,0.025-0.011
		c0.006-0.009,0.01-0.022,0.01-0.04c0-0.021-0.004-0.034-0.013-0.043C3.213,0.891,3.207,0.888,3.195,0.888 M3.197,0.882
		c0.014,0,0.025,0.006,0.037,0.018c0.012,0.011,0.018,0.023,0.018,0.041c0,0.017-0.006,0.031-0.018,0.043
		C3.223,0.994,3.211,1,3.195,1C3.182,1,3.168,0.994,3.156,0.983C3.145,0.972,3.139,0.958,3.139,0.941
		c0-0.021,0.008-0.034,0.021-0.045C3.17,0.888,3.182,0.882,3.197,0.882z"/>
	<path fill="#FFFFFF" d="M3.379,0.882l0.004,0.035H3.379C3.377,0.908,3.371,0.902,3.367,0.896C3.361,0.891,3.352,0.888,3.342,0.888
		c-0.016,0-0.023,0.004-0.031,0.018c-0.008,0.011-0.01,0.021-0.01,0.034S3.303,0.96,3.307,0.968c0.004,0.01,0.01,0.016,0.019,0.021
		C3.33,0.993,3.338,0.995,3.346,0.995c0.004,0,0.008,0,0.012,0c0.002-0.002,0.007-0.004,0.011-0.006V0.955c0-0.005,0-0.009,0-0.009
		C3.365,0.944,3.365,0.942,3.361,0.942c0-0.002-0.004-0.002-0.01-0.002V0.936h0.045v0.003H3.395c-0.006,0-0.008,0.002-0.01,0.004
		S3.383,0.949,3.383,0.954V0.99C3.377,0.994,3.369,0.996,3.365,0.998C3.357,1,3.35,1,3.344,1C3.32,1,3.303,0.994,3.293,0.979
		C3.285,0.968,3.281,0.957,3.281,0.943c0-0.011,0.002-0.021,0.008-0.028c0.004-0.011,0.012-0.022,0.021-0.026
		c0.008-0.004,0.02-0.008,0.026-0.008c0.006,0,0.011,0,0.015,0.002c0.002,0,0.008,0.002,0.014,0.004
		c0.004,0.002,0.006,0.002,0.006,0.002c0.002,0,0.004,0,0.004-0.002c0,0,0.002-0.002,0.002-0.006L3.379,0.882"/>
	<path fill="#FFFFFF" d="M3.451,0.891v0.043h0.025c0.006,0,0.01,0,0.012-0.002C3.492,0.93,3.494,0.925,3.494,0.918h0.004v0.04H3.494
		C3.492,0.954,3.492,0.95,3.492,0.948C3.49,0.946,3.488,0.944,3.486,0.944C3.484,0.942,3.48,0.942,3.477,0.942H3.451v0.037
		c0,0.004,0,0.008,0,0.008C3.453,0.988,3.453,0.99,3.455,0.99c0,0,0.004,0,0.006,0h0.02c0.009,0,0.011,0,0.015,0
		C3.496,0.988,3.5,0.987,3.502,0.985c0.004-0.004,0.01-0.01,0.014-0.016H3.52L3.51,0.997H3.42V0.994h0.004
		c0.004,0,0.006,0,0.008-0.002c0.002,0,0.004-0.002,0.004-0.004c0.002-0.001,0.002-0.005,0.002-0.011V0.904
		c0-0.008-0.002-0.013-0.002-0.013C3.434,0.889,3.43,0.888,3.424,0.888H3.42V0.886h0.088v0.021H3.506
		C3.504,0.904,3.502,0.898,3.502,0.896C3.5,0.893,3.498,0.891,3.494,0.891c-0.002,0-0.006,0-0.012,0H3.451"/>
	<path fill="#FFFFFF" d="M3.572,0.94h0.002h0.002c0.012,0,0.021-0.001,0.023-0.008C3.605,0.93,3.607,0.924,3.607,0.915
		c0-0.007-0.002-0.013-0.006-0.019C3.598,0.892,3.592,0.89,3.584,0.89c-0.002,0-0.006,0-0.012,0.002V0.94 M3.652,0.998H3.621
		L3.584,0.945c-0.004,0-0.006,0-0.008,0H3.574H3.572v0.032c0,0.007,0,0.011,0.002,0.013c0.002,0.004,0.006,0.004,0.01,0.004h0.004
		v0.004H3.541V0.994h0.004c0.004,0,0.008,0,0.01-0.004c0.002-0.002,0.002-0.005,0.002-0.013V0.904c0-0.008,0-0.013-0.002-0.013
		c-0.002-0.002-0.006-0.003-0.01-0.003H3.541V0.886H3.58c0.014,0,0.021,0,0.027,0.002c0.006,0.002,0.01,0.004,0.014,0.009
		c0.006,0.004,0.008,0.011,0.008,0.017c0,0.007-0.004,0.014-0.008,0.018C3.617,0.936,3.609,0.941,3.6,0.941l0.023,0.034
		c0.006,0.007,0.01,0.011,0.014,0.015c0.004,0.002,0.008,0.004,0.016,0.004V0.998L3.652,0.998z"/>
	<path fill="#FFFFFF" d="M3.721,0.994v0.004H3.672V0.994h0.004c0.004,0,0.006-0.002,0.01-0.004c0-0.002,0.002-0.005,0.002-0.013
		V0.904c0-0.006-0.002-0.011-0.002-0.013c0,0-0.002,0-0.004-0.002c-0.002,0-0.004-0.002-0.006-0.002H3.672V0.885h0.049v0.002H3.717
		c-0.006,0.001-0.01,0.002-0.012,0.004c0,0-0.002,0.005-0.002,0.013v0.073c0,0.005,0.002,0.009,0.002,0.011
		c0,0.002,0.002,0.002,0.004,0.004s0.004,0.002,0.008,0.002H3.721"/>
	<path fill="#FFFFFF" d="M3.775,0.891v0.043h0.026c0.007,0,0.011,0,0.013-0.002C3.818,0.93,3.82,0.925,3.82,0.918h0.004v0.04H3.82
		c0-0.005-0.002-0.009-0.002-0.011C3.816,0.946,3.814,0.944,3.813,0.944c-0.002-0.002-0.006-0.002-0.01-0.002H3.775v0.037
		c0,0.004,0,0.008,0.004,0.008c0,0.001,0,0.003,0.002,0.003s0.004,0,0.006,0h0.021c0.006,0,0.01,0,0.016,0
		c0-0.002,0.002-0.003,0.006-0.005c0.004-0.004,0.006-0.01,0.01-0.016l0,0L3.832,0.998H3.744V0.994h0.004
		c0.004,0,0.006,0,0.012-0.002c0,0,0.002-0.002,0.002-0.004c0.002-0.001,0.002-0.005,0.002-0.011V0.904c0-0.008,0-0.013-0.002-0.013
		C3.758,0.889,3.754,0.888,3.75,0.888H3.744V0.886h0.088v0.021H3.83C3.828,0.904,3.828,0.898,3.826,0.896
		C3.824,0.893,3.822,0.891,3.82,0.891c-0.004,0-0.008,0-0.014,0H3.775"/>
</g>
</svg>
