<?xml version="1.0" encoding="utf-8"?>
<!-- Generator: Adobe Illustrator 13.0.0, SVG Export Plug-In . SVG Version: 6.00 Build 14948)  -->
<!DOCTYPE svg PUBLIC "-//W3C//DTD SVG 1.1//EN" "http://www.w3.org/Graphics/SVG/1.1/DTD/svg11.dtd">
<svg version="1.1" id="Layer_1" xmlns="http://www.w3.org/2000/svg" xmlns:xlink="http://www.w3.org/1999/xlink" x="0px" y="0px"
	 width="3.607px" height="1px" viewBox="61.974 3.12 3.607 1" enable-background="new 61.974 3.12 3.607 1" xml:space="preserve">
<g>
	<g>
		<path fill="#FFFFFF" d="M2.489,0.412c0.033,0,0.055-0.031,0.055-0.063c0-0.017-0.012-0.034-0.026-0.034
			c-0.029,0-0.06,0.039-0.06,0.067C2.458,0.403,2.471,0.412,2.489,0.412z"/>
		<path fill="#FFFFFF" d="M3.548,0.508c-0.094,0-0.176,0.061-0.241,0.123l0.063-0.118H3.282L3.262,0.55
			C3.247,0.577,3.223,0.602,3.204,0.626c-0.057,0.063-0.115,0.121-0.18,0.173C2.95,0.86,2.796,0.968,2.692,0.968
			c-0.045,0-0.082-0.036-0.082-0.08c0-0.031,0.014-0.06,0.022-0.088c0.039,0,0.078-0.003,0.117-0.014
			C2.828,0.764,2.91,0.729,2.965,0.67c0.023-0.027,0.052-0.063,0.052-0.103c0-0.052-0.054-0.075-0.099-0.075
			c-0.141,0-0.276,0.157-0.36,0.255L2.405,0.88C2.37,0.912,2.313,0.954,2.263,0.954c-0.019,0-0.03-0.016-0.03-0.032
			c0-0.015,0.005-0.03,0.014-0.043l0.211-0.368H2.372L2.333,0.576C2.317,0.599,2.305,0.623,2.289,0.645
			C2.26,0.686,2.224,0.723,2.187,0.759c-0.05,0.05-0.104,0.101-0.161,0.142C1.995,0.923,1.96,0.948,1.92,0.948
			c-0.019,0-0.043-0.01-0.043-0.03c0-0.017,0.011-0.033,0.019-0.047l0.212-0.369h0.127L2.24,0.485H2.112l0.11-0.191H2.137
			L2.073,0.403C2.027,0.481,1.957,0.549,1.878,0.597C1.865,0.606,1.85,0.616,1.835,0.616c-0.004,0-0.008-0.002-0.012-0.004
			c0.019-0.015,0.03-0.035,0.03-0.06c0-0.033-0.03-0.047-0.062-0.047c-0.055,0-0.104,0.021-0.15,0.05l0.023-0.044H1.573L1.519,0.612
			C1.459,0.72,1.373,0.806,1.276,0.882C1.239,0.911,1.183,0.956,1.133,0.956c-0.021,0-0.04-0.012-0.04-0.034
			c0-0.019,0.01-0.037,0.019-0.053l0.203-0.356H1.227l-0.046,0.08C1.18,0.522,1.145,0.489,1.073,0.489
			c-0.138,0-0.266,0.106-0.345,0.212C0.702,0.733,0.684,0.77,0.665,0.807C0.561,0.879,0.41,0.979,0.279,0.979
			c-0.12,0-0.186-0.08-0.186-0.197c0-0.099,0.032-0.197,0.074-0.286c0.09-0.185,0.236-0.349,0.422-0.439
			c0.053-0.024,0.108-0.043,0.168-0.043c0.076,0,0.188,0.042,0.188,0.134c0,0.019-0.004,0.036-0.009,0.054l0.014,0.009
			c0.028-0.08,0.063-0.131,0.131-0.18L1.07,0.016C1.04,0.039,1.006,0.061,0.967,0.061c-0.013,0-0.022,0-0.032-0.007L0.881,0.026
			C0.845,0.005,0.801,0,0.76,0C0.728,0,0.696,0.004,0.664,0.012C0.551,0.04,0.441,0.097,0.351,0.172
			C0.234,0.269,0.134,0.391,0.066,0.526C0.031,0.596,0,0.674,0,0.755C0,0.901,0.105,1,0.25,1s0.301-0.095,0.413-0.175
			C0.656,0.845,0.65,0.866,0.65,0.887c0,0.066,0.056,0.111,0.119,0.111c0.098,0,0.187-0.069,0.25-0.138
			C1.01,0.882,0.999,0.905,0.999,0.93c0,0.04,0.033,0.059,0.069,0.059c0.137,0,0.28-0.142,0.369-0.235L1.306,0.985h0.091
			l0.187-0.324C1.605,0.623,1.63,0.587,1.667,0.563C1.703,0.542,1.75,0.52,1.795,0.52c0.017,0,0.038,0.01,0.038,0.029
			c0,0.005-0.001,0.012-0.004,0.016c-0.006-0.004-0.013-0.006-0.02-0.006c-0.026,0-0.05,0.021-0.05,0.049
			c0,0.026,0.021,0.041,0.046,0.041c0.041,0,0.074-0.027,0.104-0.051c0.034-0.027,0.067-0.056,0.103-0.086L1.831,0.827
			C1.815,0.856,1.793,0.889,1.793,0.925c0,0.042,0.039,0.063,0.076,0.063c0.06,0,0.111-0.029,0.157-0.063
			C2.11,0.864,2.184,0.793,2.253,0.717l-0.07,0.124C2.167,0.867,2.147,0.895,2.147,0.926c0,0.046,0.035,0.063,0.078,0.063
			c0.113,0,0.229-0.116,0.307-0.189C2.526,0.821,2.52,0.845,2.52,0.869c0,0.083,0.067,0.125,0.145,0.125
			c0.08,0,0.152-0.037,0.221-0.076C2.95,0.879,3.01,0.835,3.069,0.787C3.12,0.744,3.167,0.696,3.21,0.645l-0.2,0.342h0.089
			l0.123-0.209C3.27,0.694,3.335,0.617,3.419,0.567c0.037-0.021,0.082-0.043,0.127-0.043c0.021,0,0.029,0.008,0.039,0.022
			c-0.006,0-0.012-0.001-0.016-0.001c-0.023,0-0.053,0.02-0.053,0.046c0,0.018,0.016,0.032,0.03,0.032
			c0.033,0,0.06-0.035,0.06-0.063C3.604,0.526,3.581,0.508,3.548,0.508z M2.905,0.512c0.023,0,0.053,0.011,0.053,0.038
			c0,0.05-0.051,0.111-0.084,0.145C2.819,0.748,2.739,0.786,2.663,0.786c-0.008,0-0.016-0.001-0.021-0.001
			C2.688,0.701,2.798,0.512,2.905,0.512z M0.797,0.968c-0.045,0-0.068-0.039-0.068-0.08c0-0.038,0.014-0.07,0.029-0.104
			c0.043-0.09,0.11-0.17,0.189-0.229c0.04-0.03,0.082-0.054,0.133-0.054c0.047,0,0.083,0.029,0.083,0.077
			c0,0.064-0.053,0.142-0.091,0.192C1.014,0.85,0.903,0.968,0.797,0.968z"/>
	</g>
</g>
</svg>
