<?xml version="1.0" encoding="utf-8"?>
<!-- Generator: Adobe Illustrator 13.0.0, SVG Export Plug-In . SVG Version: 6.00 Build 14948)  -->
<!DOCTYPE svg PUBLIC "-//W3C//DTD SVG 1.1//EN" "http://www.w3.org/Graphics/SVG/1.1/DTD/svg11.dtd">
<svg version="1.1" id="Layer_1" xmlns="http://www.w3.org/2000/svg" xmlns:xlink="http://www.w3.org/1999/xlink" x="0px" y="0px"
	 width="2.443px" height="1px" viewBox="62.559 1.138 2.443 1" enable-background="new 62.559 1.138 2.443 1" xml:space="preserve">
<g>
	<polygon fill="#FFFFFF" points="1.43,0.997 1.404,0.997 1.342,0.844 1.37,0.844 1.416,0.967 1.462,0.844 1.491,0.844 	"/>
	<path fill="#FFFFFF" d="M0.813,0.867L0.795,0.883C0.784,0.869,0.771,0.862,0.751,0.862c-0.033,0-0.057,0.023-0.057,0.058
		s0.022,0.061,0.059,0.061c0.018,0,0.03-0.006,0.042-0.016L0.794,0.922H0.718l0.017-0.023H0.82v0.074
		C0.8,0.99,0.781,1.001,0.753,1.001c-0.046,0-0.084-0.034-0.084-0.081c0-0.048,0.037-0.08,0.083-0.08
		C0.778,0.84,0.796,0.848,0.813,0.867L0.813,0.867z"/>
	<polygon fill="#FFFFFF" points="0.85,0.997 0.85,0.844 0.988,0.844 0.968,0.869 0.877,0.869 0.877,0.895 0.968,0.895 0.968,0.92 
		0.877,0.92 0.877,0.973 0.968,0.973 0.988,0.997 	"/>
	<polygon fill="#FFFFFF" points="1.01,0.997 1.01,0.844 1.031,0.844 1.133,0.95 1.133,0.844 1.159,0.844 1.159,0.997 1.143,0.997 
		1.037,0.889 1.037,0.997 	"/>
	<polygon fill="#FFFFFF" points="1.227,0.819 1.255,0.819 1.273,0.833 1.245,0.833 	"/>
	<polygon fill="#FFFFFF" points="1.19,0.997 1.19,0.844 1.327,0.844 1.308,0.869 1.217,0.869 1.217,0.895 1.308,0.895 1.308,0.92 
		1.217,0.92 1.217,0.973 1.308,0.973 1.327,0.997 	"/>
	<polygon fill="#FFFFFF" points="1.503,0.997 1.503,0.844 1.641,0.844 1.622,0.869 1.531,0.869 1.531,0.895 1.622,0.895 1.622,0.92 
		1.531,0.92 1.531,0.973 1.622,0.973 1.641,0.997 	"/>
	<path fill="#FFFFFF" d="M2.08,0.592c-0.005,0-0.009-0.006-0.009-0.012c0-0.009,0.007-0.019,0.013-0.025l0.36-0.475L2.391,0.079
		L2.128,0.426C2.121,0.398,2.102,0.379,2.072,0.379c-0.073,0-0.132,0.061-0.171,0.115c-0.034,0.04-0.093,0.1-0.148,0.1
		c-0.005,0-0.009-0.002-0.009-0.008c0-0.005,0.004-0.011,0.007-0.015l0.098-0.14c0.006-0.008,0.01-0.017,0.01-0.026
		c0-0.024-0.039-0.024-0.058-0.024C1.803,0.37,1.807,0.36,1.807,0.351c0-0.011-0.007-0.026-0.021-0.026
		c-0.021,0-0.041,0.032-0.041,0.052c0,0.007,0.003,0.013,0.01,0.017c-0.021,0.05-0.144,0.203-0.194,0.203
		c-0.004,0-0.01-0.002-0.01-0.008c0-0.002,0.002-0.007,0.006-0.009l0.137-0.188H1.643L1.619,0.424
		c-0.01-0.026-0.033-0.041-0.06-0.041c-0.089,0-0.159,0.082-0.205,0.146c-0.03,0.021-0.072,0.063-0.109,0.063
		c-0.003,0-0.006-0.002-0.006-0.006c0,0,0-0.004,0.002-0.006L1.34,0.436c0.003-0.006,0.008-0.012,0.008-0.02
		c0-0.015-0.016-0.027-0.029-0.027c-0.034,0-0.068,0.021-0.095,0.039l0.122-0.156L1.294,0.271L1.241,0.333
		c-0.054,0.068-0.128,0.12-0.206,0.16c0.009-0.019,0.019-0.038,0.019-0.06c0-0.031-0.022-0.051-0.055-0.051
		c-0.081,0-0.16,0.076-0.197,0.144C0.78,0.547,0.716,0.6,0.686,0.6c-0.002,0-0.005-0.002-0.005-0.004
		c0-0.004,0.002-0.006,0.004-0.01l0.1-0.142c0.006-0.009,0.01-0.021,0.01-0.032c0-0.019-0.019-0.031-0.036-0.031
		c-0.034,0-0.067,0.019-0.102,0.032l0.011-0.015c0.089-0.046,0.279-0.171,0.279-0.282c0-0.011-0.007-0.021-0.021-0.021
		c-0.055,0-0.133,0.094-0.164,0.132L0.698,0.305L0.592,0.432C0.563,0.448,0.531,0.465,0.501,0.479
		c0.014-0.025,0.023-0.052,0.023-0.08c0-0.036-0.028-0.062-0.063-0.062c-0.081,0-0.181,0.076-0.203,0.155l0.007,0.001
		C0.298,0.43,0.381,0.357,0.456,0.357c0.021,0,0.036,0.011,0.036,0.032c0,0.113-0.154,0.207-0.256,0.207
		c-0.025,0-0.046-0.016-0.046-0.041c0-0.077,0.053-0.15,0.096-0.211c0.075-0.01,0.153-0.029,0.224-0.06
		c0.071-0.031,0.247-0.139,0.247-0.222c0-0.024-0.026-0.041-0.051-0.041c-0.091,0-0.212,0.066-0.285,0.117
		C0.345,0.192,0.28,0.256,0.225,0.327C0.213,0.328,0.202,0.328,0.192,0.328c-0.075,0-0.164-0.036-0.164-0.122
		c0-0.17,0.29-0.194,0.407-0.192h0.029l0.001-0.006C0.433,0.002,0.4-0.001,0.365-0.001C0.242-0.001,0,0.045,0,0.208
		C0,0.31,0.11,0.351,0.195,0.351c0.005,0,0.012,0,0.018-0.001C0.182,0.4,0.156,0.454,0.156,0.516c0,0.065,0.046,0.107,0.112,0.107
		c0.086,0,0.152-0.052,0.214-0.109C0.506,0.502,0.531,0.49,0.556,0.478L0.441,0.615h0.067l0.093-0.122
		c0.027-0.022,0.104-0.09,0.144-0.09c0.003,0,0.006,0.002,0.006,0.005s0,0.008-0.003,0.01L0.654,0.551
		c-0.009,0.012-0.02,0.026-0.02,0.043c0,0.016,0.012,0.027,0.024,0.027c0.042,0,0.085-0.033,0.119-0.057L0.8,0.549
		c-0.001,0.006-0.002,0.014-0.002,0.02c0,0.028,0.024,0.046,0.053,0.046c0.064,0,0.124-0.044,0.167-0.09
		c0.046-0.024,0.092-0.046,0.135-0.077L0.9,0.769L0.956,0.77l0.155-0.2c0.026-0.036,0.136-0.156,0.185-0.156
		c0.001,0,0.002,0.001,0.002,0.003c0,0.003-0.002,0.007-0.005,0.011l-0.08,0.107C1.202,0.549,1.195,0.564,1.195,0.58
		c0,0.021,0.016,0.035,0.036,0.035c0.041,0,0.087-0.034,0.119-0.056V0.56c0,0.029,0.015,0.054,0.048,0.054
		c0.042,0,0.08-0.022,0.114-0.045c0,0.005-0.002,0.01-0.002,0.015c0,0.019,0.018,0.03,0.033,0.03c0.086,0,0.209-0.146,0.25-0.216
		c0.001,0,0.003,0,0.005,0c0.005,0,0.018,0,0.018,0.006c0,0.003-0.004,0.007-0.007,0.01L1.724,0.535
		c-0.011,0.014-0.02,0.027-0.02,0.044c0,0.019,0.017,0.03,0.033,0.03c0.052,0,0.103-0.035,0.142-0.064
		c-0.002,0.01-0.004,0.02-0.004,0.027c0,0.027,0.024,0.042,0.05,0.042c0.039,0,0.071-0.022,0.104-0.044
		c0,0.004-0.001,0.009-0.001,0.013c0,0.02,0.013,0.035,0.032,0.035c0.078,0,0.147-0.097,0.183-0.157L2.238,0.458
		C2.206,0.498,2.134,0.592,2.08,0.592z M0.923,0.119c0.001,0,0.003,0.001,0.003,0.003c0,0.067-0.161,0.195-0.223,0.229
		C0.736,0.31,0.869,0.119,0.923,0.119z M0.483,0.16c0.051-0.036,0.158-0.109,0.226-0.109c0.005,0,0.015,0.002,0.015,0.009
		c0,0.069-0.147,0.167-0.199,0.191C0.455,0.285,0.38,0.312,0.306,0.32C0.358,0.26,0.415,0.205,0.483,0.16z M1.023,0.455
		C0.997,0.457,0.969,0.471,0.969,0.501c0,0.007,0.004,0.013,0.008,0.02C0.948,0.559,0.899,0.601,0.849,0.6
		c-0.012,0-0.017-0.008-0.017-0.019c0-0.06,0.12-0.174,0.184-0.174c0.009,0,0.02,0.003,0.02,0.015
		C1.034,0.435,1.029,0.444,1.023,0.455z M1.407,0.598c-0.008,0-0.015-0.008-0.015-0.016c0-0.062,0.116-0.179,0.179-0.179
		c0.015,0,0.025,0.01,0.025,0.024C1.597,0.489,1.467,0.598,1.407,0.598z M1.935,0.598c-0.013,0-0.021-0.008-0.021-0.019
		c0-0.057,0.108-0.183,0.171-0.183c0.016,0,0.021,0.014,0.021,0.025C2.107,0.479,1.99,0.598,1.935,0.598z"/>
</g>
</svg>
