<?xml version="1.0" encoding="utf-8"?>
<!-- Generator: Adobe Illustrator 13.0.0, SVG Export Plug-In . SVG Version: 6.00 Build 14948)  -->
<!DOCTYPE svg PUBLIC "-//W3C//DTD SVG 1.1//EN" "http://www.w3.org/Graphics/SVG/1.1/DTD/svg11.dtd">
<svg version="1.1" id="Layer_1" xmlns="http://www.w3.org/2000/svg" xmlns:xlink="http://www.w3.org/1999/xlink" x="0px" y="0px"
	 width="4.719px" height="1px" viewBox="61.419 8.396 4.719 1" enable-background="new 61.419 8.396 4.719 1" xml:space="preserve">
<path fill="#FFFFFF" d="M2.342,0.436V0.415c0,0-0.006-0.001-0.01-0.002C2.326,0.411,2.322,0.406,2.32,0.401c0-0.003,0-0.145,0-0.15
	c0.002-0.009,0.004-0.02,0.014-0.024c0.004-0.002,0.007-0.002,0.008-0.004c0.001-0.003,0-0.021,0-0.021H2.221v0.021
	c0,0,0.01,0.004,0.014,0.008c0.008,0.005,0.01,0.018,0.012,0.029c0,0.025,0,0.136,0,0.136s-0.019,0-0.029,0
	C2.141,0.392,2.078,0.342,2.057,0.27C2.055,0.263,2.053,0.256,2.052,0.249C2.05,0.241,2.048,0.208,2.048,0.201
	C2.05,0.14,2.084,0.074,2.146,0.059c0.032-0.008,0.079-0.002,0.102,0.023c0.008,0.009,0.015,0.027,0.01,0.04
	c-0.004,0.005-0.01,0.014-0.01,0.014S2.25,0.139,2.254,0.141C2.261,0.146,2.269,0.15,2.269,0.15L2.33,0.076
	c0,0-0.017-0.018-0.026-0.028C2.268,0.017,2.205-0.001,2.16,0C2.154,0,2.115,0.006,2.111,0.008C2.027,0.034,1.971,0.114,1.967,0.203
	C1.966,0.25,1.981,0.306,2.012,0.347C2.058,0.41,2.136,0.441,2.217,0.445c0.023,0.001,0.066,0,0.092-0.004
	C2.322,0.438,2.342,0.436,2.342,0.436L2.342,0.436L2.342,0.436z M2.39,0.415v0.021h0.124V0.415c0,0-0.009-0.002-0.014-0.005
	C2.492,0.406,2.488,0.39,2.488,0.378c0-0.021,0-0.06,0-0.06s0.09-0.03,0.11-0.039c0.011-0.005,0.021-0.01,0.03-0.017
	C2.637,0.259,2.662,0.24,2.666,0.236c0.043-0.038,0.06-0.104,0.035-0.156c-0.01-0.023-0.023-0.037-0.043-0.05
	C2.638,0.018,2.617,0.012,2.595,0.01C2.584,0.009,2.572,0.009,2.559,0.009c-0.061,0-0.171,0-0.171,0V0.03
	c0,0,0.009,0.004,0.015,0.007C2.406,0.04,2.41,0.048,2.412,0.054c0,0.003,0.002,0.085,0.002,0.098c-0.002,0.035,0,0.219,0,0.232
	C2.412,0.394,2.41,0.406,2.4,0.411C2.396,0.413,2.39,0.415,2.39,0.415L2.39,0.415L2.39,0.415z M2.49,0.267L2.488,0.062l0.06-0.001
	c0.002,0,0.003,0,0.005,0c0.023,0.003,0.033,0.004,0.052,0.018c0.03,0.023,0.037,0.071,0.017,0.105
	C2.604,0.21,2.572,0.231,2.541,0.245C2.522,0.254,2.49,0.267,2.49,0.267L2.49,0.267L2.49,0.267z M0.299,0.992V0.975
	c0,0-0.006-0.001-0.01-0.002C0.283,0.97,0.281,0.966,0.281,0.961C0.279,0.958,0.279,0.856,0.279,0.846
	c0.002-0.008,0.002-0.017,0.008-0.021c0.004-0.003,0.011-0.005,0.012-0.007c0.001-0.003,0-0.016,0-0.016h-0.1v0.017
	c0,0,0.006,0.002,0.008,0.003C0.219,0.826,0.22,0.84,0.221,0.854c0.001,0.028,0,0.103,0,0.103s-0.018,0-0.029,0
	C0.148,0.955,0.105,0.928,0.084,0.892c-0.03-0.051-0.029-0.121,0.001-0.168c0.024-0.038,0.067-0.054,0.11-0.039
	C0.207,0.69,0.223,0.7,0.228,0.711C0.229,0.716,0.23,0.726,0.229,0.73C0.229,0.736,0.224,0.748,0.224,0.748l0.015,0.011l0.051-0.062
	c0,0-0.012-0.014-0.021-0.021C0.25,0.658,0.214,0.644,0.191,0.64C0.125,0.626,0.064,0.649,0.027,0.709
	C-0.02,0.787-0.006,0.89,0.062,0.95C0.103,0.986,0.15,0.997,0.207,1c0.009,0,0.046-0.001,0.055-0.002
	C0.277,0.996,0.299,0.992,0.299,0.992L0.299,0.992L0.299,0.992z M3.742,0.992V0.974c0,0-0.004,0-0.006-0.001
	C3.731,0.972,3.728,0.967,3.727,0.96c0-0.002-0.001-0.002-0.001-0.004c0-0.036-0.001-0.095,0-0.107c0-0.011,0.001-0.024,0.013-0.029
	c0.004-0.001,0.004-0.001,0.006-0.004c0-0.002,0-0.004,0-0.008C3.742,0.805,3.742,0.802,3.742,0.802L3.644,0.8v0.017
	c0,0,0.011,0.005,0.013,0.007c0.008,0.004,0.008,0.015,0.008,0.023c0.002,0.033,0,0.11,0,0.11s-0.02,0-0.031,0
	c-0.036-0.002-0.077-0.025-0.1-0.054c-0.041-0.053-0.043-0.139,0-0.19C3.553,0.691,3.58,0.678,3.609,0.68
	c0.032,0.001,0.066,0.017,0.065,0.048c0,0.002,0,0.005-0.002,0.009c-0.002,0.004-0.007,0.01-0.007,0.01l0.017,0.012l0.049-0.061
	c0,0-0.002-0.004-0.005-0.007C3.709,0.67,3.674,0.651,3.652,0.645C3.578,0.622,3.502,0.65,3.463,0.718
	C3.438,0.759,3.432,0.813,3.445,0.859c0.021,0.074,0.082,0.124,0.157,0.136c0.013,0.002,0.029,0.004,0.043,0.004
	c0.009,0,0.063-0.002,0.071-0.003C3.729,0.994,3.742,0.992,3.742,0.992L3.742,0.992L3.742,0.992z M4.379,0.992V0.974
	c0,0-0.006-0.002-0.01-0.004c-0.01-0.005-0.01-0.019-0.01-0.032C4.357,0.919,4.356,0.7,4.356,0.688
	c0.001-0.009,0.003-0.021,0.013-0.025C4.371,0.661,4.377,0.66,4.377,0.66V0.643H4.275c0,0,0,0.012,0,0.016
	C4.277,0.662,4.279,0.66,4.287,0.665c0.008,0.004,0.01,0.016,0.01,0.024c0.002,0.022,0.001,0.257,0.001,0.257s-0.029,0.001-0.048,0
	C4.199,0.943,4.168,0.909,4.158,0.859C4.15,0.813,4.166,0.757,4.188,0.713C4.193,0.7,4.211,0.674,4.225,0.666
	c0.004-0.002,0.01-0.005,0.01-0.005V0.643H4.137v0.016c0,0,0.006,0.002,0.009,0.003s0.007,0.004,0.009,0.009
	c0,0.001,0,0.001,0,0.002c0,0,0,0.001-0.002,0.003c-0.014,0.03-0.037,0.082-0.041,0.09C4.094,0.814,4.091,0.862,4.109,0.908
	C4.13,0.96,4.171,0.988,4.227,0.991C4.25,0.993,4.379,0.992,4.379,0.992L4.379,0.992L4.379,0.992z M4.398,0.974v0.019h0.104V0.975
	c0,0-0.008-0.002-0.012-0.004C4.479,0.966,4.48,0.959,4.484,0.95c0.004-0.009,0.066-0.103,0.066-0.103S4.598,0.92,4.615,0.95
	c0.006,0.009,0.008,0.016,0,0.021c-0.002,0-0.002,0.001-0.004,0.001C4.605,0.974,4.603,0.974,4.603,0.976
	c-0.001,0.003,0,0.017,0,0.017h0.116c0,0,0-0.011,0-0.015S4.715,0.974,4.707,0.971C4.705,0.97,4.701,0.965,4.697,0.962
	C4.695,0.96,4.695,0.959,4.695,0.958L4.595,0.803L4.68,0.674C4.681,0.672,4.682,0.672,4.683,0.67
	c0.005-0.005,0.009-0.008,0.015-0.009C4.699,0.66,4.703,0.66,4.703,0.66V0.643H4.601V0.66c0,0,0.009,0.002,0.013,0.004
	c0.012,0.004,0.002,0.022-0.007,0.035C4.593,0.721,4.564,0.764,4.564,0.764l-0.05-0.08c0-0.001-0.001-0.002-0.002-0.004
	C4.511,0.675,4.511,0.67,4.512,0.667c0-0.002,0.001-0.003,0.003-0.004C4.517,0.661,4.523,0.66,4.525,0.659c0-0.001,0-0.001,0-0.003
	c0-0.004,0-0.014,0-0.014H4.41V0.66c0,0,0.006,0.001,0.011,0.003c0.008,0.003,0.015,0.015,0.021,0.022
	C4.453,0.701,4.52,0.808,4.52,0.808s-0.093,0.141-0.1,0.149C4.416,0.961,4.41,0.968,4.404,0.97C4.402,0.973,4.398,0.974,4.398,0.974
	L4.398,0.974L4.398,0.974z M0.322,0.975v0.018h0.103V0.975c0,0-0.007-0.002-0.011-0.004C0.41,0.968,0.406,0.962,0.404,0.954
	c0-0.002,0-0.002,0-0.004c0-0.09,0-0.264,0-0.269c0-0.005,0.002-0.011,0.006-0.014S0.424,0.66,0.424,0.66L0.423,0.643H0.322V0.66
	c0,0,0.008,0.003,0.012,0.005c0.005,0.003,0.007,0.012,0.008,0.017C0.343,0.687,0.344,0.94,0.344,0.949
	C0.343,0.959,0.34,0.97,0.328,0.973C0.326,0.974,0.322,0.975,0.322,0.975L0.322,0.975L0.322,0.975z M0.449,0.992h0.103V0.975
	c0,0-0.007-0.002-0.011-0.004c-0.008-0.004-0.01-0.016-0.01-0.023c-0.002-0.026,0-0.104,0-0.104H0.58l0.086,0.15h0.078V0.974
	c0,0-0.002,0-0.004,0C0.731,0.973,0.723,0.961,0.719,0.955C0.707,0.937,0.646,0.833,0.646,0.833s0.01-0.003,0.018-0.007
	c0.045-0.019,0.063-0.075,0.051-0.119c-0.014-0.039-0.049-0.06-0.092-0.063c-0.017-0.001-0.176,0-0.176,0V0.66
	c0,0,0.006,0.002,0.01,0.003c0.006,0.003,0.009,0.009,0.01,0.014c0.001,0.005,0.002,0.035,0.002,0.055
	c0.001,0.079,0.002,0.2,0.001,0.217c0,0.007-0.003,0.017-0.008,0.021C0.457,0.973,0.451,0.974,0.451,0.975
	C0.449,0.978,0.449,0.992,0.449,0.992L0.449,0.992L0.449,0.992z M0.841,0.992c0,0,0-0.009,0-0.013c0-0.002,0-0.003-0.001-0.004
	C0.839,0.973,0.832,0.972,0.83,0.97C0.82,0.965,0.82,0.955,0.824,0.945c0.002-0.013,0.026-0.079,0.026-0.079l0.114-0.001
	l0.033,0.084c0,0.002,0,0.002,0,0.004C1,0.962,0.998,0.969,0.99,0.972C0.986,0.973,0.981,0.975,0.981,0.975v0.018h0.106V0.978
	c0-0.005-0.002-0.003-0.008-0.006C1.074,0.97,1.072,0.966,1.07,0.961C1.068,0.959,1.068,0.959,1.068,0.958L0.949,0.643H0.885
	c0,0-0.107,0.305-0.109,0.312C0.771,0.959,0.767,0.968,0.763,0.971C0.759,0.973,0.752,0.974,0.752,0.974v0.019L0.841,0.992
	L0.841,0.992L0.841,0.992z M1.098,0.975v0.018h0.104c0,0,0-0.008,0-0.012c0-0.003,0-0.004-0.002-0.005s-0.006-0.001-0.01-0.004
	C1.184,0.967,1.182,0.961,1.181,0.953C1.18,0.951,1.18,0.95,1.18,0.948V0.842h0.049l0.085,0.15h0.081V0.975
	c0,0-0.007-0.002-0.01-0.003C1.38,0.97,1.375,0.967,1.371,0.961C1.369,0.959,1.369,0.959,1.369,0.958L1.295,0.833
	c0,0,0.01-0.003,0.018-0.006c0.033-0.014,0.055-0.048,0.055-0.083c0-0.024-0.006-0.049-0.021-0.066
	c-0.019-0.02-0.04-0.029-0.063-0.033c-0.01-0.001-0.017-0.001-0.026-0.002c-0.03-0.001-0.16,0-0.16,0v0.016
	c0,0,0.008,0.004,0.013,0.006c0.004,0.003,0.006,0.007,0.008,0.014c0,0.002,0,0.003,0,0.004c0,0.088,0.002,0.253,0.002,0.262
	C1.117,0.956,1.117,0.966,1.109,0.97C1.104,0.973,1.098,0.975,1.098,0.975L1.098,0.975L1.098,0.975z M1.435,0.686l0.001,0.262
	c0,0.002,0,0.002,0,0.004c-0.001,0.01-0.006,0.017-0.013,0.02C1.42,0.973,1.412,0.975,1.412,0.975v0.018h0.135
	c0.047,0,0.093-0.012,0.125-0.043c0.014-0.014,0.025-0.03,0.031-0.044c0.033-0.072,0.016-0.154-0.037-0.208
	C1.633,0.665,1.588,0.647,1.541,0.645C1.518,0.643,1.412,0.644,1.412,0.644V0.66c0,0,0.009,0.004,0.013,0.006
	c0.004,0.003,0.009,0.01,0.01,0.017C1.435,0.684,1.435,0.684,1.435,0.686L1.435,0.686L1.435,0.686z M2.219,0.975v0.018h0.264V0.919
	H2.462c0,0-0.005,0.012-0.007,0.018C2.449,0.946,2.439,0.949,2.428,0.951c-0.016,0.001-0.128,0-0.128,0V0.817
	c0,0,0.088,0,0.095,0.001C2.402,0.819,2.406,0.822,2.41,0.827c0.002,0.002,0.004,0.007,0.004,0.01c0,0.002,0,0.005,0,0.005h0.022
	v-0.09H2.416c0,0-0.004,0.01-0.006,0.014C2.402,0.775,2.388,0.775,2.373,0.775C2.346,0.776,2.299,0.776,2.299,0.776V0.684
	c0,0,0.122,0,0.128,0.001C2.436,0.687,2.44,0.691,2.445,0.701c0,0.005,0.002,0.012,0.002,0.012h0.021v-0.07H2.217L2.218,0.66
	c0,0,0.007,0.003,0.01,0.005c0.004,0.003,0.007,0.009,0.009,0.013C2.24,0.689,2.238,0.956,2.238,0.957
	C2.236,0.96,2.232,0.968,2.229,0.971C2.227,0.973,2.219,0.975,2.219,0.975L2.219,0.975L2.219,0.975z M2.508,0.975v0.017h0.102V0.975
	c0,0-0.007-0.002-0.011-0.005C2.595,0.968,2.593,0.964,2.591,0.957C2.59,0.955,2.59,0.954,2.59,0.952l-0.001-0.11h0.05l0.084,0.15
	h0.08V0.978c0-0.002,0-0.002-0.001-0.003c0,0-0.001,0-0.001-0.001c-0.002,0-0.004,0-0.006-0.001
	c-0.004-0.001-0.01-0.006-0.012-0.009C2.781,0.962,2.781,0.962,2.779,0.96L2.703,0.833c0,0,0.018-0.006,0.027-0.012
	C2.755,0.81,2.771,0.782,2.775,0.753C2.783,0.696,2.75,0.654,2.691,0.645c-0.005,0-0.011-0.001-0.018-0.001
	c-0.033-0.001-0.168,0-0.168,0s-0.001,0.012,0,0.015c0,0.002,0.001,0.002,0.002,0.003C2.517,0.667,2.52,0.666,2.523,0.674
	c0,0.001,0.002,0.003,0.002,0.006c0.002,0.013,0.004,0.266,0,0.279c0,0.004-0.004,0.011-0.009,0.013
	C2.514,0.973,2.508,0.975,2.508,0.975L2.508,0.975L2.508,0.975z M2.834,0.976v0.016h0.102V0.976c0,0-0.008-0.004-0.012-0.006
	C2.919,0.967,2.916,0.961,2.916,0.955c0-0.002,0-0.002,0-0.005L2.914,0.842h0.05l0.085,0.15h0.08V0.975c0,0-0.006-0.001-0.01-0.003
	C3.106,0.966,3.098,0.947,3.09,0.933c-0.021-0.037-0.059-0.1-0.059-0.1s0.015-0.005,0.022-0.01c0.03-0.014,0.05-0.053,0.05-0.085
	C3.103,0.678,3.061,0.643,3.006,0.643H2.832v0.016c0,0.003,0.01,0.005,0.014,0.008C2.85,0.671,2.852,0.678,2.853,0.683
	C2.854,0.691,2.854,0.737,2.854,0.77c0,0.046-0.001,0.186-0.002,0.189C2.851,0.964,2.849,0.968,2.844,0.971
	C2.84,0.973,2.834,0.976,2.834,0.976L2.834,0.976L2.834,0.976z M3.154,0.975v0.017h0.264V0.919L3.396,0.92
	c0,0-0.002,0.006-0.003,0.01C3.388,0.946,3.375,0.95,3.356,0.951c-0.024,0.001-0.12,0-0.12,0V0.817c0,0,0.055-0.002,0.082,0
	c0.012,0,0.025,0.003,0.03,0.016C3.35,0.836,3.351,0.842,3.351,0.842h0.021v-0.09h-0.02c0,0-0.002,0.006-0.003,0.01
	c-0.005,0.01-0.017,0.013-0.024,0.014c-0.02,0.001-0.088,0-0.088,0L3.234,0.684c0,0,0.121,0,0.129,0.001
	C3.369,0.686,3.375,0.69,3.379,0.7c0.002,0.004,0.005,0.013,0.005,0.013h0.021L3.402,0.644h-0.25L3.154,0.66
	c0,0,0.006,0.002,0.008,0.004c0.007,0.003,0.009,0.009,0.011,0.014c0.001,0.003,0.003,0.084,0.002,0.098
	C3.174,0.813,3.177,0.908,3.176,0.944c0,0.009-0.002,0.021-0.01,0.025C3.162,0.972,3.154,0.975,3.154,0.975L3.154,0.975L3.154,0.975
	z M3.76,0.992c0,0-0.002-0.013-0.001-0.016C3.76,0.974,3.765,0.974,3.77,0.971c0.004-0.003,0.008-0.007,0.01-0.011
	c0.004-0.008,0.111-0.316,0.111-0.316h0.064c0,0,0.102,0.273,0.115,0.31c0.004,0.007,0.006,0.014,0.014,0.018
	c0.004,0.001,0.007,0.002,0.008,0.003S4.093,0.977,4.093,0.98v0.013H3.986V0.974c0,0,0.004-0.001,0.008-0.001
	c0.009-0.003,0.012-0.01,0.011-0.018c0-0.005-0.033-0.09-0.033-0.09H3.859c0,0-0.025,0.069-0.029,0.08
	C3.828,0.957,3.828,0.966,3.841,0.972c0.005,0.002,0.007,0.001,0.007,0.006c0,0.004,0,0.015,0,0.015L3.76,0.992L3.76,0.992
	L3.76,0.992z M1.935,0.993h0.103V0.975c0,0-0.004-0.001-0.006-0.002C2.021,0.969,2.018,0.96,2.017,0.95
	c-0.002-0.011,0-0.055,0-0.055s0.077-0.026,0.095-0.033C2.16,0.841,2.193,0.808,2.199,0.757c0.002-0.014,0-0.031-0.004-0.046
	C2.181,0.665,2.14,0.647,2.094,0.644c-0.018-0.001-0.161,0-0.161,0V0.66c0,0,0.009,0.003,0.013,0.006s0.008,0.01,0.008,0.016
	c0,0.004,0.002,0.264,0,0.271c0,0.007,0,0.009-0.004,0.013c-0.002,0.002-0.006,0.006-0.01,0.007
	C1.938,0.974,1.936,0.974,1.935,0.975c0,0.001-0.001,0.003,0,0.008C1.935,0.987,1.935,0.993,1.935,0.993L1.935,0.993L1.935,0.993z
	 M0.531,0.801L0.529,0.684c0,0,0.036-0.001,0.059,0c0.035,0.002,0.064,0.017,0.068,0.053c0.006,0.041-0.022,0.061-0.062,0.063
	C0.574,0.802,0.531,0.801,0.531,0.801L0.531,0.801L0.531,0.801z M1.179,0.801V0.684c0,0,0.06,0,0.071,0.001
	c0.029,0.004,0.053,0.021,0.056,0.052C1.31,0.779,1.283,0.797,1.246,0.8C1.229,0.802,1.179,0.801,1.179,0.801L1.179,0.801
	L1.179,0.801z M1.498,0.951L1.496,0.685c0,0,0.012,0,0.021,0c0.006,0,0.031,0.004,0.036,0.005c0.006,0.001,0.01,0.003,0.016,0.005
	C1.572,0.697,1.595,0.709,1.6,0.712c0.045,0.036,0.063,0.094,0.053,0.153C1.647,0.888,1.638,0.907,1.621,0.921
	C1.597,0.942,1.564,0.95,1.529,0.951C1.517,0.951,1.498,0.951,1.498,0.951L1.498,0.951L1.498,0.951z M2.016,0.854l-0.001-0.17
	c0,0,0.031-0.001,0.05,0c0.039,0.002,0.068,0.025,0.07,0.063C2.136,0.785,2.109,0.813,2.072,0.83
	C2.052,0.841,2.016,0.854,2.016,0.854L2.016,0.854L2.016,0.854z M2.589,0.801L2.588,0.685c0,0,0.031-0.001,0.051,0
	c0.045,0,0.08,0.017,0.076,0.065C2.714,0.779,2.691,0.796,2.664,0.8C2.65,0.801,2.589,0.801,2.589,0.801L2.589,0.801L2.589,0.801z
	 M2.914,0.801V0.686c0,0,0.035-0.002,0.056-0.001c0.039,0.001,0.069,0.017,0.071,0.057c0.003,0.03-0.016,0.05-0.043,0.056
	C2.992,0.799,2.986,0.8,2.979,0.801C2.957,0.802,2.914,0.801,2.914,0.801L2.914,0.801L2.914,0.801z M3.955,0.823L3.912,0.707
	L3.871,0.824L3.955,0.823L3.955,0.823L3.955,0.823z M0.949,0.823H0.865l0.041-0.116L0.949,0.823L0.949,0.823L0.949,0.823z
	 M1.885,0.895V0.847H1.777v0.048H1.885L1.885,0.895z"/>
</svg>
