<?xml version="1.0" encoding="utf-8"?>
<!-- Generator: Adobe Illustrator 13.0.0, SVG Export Plug-In . SVG Version: 6.00 Build 14948)  -->
<!DOCTYPE svg PUBLIC "-//W3C//DTD SVG 1.1//EN" "http://www.w3.org/Graphics/SVG/1.1/DTD/svg11.dtd">
<svg version="1.1" id="Layer_1" xmlns="http://www.w3.org/2000/svg" xmlns:xlink="http://www.w3.org/1999/xlink" x="0px" y="0px"
	 width="6.835px" height="1px" viewBox="60.362 6.985 6.835 1" enable-background="new 60.362 6.985 6.835 1" xml:space="preserve">
<g>
	<path fill="#FFFFFF" d="M5.578,0C5.375,0,5.212,0.063,5.212,0.293c0,0.228,0.158,0.291,0.363,0.291
		c0.188,0,0.365-0.063,0.365-0.291S5.776,0,5.578,0z M5.578,0.494c-0.143,0-0.272-0.035-0.272-0.203s0.133-0.202,0.272-0.202
		c0.135,0,0.271,0.034,0.271,0.202S5.712,0.494,5.578,0.494z"/>
	<rect x="3.331" y="0.026" fill="#FFFFFF" width="0.103" height="0.556"/>
	<polygon fill="#FFFFFF" points="3.834,0.492 3.834,0.026 3.732,0.026 3.732,0.584 4.281,0.584 4.281,0.492 	"/>
	<polygon fill="#FFFFFF" points="4.722,0.113 5.054,0.113 5.054,0.026 4.287,0.026 4.287,0.113 4.623,0.113 4.623,0.584 
		4.722,0.584 	"/>
	<path fill="#FFFFFF" d="M6.287,0.324c-0.002,0.079,0,0.26,0,0.26L6.185,0.582V0.281c0-0.097,0-0.262,0.326-0.262
		c0.322,0,0.324,0.166,0.324,0.262v0.301H6.734c0,0,0-0.18,0-0.258C6.73,0.226,6.761,0.11,6.507,0.11S6.289,0.227,6.287,0.324"/>
	<path fill="#FFFFFF" d="M1.375,0.02c0.369,0,0.357,0.166,0.357,0.262v0.301L1.63,0.584c0,0,0-0.112,0-0.193H1.374H1.118
		c0,0.081,0,0.193,0,0.193L1.015,0.582V0.281C1.017,0.186,1.005,0.02,1.375,0.02 M1.375,0.296H1.63c0-0.089,0.022-0.187-0.257-0.187
		c-0.28,0-0.257,0.098-0.256,0.187H1.375z"/>
	<path fill="#FFFFFF" d="M2.532,0.082c0.032-0.055,0.121-0.074,0.237-0.074c0.274,0,0.26,0.133,0.261,0.269v0.306L2.923,0.584V0.318
		c-0.004-0.117,0.03-0.214-0.152-0.214c-0.195,0-0.188,0.036-0.188,0.213c0,0.082,0,0.265,0,0.265H2.532H2.48c0,0,0-0.183,0-0.265
		c0-0.177,0.008-0.214-0.188-0.214c-0.183,0-0.146,0.098-0.152,0.214c0,0.082,0,0.265,0,0.265H2.034V0.276
		c0.002-0.136,0-0.269,0.261-0.269C2.412,0.008,2.499,0.028,2.532,0.082"/>
	<path fill="#FFFFFF" d="M0.614,0.338V0.58h0.103V0.021H0.614v0.214H0.103V0.021H0V0.58h0.103c0,0,0-0.143,0-0.242H0.614z"/>
	<path fill="#FFFFFF" d="M1.171,0.998H1.148l-0.02-0.045H1.062l-0.02,0.045H1.019l0.066-0.155h0.016L1.171,0.998z M1.07,0.932h0.048
		L1.093,0.875L1.07,0.932z"/>
	<polygon fill="#FFFFFF" points="1.369,0.998 1.347,0.998 1.347,0.878 1.347,0.878 1.298,0.938 1.294,0.938 1.247,0.878 
		1.247,0.878 1.247,0.998 1.224,0.998 1.224,0.843 1.245,0.843 1.296,0.906 1.347,0.843 1.369,0.843 	"/>
	<polygon fill="#FFFFFF" points="1.527,0.863 1.46,0.863 1.46,0.91 1.525,0.91 1.525,0.93 1.46,0.93 1.46,0.979 1.529,0.979 
		1.529,0.998 1.439,0.998 1.439,0.843 1.527,0.843 	"/>
	<path fill="#FFFFFF" d="M1.628,0.843c0.031,0,0.051,0.017,0.051,0.043c0,0.019-0.008,0.03-0.025,0.039
		c0.014,0.009,0.023,0.022,0.035,0.043c0.007,0.011,0.011,0.015,0.02,0.03H1.683l-0.02-0.031c-0.021-0.032-0.03-0.036-0.042-0.036
		H1.612v0.067H1.589V0.843H1.628L1.628,0.843z M1.612,0.91h0.014c0.024,0,0.031-0.012,0.031-0.025c0-0.016-0.009-0.024-0.031-0.024
		H1.612V0.91z"/>
	<rect x="1.763" y="0.843" fill="#FFFFFF" width="0.021" height="0.155"/>
	<path fill="#FFFFFF" d="M1.988,0.878C1.968,0.865,1.952,0.86,1.933,0.86c-0.035,0-0.062,0.026-0.062,0.061S1.895,0.98,1.934,0.98
		c0.018,0,0.037-0.006,0.055-0.018v0.024C1.974,0.994,1.958,1,1.933,1C1.875,1,1.849,0.955,1.849,0.922
		c0-0.047,0.037-0.083,0.086-0.083c0.016,0,0.031,0.004,0.054,0.013L1.988,0.878L1.988,0.878z"/>
	<path fill="#FFFFFF" d="M2.194,0.998H2.171L2.15,0.953H2.083l-0.02,0.045H2.041l0.066-0.155h0.016L2.194,0.998z M2.093,0.932H2.14
		L2.116,0.875L2.093,0.932z"/>
	<polygon fill="#FFFFFF" points="2.39,0.998 2.372,0.998 2.267,0.879 2.267,0.998 2.247,0.998 2.247,0.843 2.265,0.843 2.37,0.964 
		2.37,0.843 2.39,0.843 	"/>
	<path fill="#FFFFFF" d="M2.634,0.877C2.622,0.865,2.609,0.859,2.597,0.859c-0.014,0-0.024,0.008-0.024,0.02
		c0,0.029,0.067,0.029,0.067,0.078C2.64,0.982,2.622,1,2.597,1C2.58,1,2.566,0.994,2.552,0.984V0.957
		c0.012,0.014,0.026,0.021,0.043,0.021c0.017,0,0.025-0.01,0.025-0.019c0-0.033-0.067-0.036-0.067-0.078
		c0-0.026,0.019-0.042,0.047-0.042c0.012,0,0.023,0.005,0.035,0.011L2.634,0.877L2.634,0.877z"/>
	<path fill="#FFFFFF" d="M2.749,0.843c0.034,0,0.05,0.021,0.05,0.045c0,0.024-0.018,0.043-0.053,0.043H2.722v0.067H2.7V0.843H2.749
		L2.749,0.843z M2.722,0.91h0.024c0.017,0,0.028-0.009,0.028-0.023c0-0.012-0.006-0.022-0.027-0.022H2.722V0.91L2.722,0.91z"/>
	<rect x="2.853" y="0.843" fill="#FFFFFF" width="0.022" height="0.155"/>
	<path fill="#FFFFFF" d="M2.986,0.843c0.031,0,0.051,0.017,0.051,0.043c0,0.019-0.009,0.03-0.025,0.039
		c0.014,0.009,0.022,0.022,0.035,0.043c0.006,0.011,0.01,0.016,0.021,0.03H3.04L3.019,0.967c-0.021-0.032-0.03-0.036-0.041-0.036
		h-0.01v0.067H2.946V0.843H2.986L2.986,0.843z M2.968,0.91h0.016c0.023,0,0.031-0.012,0.029-0.025c0-0.016-0.008-0.024-0.029-0.024
		H2.968V0.91z"/>
	<rect x="3.121" y="0.843" fill="#FFFFFF" width="0.021" height="0.155"/>
	<polygon fill="#FFFFFF" points="3.33,0.863 3.276,0.863 3.276,0.998 3.253,0.998 3.253,0.863 3.2,0.863 3.2,0.843 3.33,0.843 	"/>
	<path fill="#FFFFFF" d="M3.776,0.877C3.763,0.865,3.75,0.859,3.74,0.859c-0.016,0-0.025,0.008-0.025,0.02
		c0,0.029,0.067,0.029,0.067,0.078C3.782,0.982,3.763,1,3.738,1C3.72,1,3.708,0.994,3.695,0.984V0.957
		C3.707,0.971,3.72,0.979,3.736,0.979c0.018,0,0.025-0.011,0.025-0.02c0-0.033-0.066-0.036-0.066-0.078
		c0-0.026,0.02-0.042,0.047-0.042c0.012,0,0.023,0.005,0.035,0.011L3.776,0.877L3.776,0.877L3.776,0.877z"/>
	<polygon fill="#FFFFFF" points="4,1 3.998,1 3.945,0.871 3.892,1 3.888,1 3.826,0.843 3.847,0.843 3.89,0.949 3.933,0.843 
		3.955,0.843 4,0.949 4.042,0.843 4.064,0.843 	"/>
	<rect x="4.117" y="0.843" fill="#FFFFFF" width="0.021" height="0.155"/>
	<path fill="#FFFFFF" d="M4.285,0.877C4.271,0.865,4.259,0.859,4.248,0.859c-0.016,0-0.022,0.008-0.022,0.02
		c0,0.029,0.065,0.029,0.065,0.078C4.291,0.982,4.271,1,4.248,1c-0.02,0-0.031-0.006-0.045-0.016V0.957
		c0.012,0.014,0.025,0.021,0.043,0.021c0.017,0,0.023-0.011,0.023-0.02c0-0.033-0.066-0.036-0.066-0.078
		c0-0.026,0.019-0.042,0.047-0.042c0.013,0,0.023,0.005,0.035,0.011V0.877z"/>
	<path fill="#FFFFFF" d="M4.423,0.877C4.412,0.865,4.398,0.859,4.388,0.859c-0.016,0-0.025,0.008-0.025,0.02
		c0,0.029,0.066,0.029,0.066,0.078C4.429,0.982,4.412,1,4.386,1C4.369,1,4.355,0.994,4.341,0.984V0.957
		c0.014,0.014,0.025,0.021,0.043,0.021s0.023-0.011,0.023-0.02c0-0.033-0.066-0.036-0.066-0.078c0-0.026,0.02-0.042,0.047-0.042
		c0.014,0,0.023,0.005,0.035,0.011V0.877L4.423,0.877z"/>
	<path fill="#FFFFFF" d="M4.636,0.843c0.035,0,0.051,0.021,0.051,0.045c0,0.024-0.018,0.043-0.053,0.043H4.612v0.067H4.589V0.843
		H4.636L4.636,0.843L4.636,0.843L4.636,0.843z M4.611,0.91h0.025c0.018,0,0.027-0.009,0.027-0.023c0-0.012-0.008-0.022-0.025-0.022
		H4.612L4.611,0.91L4.611,0.91z"/>
	<path fill="#FFFFFF" d="M4.783,0.843c0.031,0,0.051,0.017,0.051,0.043c0,0.019-0.008,0.03-0.024,0.039
		c0.015,0.009,0.022,0.022,0.034,0.043c0.007,0.011,0.011,0.016,0.021,0.03H4.837L4.817,0.967c-0.021-0.032-0.03-0.036-0.041-0.036
		H4.765v0.067H4.744V0.843H4.783L4.783,0.843L4.783,0.843z M4.765,0.91H4.78c0.022,0,0.03-0.012,0.03-0.025
		c0-0.016-0.01-0.024-0.03-0.024H4.765V0.91z"/>
	<polygon fill="#FFFFFF" points="5.005,0.863 4.939,0.863 4.939,0.91 5.003,0.91 5.003,0.93 4.939,0.93 4.939,0.979 5.005,0.979 
		5.005,0.998 4.917,0.998 4.917,0.843 5.005,0.843 	"/>
	<path fill="#FFFFFF" d="M5.201,0.878C5.179,0.865,5.164,0.86,5.146,0.86c-0.036,0-0.063,0.026-0.063,0.061S5.109,0.98,5.146,0.98
		c0.018,0,0.037-0.006,0.055-0.018v0.024C5.185,0.994,5.169,1,5.144,1C5.085,1,5.06,0.955,5.06,0.922
		c0-0.047,0.035-0.083,0.086-0.083c0.016,0,0.031,0.004,0.055,0.013V0.878L5.201,0.878z"/>
	<rect x="5.263" y="0.843" fill="#FFFFFF" width="0.021" height="0.155"/>
	<path fill="#FFFFFF" d="M5.429,0.877C5.417,0.865,5.405,0.859,5.394,0.859c-0.014,0-0.023,0.008-0.023,0.02
		c0,0.029,0.066,0.029,0.066,0.078C5.437,0.982,5.417,1,5.394,1c-0.02,0-0.031-0.006-0.045-0.016V0.957
		C5.362,0.971,5.375,0.979,5.39,0.979c0.02,0,0.025-0.011,0.025-0.02c0-0.033-0.066-0.036-0.066-0.078
		c0-0.026,0.02-0.042,0.047-0.042c0.012,0,0.023,0.005,0.035,0.011L5.429,0.877L5.429,0.877L5.429,0.877z"/>
	<rect x="5.498" y="0.843" fill="#FFFFFF" width="0.021" height="0.155"/>
	<path fill="#FFFFFF" d="M5.667,0.84c0.051,0,0.084,0.037,0.084,0.08C5.75,0.962,5.72,1,5.667,1C5.617,1,5.583,0.963,5.583,0.92
		S5.617,0.84,5.667,0.84 M5.667,0.98c0.035,0,0.062-0.025,0.062-0.06S5.703,0.86,5.667,0.86S5.607,0.885,5.607,0.921
		C5.607,0.955,5.632,0.98,5.667,0.98"/>
	<polygon fill="#FFFFFF" points="5.958,0.998 5.939,0.998 5.833,0.879 5.833,0.998 5.814,0.998 5.814,0.843 5.832,0.843 
		5.937,0.964 5.937,0.843 5.958,0.843 	"/>
	<rect x="3.476" y="0.886" fill="#FFFFFF" width="0.064" height="0.063"/>
</g>
</svg>
