<?xml version="1.0" encoding="utf-8"?>
<!-- Generator: Adobe Illustrator 13.0.0, SVG Export Plug-In . SVG Version: 6.00 Build 14948)  -->
<!DOCTYPE svg PUBLIC "-//W3C//DTD SVG 1.1//EN" "http://www.w3.org/Graphics/SVG/1.1/DTD/svg11.dtd">
<svg version="1.1" id="Layer_1" xmlns="http://www.w3.org/2000/svg" xmlns:xlink="http://www.w3.org/1999/xlink" x="0px" y="0px"
	 width="2.57px" height="1px" viewBox="62.494 2.553 2.57 1" enable-background="new 62.494 2.553 2.57 1" xml:space="preserve">
<g>
	<path fill="#FFFFFF" d="M0,0.005v0.014c0.042,0.021,0.072,0.044,0.086,0.07V0.9C0.068,0.923,0.047,0.942,0.022,0.955v0.021h0.271
		V0.955C0.271,0.944,0.252,0.927,0.236,0.9V0.089c0.013-0.033,0.042-0.055,0.08-0.07V0.005H0L0,0.005z"/>
	<path fill="#FFFFFF" d="M0.73,0.005H0.425v0.014c0.039,0.016,0.064,0.037,0.076,0.07l0.327,0.866c0.004,0.011,0.03,0.011,0.033,0
		l0.195-0.544c0.007-0.017,0.017-0.017,0.021,0l0.207,0.544c0.004,0.011,0.029,0.011,0.033,0l0.305-0.866
		c0.01-0.026,0.03-0.051,0.065-0.07V0.005H1.481v0.014c0.046,0.018,0.074,0.042,0.063,0.07L1.349,0.661
		c-0.006,0.016-0.017,0.016-0.021,0L1.132,0.128c-0.021-0.055,0.016-0.1,0.056-0.108V0.005H0.881v0.014
		C0.92,0.025,0.953,0.062,0.979,0.128l0.043,0.107c0.008,0.021,0.006,0.027,0,0.043L0.891,0.659c-0.006,0.014-0.019,0.012-0.021,0
		L0.685,0.126c-0.021-0.06-0.006-0.101,0.043-0.108V0.005H0.73z"/>
	<path fill="#FFFFFF" d="M2.549,0.302H2.56L2.549,0.007H2.538c-0.043,0.084-0.112,0.018-0.234,0C2.001-0.036,1.71,0.15,1.71,0.509
		c0,0.313,0.248,0.507,0.534,0.49C2.379,0.991,2.486,0.91,2.57,0.781H2.557c-0.086,0.09-0.187,0.152-0.313,0.152
		c-0.224,0-0.363-0.169-0.359-0.425c0.004-0.304,0.117-0.461,0.359-0.457C2.414,0.054,2.499,0.157,2.549,0.302L2.549,0.302z"/>
</g>
</svg>
