<?xml version="1.0" encoding="utf-8"?>
<!-- Generator: Adobe Illustrator 13.0.0, SVG Export Plug-In . SVG Version: 6.00 Build 14948)  -->
<!DOCTYPE svg PUBLIC "-//W3C//DTD SVG 1.1//EN" "http://www.w3.org/Graphics/SVG/1.1/DTD/svg11.dtd">
<svg version="1.1" id="Layer_1" xmlns="http://www.w3.org/2000/svg" xmlns:xlink="http://www.w3.org/1999/xlink" x="0px" y="0px"
	 width="4.016px" height="1px" viewBox="61.771 3.928 4.016 1" enable-background="new 61.771 3.928 4.016 1" xml:space="preserve">
<g>
	<path fill="#FFFFFF" d="M2.351,0.287C2.221,0.346,2.11,0.35,2.11,0.35V0.09h0.104L2.152,0L2.039,0.001L2.015,0.036L1.99,0.001
		L1.878,0L1.817,0.09H1.92v0.26c0,0-0.111-0.004-0.241-0.063L1.602,0.393c0,0,0.021,0.009,0.104,0.037l0.022-0.037
		c0,0,0.125,0.045,0.287,0.044c0.162,0.001,0.287-0.044,0.287-0.044L2.326,0.43c0.083-0.028,0.102-0.037,0.102-0.037L2.351,0.287z
		 M2.005,0.415C1.865,0.42,1.721,0.37,1.721,0.37L1.697,0.405C1.65,0.391,1.633,0.381,1.633,0.381l0.05-0.069
		C1.808,0.365,1.936,0.37,1.936,0.37V0.069H1.849l0.037-0.051H1.98l0.026,0.038L2.005,0.415L2.005,0.415z M2.308,0.37
		c0,0-0.143,0.05-0.284,0.045V0.057L2.05,0.02h0.093L2.18,0.07H2.093v0.301c0,0,0.127-0.005,0.253-0.059l0.051,0.07
		c0,0-0.017,0.008-0.063,0.023L2.308,0.37z"/>
	<g>
		<path fill="#FFFFFF" d="M3.928,0.696c0,0-0.039,0.021-0.103,0.097H3.788c0,0-0.012,0.004-0.012-0.01V0.687
			c0,0-0.002-0.009,0.01-0.009h0.027c0,0,0.008-0.002,0.016,0.011l0.004,0.009c0,0,0.002,0.009,0.015,0.006
			c0,0,0.011,0.002,0.007-0.011c-0.003-0.013,0-0.001,0-0.001L3.838,0.641c0,0-0.001-0.006-0.01-0.006L3.82,0.633
			c0,0-0.008,0-0.007,0.011c0,0,0.003,0.01-0.01,0.01H3.787c0,0-0.011,0.002-0.011-0.015V0.61c0,0-0.002-0.009,0.013-0.009h0.059
			c0,0,0.013-0.004,0.021,0.015l0.005,0.01c0,0,0,0.009,0.013,0.007c0,0,0.016,0.002,0.01-0.013l-0.01-0.032
			c0,0-0.001-0.008-0.01-0.008H3.711c0,0-0.01-0.002-0.01,0.01v0.006c0,0-0.003,0.004,0.01,0.008c0,0,0.012,0,0.012,0.017
			L3.72,0.779c0,0,0,0.016-0.01,0.018c0,0-0.012-0.004-0.012,0.008c0,0-0.006,0.011,0.012,0.012h0.08c0,0,0.014-0.001,0.007,0.009
			c0,0-0.028,0.046-0.083,0.079c0,0-0.035,0.021-0.099,0.022h-3.24c0,0-0.069,0.007-0.104-0.029L0.216,0.838
			c0,0-0.004-0.007,0.003-0.01c0,0,0.067-0.013,0.09-0.058c0.024-0.046,0.027-0.078,0.027-0.11V0.51c0,0-0.002-0.011,0.011-0.011
			h0.014c0,0,0.007,0.003,0.007-0.011V0.482c0,0,0.005-0.01-0.009-0.01H0.243c0,0-0.011-0.002-0.011,0.009v0.007
			c0,0-0.003,0.01,0.012,0.01h0.009c0,0,0.015-0.002,0.015,0.018v0.182c0,0,0.007,0.095-0.078,0.107c0,0-0.056-0.082-0.091-0.102
			c0,0-0.048-0.037-0.087-0.003c0,0-0.037,0.043,0.021,0.092c0,0,0.059,0.046,0.15,0.044c0,0,0.049,0.074,0.062,0.086
			c0,0,0.035,0.045,0.064,0.058C0.34,0.992,0.345,1,0.45,1h3.103c0,0,0.08,0.005,0.125-0.021c0,0,0.037-0.017,0.077-0.063
			l0.082-0.098c0,0,0.083,0.002,0.129-0.027c0,0,0.046-0.023,0.049-0.062C4.019,0.69,3.983,0.67,3.928,0.696z M0.096,0.797
			C0.06,0.781,0.07,0.756,0.07,0.756c0.01-0.018,0.032-0.005,0.032-0.005c0.029,0.013,0.063,0.061,0.063,0.061
			C0.123,0.816,0.096,0.797,0.096,0.797z M3.928,0.779C3.904,0.797,3.853,0.793,3.853,0.793c0.008-0.015,0.04-0.045,0.04-0.045
			C3.92,0.727,3.937,0.736,3.937,0.736C3.963,0.76,3.928,0.779,3.928,0.779z"/>
		<path fill="#FFFFFF" d="M0.602,0.803c0,0,0-0.006-0.009-0.008c0,0-0.011,0-0.017-0.017l-0.064-0.19c0,0,0-0.009-0.01-0.009H0.451
			c0,0-0.01,0-0.014,0.011L0.366,0.781c0,0,0,0.014-0.022,0.012c0,0-0.01,0.002-0.008,0.01v0.008c0,0-0.001,0.007,0.01,0.007h0.063
			c0,0,0.009,0.001,0.01-0.006V0.805c0,0,0.002-0.008-0.007-0.01c0,0-0.019-0.002-0.013-0.017l0.01-0.021H0.51L0.519,0.78
			c0,0,0.004,0.012-0.004,0.014c0,0-0.012,0-0.012,0.008v0.009c0,0-0.004,0.008,0.012,0.008h0.08c0,0,0.009,0.003,0.009-0.007
			L0.602,0.803z M0.491,0.73H0.428c-0.016,0-0.007-0.016-0.007-0.016l0.034-0.088c0.007-0.013,0.013,0,0.013,0l0.028,0.086
			C0.502,0.735,0.491,0.73,0.491,0.73z"/>
		<path fill="#FFFFFF" d="M2.097,0.792H2.059c0,0-0.01,0.003-0.01-0.01V0.686c0,0-0.001-0.01,0.009-0.01h0.029
			c0,0,0.008,0,0.014,0.013l0.004,0.008c0,0,0.002,0.01,0.016,0.007c0,0,0.011,0.001,0.007-0.011c-0.003-0.013,0-0.002,0-0.002
			L2.11,0.641c0,0-0.001-0.006-0.009-0.006H2.093c0,0-0.008-0.002-0.007,0.009c0,0,0.002,0.011-0.01,0.011H2.059
			c0,0-0.009,0.002-0.009-0.014V0.61c0,0-0.001-0.008,0.011-0.008h0.06c0,0,0.014-0.005,0.021,0.015l0.005,0.01
			c0,0,0,0.01,0.016,0.008c0,0,0.014,0,0.01-0.013L2.159,0.59c0,0,0-0.008-0.012-0.008H1.982c0,0-0.01-0.002-0.01,0.008v0.006
			c0,0-0.001,0.004,0.01,0.008c0,0,0.015,0.001,0.015,0.018L1.99,0.779c0,0,0,0.016-0.01,0.018c0,0-0.011-0.002-0.011,0.01
			c0,0-0.004,0.01,0.011,0.01h0.08H2.15c0,0,0.007,0.002,0.012-0.005l0.014-0.034c0,0,0.005-0.012-0.006-0.012H2.157
			c0,0-0.007-0.002-0.01,0.006l-0.005,0.01c0,0-0.001,0.01-0.017,0.01H2.097L2.097,0.792L2.097,0.792L2.097,0.792z"/>
		<path fill="#FFFFFF" d="M0.754,0.792H0.716c0,0-0.01,0.003-0.01-0.01V0.686c0,0-0.002-0.01,0.008-0.01h0.029
			c0,0,0.008,0,0.014,0.013l0.004,0.008c0,0,0.002,0.01,0.014,0.007c0,0,0.013,0.001,0.009-0.011c-0.004-0.013,0-0.002,0-0.002
			l-0.018-0.05c0,0-0.001-0.006-0.009-0.006H0.749c0,0-0.009-0.002-0.007,0.009c0,0,0.003,0.011-0.011,0.011H0.716
			c0,0-0.009,0.002-0.009-0.014V0.61c0,0-0.002-0.008,0.01-0.008h0.059c0,0,0.016-0.005,0.022,0.015l0.004,0.01
			c0,0,0,0.01,0.014,0.008c0,0,0.016,0,0.012-0.013L0.816,0.59c0,0,0-0.008-0.01-0.008H0.639c0,0-0.01-0.002-0.01,0.008v0.006
			c0,0-0.001,0.004,0.01,0.008c0,0,0.012,0.001,0.012,0.018L0.65,0.779c0,0,0,0.016-0.01,0.018c0,0-0.01-0.002-0.011,0.01
			c0,0-0.004,0.01,0.011,0.011h0.081h0.088c0,0,0.006,0.002,0.01-0.005l0.014-0.035c0,0,0.005-0.01-0.005-0.01H0.815
			c0,0-0.006-0.002-0.008,0.005L0.8,0.782c0,0-0.001,0.01-0.019,0.01H0.754L0.754,0.792L0.754,0.792z"/>
		<path fill="#FFFFFF" d="M1.233,0.795H1.195c0,0-0.01,0.002-0.01-0.011V0.688c0,0-0.001-0.01,0.008-0.01h0.029
			c0,0,0.008,0,0.015,0.013L1.24,0.698c0,0,0.002,0.01,0.015,0.007c0,0,0.011,0.001,0.008-0.011c-0.003-0.013,0-0.002,0-0.002
			l-0.016-0.05c0,0-0.001-0.008-0.012-0.008H1.228c0,0-0.008,0-0.006,0.01c0,0,0.002,0.011-0.009,0.011H1.196
			c0,0-0.009,0.002-0.009-0.015V0.612c0,0-0.001-0.009,0.01-0.009h0.061c0,0,0.014-0.004,0.021,0.015l0.005,0.011
			c0,0,0,0.01,0.014,0.006c0,0,0.015,0.002,0.011-0.012L1.295,0.59c0,0-0.001-0.007-0.01-0.007H1.118c0,0-0.012-0.002-0.012,0.009
			v0.004c0,0-0.001,0.006,0.012,0.009c0,0,0.012,0,0.012,0.017L1.129,0.78c0,0,0,0.015-0.01,0.019c0,0-0.013-0.004-0.013,0.008
			c0,0-0.004,0.011,0.013,0.011h0.08h0.089c0,0,0.006,0.002,0.01-0.005L1.312,0.78c0,0,0.005-0.011-0.006-0.011H1.295
			c0,0-0.005-0.003-0.008,0.005L1.28,0.784c0,0-0.001,0.009-0.017,0.011H1.233L1.233,0.795L1.233,0.795z"/>
		<path fill="#FFFFFF" d="M0.964,0.575c0,0-0.108,0-0.116,0.121C0.84,0.818,0.959,0.82,0.959,0.82S1,0.825,1.052,0.79
			c0,0,0.008-0.006,0.008-0.017L1.062,0.75c0,0-0.005-0.019,0.017-0.019c0,0,0.007,0,0.008-0.009V0.719c0,0,0-0.008-0.013-0.008
			H0.987c0,0-0.01-0.001-0.01,0.006v0.006c0,0,0,0.009,0.01,0.009c0,0,0.021-0.001,0.021,0.019c0,0,0.004,0.051-0.047,0.051
			c-0.054,0-0.052-0.05-0.054-0.112C0.906,0.625,0.926,0.596,0.969,0.596c0.042,0,0.057,0.035,0.063,0.043
			c0,0,0.003,0.008,0.014,0.007l0.011-0.005c0,0,0.007,0.002,0.004-0.008L1.044,0.588c0,0,0-0.01-0.008-0.008
			c0,0-0.007,0-0.01,0.005c0,0,0.002,0.013-0.019,0.005C1.008,0.588,0.99,0.575,0.964,0.575z"/>
		<path fill="#FFFFFF" d="M1.601,0.805c0,0,0.001-0.006-0.01-0.008H1.587c0,0-0.016,0.002-0.026-0.019c0,0-0.031-0.06-0.051-0.073
			c0,0-0.006-0.004,0-0.007c0,0,0.026-0.004,0.042-0.021c0,0,0.018-0.006,0.018-0.043c0,0,0.005-0.054-0.072-0.055H1.353l0,0l0,0
			c0,0-0.01-0.002-0.01,0.008v0.006c0,0-0.001,0.004,0.01,0.008c0,0,0.014,0.001,0.014,0.017L1.365,0.777
			c0,0,0.001,0.018-0.013,0.018c0,0-0.011,0-0.01,0.01c0,0-0.004,0.013,0.011,0.013h0.077c0,0,0.012,0.002,0.012-0.005v-0.01
			c0,0,0-0.006-0.011-0.006C1.429,0.795,1.421,0.792,1.42,0.782V0.717c0,0-0.002-0.01,0.009-0.01l0,0h0.015
			c0,0,0.021-0.001,0.031,0.02L1.51,0.791c0,0,0.012,0.027,0.04,0.027h0.045c0,0,0.007,0.002,0.007-0.008L1.601,0.805z M1.471,0.686
			L1.43,0.685l0,0l0,0H1.429l0,0c-0.002,0-0.008-0.001-0.008-0.015V0.609c0,0-0.001-0.008,0.01-0.008l0.047,0.001
			c0,0,0.038,0,0.039,0.036C1.517,0.674,1.498,0.686,1.471,0.686z"/>
		<path fill="#FFFFFF" d="M3.687,0.805c0,0,0-0.006-0.01-0.008H3.673c0,0-0.014,0.002-0.026-0.019c0,0-0.03-0.06-0.051-0.073
			c0,0-0.007-0.004,0-0.007c0,0,0.026-0.004,0.042-0.021c0,0,0.019-0.006,0.019-0.043c0,0,0.005-0.054-0.073-0.055H3.438l0,0l0,0
			c0,0-0.01-0.002-0.01,0.008v0.006c0,0-0.002,0.004,0.01,0.008c0,0,0.015,0.001,0.015,0.017l-0.001,0.16
			c0,0,0.001,0.017-0.015,0.019c0,0-0.011-0.002-0.011,0.01c0,0-0.004,0.012,0.012,0.012h0.078c0,0,0.012,0.002,0.013-0.005
			L3.528,0.805c0,0,0.001-0.008-0.011-0.008c-0.003,0-0.011-0.004-0.012-0.014V0.717c0,0-0.001-0.01,0.009-0.01l0,0H3.53
			c0,0,0.021-0.001,0.03,0.02l0.035,0.064c0,0,0.012,0.027,0.04,0.027H3.68c0,0,0.007,0.002,0.007-0.008V0.805z M3.556,0.686
			L3.515,0.685l0,0l0,0H3.514l0,0c-0.003,0-0.008-0.001-0.008-0.015V0.609c0,0-0.002-0.008,0.011-0.008l0.047,0.001
			c0,0,0.038,0,0.038,0.036C3.602,0.674,3.585,0.686,3.556,0.686z"/>
		<path fill="#FFFFFF" d="M1.718,0.717c0.005,0,0.01-0.004,0.01-0.009v-0.02c0-0.007-0.004-0.011-0.01-0.011H1.627
			c-0.005,0-0.011,0.004-0.011,0.011v0.02c0,0.005,0.005,0.009,0.011,0.009H1.718z"/>
		<path fill="#FFFFFF" d="M1.77,0.579c0,0-0.007,0-0.007,0.006v0.007c0,0-0.001,0.01,0.01,0.008c0,0,0.021-0.002,0.021,0.017V0.78
			c0,0,0.001,0.012-0.015,0.012c0,0-0.01,0-0.01,0.007v0.01c0,0,0,0.009,0.007,0.009h0.151c0,0,0.005,0.002,0.011-0.011l0.017-0.032
			c0,0,0.004-0.009-0.006-0.009H1.937c0,0-0.006,0-0.008,0.005L1.924,0.78c0,0-0.005,0.013-0.021,0.011H1.859
			c0,0-0.013,0.001-0.014-0.011V0.616c0,0-0.001-0.015,0.012-0.015h0.006c0,0,0.008,0,0.008-0.008V0.586c0,0,0.001-0.007-0.01-0.007
			H1.77L1.77,0.579z"/>
		<path fill="#FFFFFF" d="M3.034,0.579c0,0-0.009,0-0.009,0.006v0.007c0,0-0.001,0.01,0.012,0.008c0,0,0.018-0.002,0.018,0.017V0.78
			c0,0,0.002,0.012-0.012,0.012c0,0-0.011,0-0.012,0.007v0.01c0,0,0,0.009,0.009,0.009h0.15c0,0,0.005,0.002,0.013-0.011
			l0.016-0.032c0,0,0.003-0.009-0.006-0.009H3.202c0,0-0.008,0-0.01,0.005L3.188,0.78c0,0-0.007,0.013-0.021,0.011H3.123
			c0,0-0.016,0.001-0.016-0.011V0.616c0,0-0.002-0.015,0.014-0.015h0.006c0,0,0.006,0,0.006-0.008V0.586
			c0,0,0.002-0.007-0.008-0.007H3.034L3.034,0.579z"/>
		<path fill="#FFFFFF" d="M2.348,0.471c0,0-0.149-0.008-0.152,0.177c0,0-0.007,0.161,0.148,0.169c0,0,0.036,0.001,0.068-0.02
			c0,0,0.01-0.004,0.013,0.004c0,0,0.001,0.012,0.014,0.011c0,0,0.014,0,0.015-0.011l0.021-0.063c0,0,0.003-0.01-0.005-0.01H2.46
			c0,0-0.007,0-0.011,0.007c0,0-0.012,0.025-0.024,0.036c0,0-0.021,0.024-0.069,0.022c0,0-0.09,0.002-0.086-0.146
			c0,0-0.008-0.153,0.089-0.153c0,0,0.048-0.003,0.081,0.047c0,0,0.003,0.01,0.016,0.01h0.01c0,0,0.007,0,0.004-0.013L2.453,0.48
			c0,0-0.001-0.008-0.01-0.008h-0.01c0,0-0.005,0.002-0.004,0.009c0,0,0.001,0.007-0.002,0.01c0,0-0.002,0.004-0.011,0
			C2.417,0.49,2.389,0.473,2.348,0.471z"/>
		<g>
			<path fill="#FFFFFF" d="M2.56,0.743L2.56,0.743L2.56,0.743z"/>
			<path fill="#FFFFFF" d="M2.734,0.695C2.732,0.576,2.616,0.576,2.616,0.576s-0.115,0-0.118,0.119c0,0-0.001,0.117,0.118,0.122
				C2.736,0.813,2.734,0.695,2.734,0.695z M2.673,0.745c-0.011,0.06-0.057,0.05-0.057,0.05s-0.046,0.01-0.057-0.05
				c-0.01-0.055-0.001-0.008,0-0.002c-0.001-0.006-0.009-0.054,0.003-0.11c0,0,0.011-0.037,0.054-0.037
				c0.044,0,0.054,0.037,0.054,0.037c0.013,0.057,0.005,0.104,0.003,0.11C2.674,0.737,2.681,0.69,2.673,0.745z"/>
			<path fill="#FFFFFF" d="M2.673,0.743L2.673,0.743L2.673,0.743z"/>
		</g>
		<path fill="#FFFFFF" d="M2.767,0.579c0,0-0.008,0-0.008,0.006v0.007c0,0-0.001,0.008,0.01,0.008l0.005-0.002
			c0,0,0.013,0,0.013,0.017v0.12c0,0,0.004,0.083,0.098,0.083c0,0,0.096,0.005,0.093-0.086V0.613c0,0-0.003-0.014,0.013-0.016h0.006
			c0,0,0.005,0,0.005-0.006V0.586c0,0,0.002-0.007-0.006-0.007h-0.06c0,0-0.008,0-0.008,0.006V0.59c0,0-0.002,0.01,0.008,0.01
			c0,0,0.018-0.002,0.018,0.018v0.117c0,0,0.006,0.063-0.051,0.063c0,0-0.062,0.01-0.062-0.065V0.612c0,0,0.001-0.013,0.014-0.013
			h0.003c0,0,0.006,0,0.006-0.008V0.586c0,0,0.003-0.007-0.005-0.007H2.767L2.767,0.579z"/>
		<path fill="#FFFFFF" d="M3.203,0.579c0,0-0.009,0-0.012,0.006L3.177,0.621c0,0-0.004,0.008,0.005,0.008h0.012
			c0,0,0.005,0.002,0.011-0.007l0.008-0.016c0,0,0.004-0.007,0.012-0.005h0.033c0,0,0.011-0.002,0.011,0.012v0.17
			c0,0,0.002,0.012-0.005,0.014h-0.01c0,0-0.005,0-0.005,0.006v0.009c0,0-0.002,0.006,0.007,0.006h0.087
			c0,0,0.006,0.001,0.006-0.006V0.805c0,0,0.002-0.008-0.005-0.008h-0.01c0,0-0.013,0.002-0.012-0.017V0.613
			c0,0-0.004-0.014,0.012-0.014h0.032c0,0,0.007-0.002,0.012,0.008l0.009,0.014c0,0,0.004,0.008,0.011,0.008h0.012
			c0,0,0.009,0,0.005-0.01L3.396,0.583c0,0-0.001-0.005-0.012-0.005L3.203,0.579L3.203,0.579z"/>
	</g>
</g>
</svg>
