<?xml version="1.0" encoding="utf-8"?>
<!-- Generator: Adobe Illustrator 13.0.0, SVG Export Plug-In . SVG Version: 6.00 Build 14948)  -->
<!DOCTYPE svg PUBLIC "-//W3C//DTD SVG 1.1//EN" "http://www.w3.org/Graphics/SVG/1.1/DTD/svg11.dtd">
<svg version="1.1" id="Layer_1" xmlns="http://www.w3.org/2000/svg" xmlns:xlink="http://www.w3.org/1999/xlink" x="0px" y="0px"
	 width="1.73px" height="1px" viewBox="62.914 1.135 1.73 1" enable-background="new 62.914 1.135 1.73 1" xml:space="preserve">
<g>
	<polygon fill="#FFFFFF" points="0.269,0.991 0.269,0.654 0.367,0.654 0.367,0.909 0.439,0.909 0.439,0.991 	"/>
	<polygon fill="#FFFFFF" points="0.445,0.991 0.582,0.654 0.621,0.654 0.757,0.991 0.657,0.991 0.6,0.85 0.54,0.991 	"/>
	<polygon fill="#FFFFFF" points="0.765,0.991 0.765,0.654 0.798,0.654 0.958,0.805 0.958,0.654 1.05,0.654 1.05,0.991 1.02,0.991 
		0.857,0.84 0.857,0.991 	"/>
	<path fill="#FFFFFF" d="M1.331,0.909v0.079C1.311,0.995,1.29,1,1.269,1C1.162,1,1.075,0.93,1.075,0.82
		c0-0.051,0.024-0.1,0.063-0.132c0.035-0.03,0.086-0.042,0.133-0.042c0.02,0,0.04,0.003,0.059,0.009l-0.01,0.08
		C1.307,0.731,1.292,0.729,1.279,0.729c-0.061,0-0.112,0.031-0.112,0.095c0,0.063,0.052,0.095,0.112,0.095
		C1.296,0.918,1.314,0.915,1.331,0.909"/>
	<polygon fill="#FFFFFF" points="-0.001,0.594 -0.001,0.256 0.034,0.256 0.183,0.438 0.33,0.256 0.365,0.256 0.365,0.594 
		0.269,0.594 0.269,0.475 0.183,0.582 0.095,0.475 0.095,0.594 	"/>
	<polygon fill="#FFFFFF" points="0.765,0.594 0.765,0.256 0.799,0.256 0.958,0.407 0.958,0.256 1.05,0.256 1.05,0.594 1.02,0.594 
		0.857,0.44 0.857,0.594 	"/>
	<polygon fill="#FFFFFF" points="1.166,0.594 1.166,0.346 1.083,0.346 1.083,0.256 1.34,0.256 1.34,0.346 1.255,0.346 1.255,0.594 	
		"/>
	<path fill="#FFFFFF" d="M-0.001,0.991V0.654h0.145c0.052,0,0.101,0.034,0.101,0.09c0,0.032-0.013,0.053-0.036,0.072
		c0.024,0.021,0.044,0.045,0.044,0.079c0,0.026-0.013,0.052-0.034,0.069C0.19,0.989,0.154,0.992,0.116,0.992L-0.001,0.991
		L-0.001,0.991z M0.099,0.728V0.78h0.027c0.016,0,0.03-0.01,0.03-0.026c0-0.016-0.016-0.025-0.03-0.025L0.099,0.728L0.099,0.728z
		 M0.099,0.854V0.91h0.027c0.018,0,0.031-0.012,0.031-0.027c0-0.017-0.015-0.028-0.031-0.028L0.099,0.854L0.099,0.854z"/>
	<path fill="#FFFFFF" d="M0.569,0.243c0.095,0,0.166,0.087,0.166,0.179c0,0.092-0.071,0.178-0.166,0.178S0.403,0.514,0.403,0.422
		C0.403,0.33,0.473,0.243,0.569,0.243 M0.567,0.329c-0.049,0-0.08,0.049-0.08,0.095c0,0.045,0.031,0.094,0.08,0.094
		s0.08-0.049,0.08-0.094C0.647,0.378,0.615,0.329,0.567,0.329"/>
	<path fill="#FFFFFF" d="M1.547,0C1.648,0,1.73,0.081,1.73,0.182c0,0.102-0.082,0.183-0.185,0.183c-0.102,0-0.181-0.082-0.181-0.183
		S1.447,0,1.547,0 M1.547,0.021c-0.09,0-0.162,0.071-0.162,0.161c0,0.091,0.072,0.162,0.162,0.162c0.091,0,0.164-0.071,0.164-0.162
		C1.711,0.092,1.635,0.021,1.547,0.021"/>
	<path fill="#FFFFFF" d="M1.677,0.106C1.66,0.075,1.621,0.094,1.605,0.083C1.59,0.074,1.584,0.03,1.547,0.03
		c-0.034,0-0.039,0.043-0.057,0.053C1.474,0.094,1.435,0.074,1.418,0.105c-0.02,0.031,0.019,0.05,0.019,0.076
		c0,0.025-0.035,0.043-0.019,0.074C1.435,0.288,1.474,0.27,1.49,0.278c0.018,0.01,0.02,0.053,0.057,0.053S1.59,0.286,1.605,0.278
		C1.619,0.27,1.66,0.288,1.677,0.256C1.697,0.225,1.66,0.201,1.66,0.182C1.66,0.156,1.697,0.139,1.677,0.106"/>
</g>
</svg>
