<?xml version="1.0" encoding="utf-8"?>
<!-- Generator: Adobe Illustrator 13.0.0, SVG Export Plug-In . SVG Version: 6.00 Build 14948)  -->
<!DOCTYPE svg PUBLIC "-//W3C//DTD SVG 1.1//EN" "http://www.w3.org/Graphics/SVG/1.1/DTD/svg11.dtd">
<svg version="1.1" id="Layer_1" xmlns="http://www.w3.org/2000/svg" xmlns:xlink="http://www.w3.org/1999/xlink" x="0px" y="0px"
	 width="2px" height="1px" viewBox="62.779 1.138 2 1" enable-background="new 62.779 1.138 2 1" xml:space="preserve">
<g id="Omega_3_">
	<polygon fill="#FFFFFF" points="0.656,0.875 0.533,0.594 0.419,0.99 0.474,0.99 0.543,0.742 0.656,0.999 0.767,0.742 0.836,0.99 
		0.891,0.99 0.776,0.594 	"/>
	<path fill="#FFFFFF" d="M0.205,0.594L0.205,0.594c-0.061,0-0.108,0.021-0.148,0.063C0.019,0.696,0,0.743,0,0.798
		c0,0.054,0.019,0.1,0.055,0.14c0.04,0.042,0.089,0.063,0.148,0.063l0,0c0.059,0,0.106-0.021,0.146-0.063
		c0.038-0.04,0.057-0.087,0.057-0.142c0-0.055-0.019-0.103-0.057-0.143C0.31,0.613,0.263,0.594,0.205,0.594L0.205,0.594L0.205,0.594
		L0.205,0.594z M0.309,0.906C0.282,0.935,0.246,0.95,0.204,0.95l0,0c-0.043,0-0.078-0.015-0.105-0.044
		c-0.027-0.03-0.041-0.066-0.041-0.11c0-0.043,0.014-0.08,0.041-0.108c0.027-0.03,0.063-0.044,0.105-0.044l0,0
		c0.043,0,0.078,0.014,0.105,0.044c0.028,0.029,0.042,0.065,0.042,0.108C0.351,0.842,0.336,0.876,0.309,0.906L0.309,0.906
		L0.309,0.906L0.309,0.906z"/>
	<path fill="#FFFFFF" d="M0.934,0.5V0.477l0,0C0.895,0.452,0.863,0.421,0.835,0.381C0.791,0.296,0.779,0.212,0.838,0.126
		C0.949,0.001,1.026,0.051,1.1,0.123C1.147,0.191,1.15,0.26,1.131,0.328c-0.02,0.068-0.053,0.118-0.102,0.149
		c0,0.009,0,0.015,0,0.024c0.063,0,0.142,0,0.205,0l0,0l0.033-0.078l0,0c-0.002-0.017-0.01-0.014-0.025-0.014l0,0L1.217,0.444l0,0
		c-0.02,0-0.04,0-0.061,0c0.019-0.026,0.037-0.052,0.053-0.078C1.233,0.303,1.244,0.237,1.22,0.165
		c-0.048-0.159-0.249-0.2-0.375-0.138C0.767,0.065,0.708,0.141,0.711,0.243c0.002,0.077,0.04,0.145,0.093,0.201
		c-0.012,0-0.035,0-0.046,0l0,0L0.717,0.409l0,0C0.705,0.405,0.695,0.411,0.692,0.424l0,0L0.738,0.5l0,0
		C0.803,0.5,0.869,0.5,0.934,0.5L0.934,0.5L0.934,0.5L0.934,0.5z"/>
	<path fill="#FFFFFF" d="M1.813,0.594L1.813,0.594L1.627,0.99h0.059l0.051-0.104h0.078h0.078L1.939,0.99H2L1.813,0.594L1.813,0.594
		L1.813,0.594z M1.813,0.835h-0.06l0.06-0.119h0.002l0.061,0.119H1.813L1.813,0.835L1.813,0.835z"/>
	<polygon fill="#FFFFFF" points="0.933,0.99 1.164,0.99 1.164,0.941 0.986,0.941 0.986,0.805 1.164,0.805 1.164,0.756 0.986,0.756 
		0.986,0.649 1.164,0.649 1.164,0.601 0.933,0.601 	"/>
	<path fill="#FFFFFF" d="M1.412,0.833h0.139l0,0c-0.004,0.033-0.018,0.06-0.042,0.082C1.484,0.938,1.455,0.948,1.417,0.948
		c-0.043,0-0.078-0.015-0.105-0.044C1.284,0.874,1.27,0.838,1.27,0.795s0.014-0.078,0.041-0.109s0.063-0.045,0.106-0.045
		c0.023,0,0.042,0.004,0.059,0.012C1.494,0.66,1.509,0.671,1.523,0.687l0,0l0.039-0.033l0,0c-0.02-0.021-0.041-0.036-0.064-0.046
		c-0.023-0.01-0.049-0.014-0.079-0.014c-0.06,0-0.108,0.021-0.148,0.063c-0.038,0.04-0.057,0.087-0.057,0.142
		c0,0.047,0.015,0.09,0.045,0.129c0.038,0.05,0.092,0.074,0.16,0.074c0.067,0,0.119-0.024,0.151-0.074
		c0.025-0.039,0.039-0.086,0.039-0.14l0,0H1.431L1.412,0.833L1.412,0.833L1.412,0.833z"/>
</g>
</svg>
