<?xml version="1.0" encoding="utf-8"?>
<!-- Generator: Adobe Illustrator 13.0.0, SVG Export Plug-In . SVG Version: 6.00 Build 14948)  -->
<!DOCTYPE svg PUBLIC "-//W3C//DTD SVG 1.1//EN" "http://www.w3.org/Graphics/SVG/1.1/DTD/svg11.dtd">
<svg version="1.1" id="Layer_1" xmlns="http://www.w3.org/2000/svg" xmlns:xlink="http://www.w3.org/1999/xlink" x="0px" y="0px"
	 width="9.219px" height="1px" viewBox="59.17 8.265 9.219 1" enable-background="new 59.17 8.265 9.219 1" xml:space="preserve">
<g id="panerai_4_">
	<g>
		<g>
			<path fill="#FFFFFF" d="M0.66,0H0v1h0.201V0.59h0.458C0.807,0.592,0.92,0.565,1,0.512c0.08-0.051,0.117-0.125,0.117-0.217
				C1.117,0.202,1.08,0.129,1,0.076C0.922,0.024,0.807,0,0.66,0z M0.201,0.111h0.39c0.22,0,0.328,0.059,0.328,0.186
				c0,0.121-0.108,0.182-0.328,0.182h-0.39V0.111z"/>
		</g>
		<g>
			<path fill="#FFFFFF" d="M1.975,0h-0.22L1.169,1h0.205l0.17-0.301h0.634L2.344,1h0.219L1.975,0z M1.859,0.117h0.005l0.249,0.469
				H1.607L1.859,0.117z"/>
		</g>
		<g>
			<path fill="#FFFFFF" d="M3.036,0.195h0.005L3.824,1h0.218V0H3.854v0.81H3.85L3.059,0H2.848v1h0.188V0.195L3.036,0.195z"/>
		</g>
		<g>
			<path fill="#FFFFFF" d="M5.54,0.111V0H4.505v1h1.042V0.887H4.706V0.541h0.778V0.43H4.706V0.111H5.54z"/>
		</g>
		<g>
			<path fill="#FFFFFF" d="M7.029,0.42c0.039-0.043,0.062-0.096,0.062-0.158c0-0.08-0.042-0.145-0.12-0.19
				C6.887,0.021,6.775,0,6.635,0H5.93v1h0.199V0.571h0.486c0.089,0,0.15,0.019,0.189,0.054c0.026,0.023,0.049,0.066,0.062,0.127
				c0.007,0.021,0.011,0.071,0.019,0.145C6.887,0.949,6.9,0.982,6.919,1h0.226C7.107,0.969,7.084,0.928,7.075,0.871L7.057,0.724
				c-0.01-0.061-0.027-0.103-0.055-0.132C6.971,0.551,6.91,0.527,6.83,0.518V0.515C6.918,0.498,6.982,0.467,7.029,0.42z
				 M6.626,0.111c0.087,0,0.155,0.016,0.203,0.048c0.042,0.029,0.062,0.069,0.062,0.12c0,0.121-0.115,0.178-0.344,0.178H6.129V0.111
				H6.626z"/>
		</g>
		<g>
			<path fill="#FFFFFF" d="M8.139,0H7.917L7.332,1h0.204l0.169-0.301h0.633L8.503,1h0.22L8.139,0z M8.021,0.117h0.004l0.25,0.469
				H7.768L8.021,0.117z"/>
		</g>
		<g>
			<path fill="#FFFFFF" d="M9.219,0H9.02v1h0.199V0z"/>
		</g>
	</g>
</g>
</svg>
