<?xml version="1.0" encoding="utf-8"?>
<!-- Generator: Adobe Illustrator 13.0.0, SVG Export Plug-In . SVG Version: 6.00 Build 14948)  -->
<!DOCTYPE svg PUBLIC "-//W3C//DTD SVG 1.1//EN" "http://www.w3.org/Graphics/SVG/1.1/DTD/svg11.dtd">
<svg version="1.1" id="Layer_1" xmlns="http://www.w3.org/2000/svg" xmlns:xlink="http://www.w3.org/1999/xlink" x="0px" y="0px"
	 width="2.063px" height="1px" viewBox="62.748 1.135 2.063 1" enable-background="new 62.748 1.135 2.063 1" xml:space="preserve">
<g id="Patek_Philippe_3_">
	<path fill="#FFFFFF" d="M0,0.709v-0.24h0.083c0.013,0,0.022,0.002,0.035,0.009c0.01,0.006,0.02,0.014,0.023,0.022
		c0.007,0.012,0.01,0.022,0.01,0.035c0,0.012-0.003,0.023-0.01,0.034c-0.004,0.009-0.01,0.019-0.02,0.023
		C0.117,0.596,0.113,0.6,0.106,0.6C0.099,0.602,0.091,0.604,0.085,0.604H0.028v0.104L0,0.709L0,0.709z M0.029,0.579h0.058
		c0.008,0,0.014-0.003,0.021-0.006c0.006-0.005,0.013-0.009,0.018-0.02c0.003-0.006,0.004-0.013,0.004-0.021
		c-0.003-0.007-0.005-0.012-0.01-0.019C0.115,0.506,0.11,0.501,0.104,0.498C0.099,0.495,0.093,0.493,0.086,0.493
		C0.085,0.492,0.083,0.492,0.081,0.492h-0.05L0.029,0.579L0.029,0.579z"/>
	<path fill="#FFFFFF" d="M0.117,0.709l0.095-0.242h0.023l0.103,0.242H0.304L0.281,0.647H0.172L0.148,0.709H0.117L0.117,0.709z
		 M0.183,0.622H0.27l-0.045-0.11L0.183,0.622L0.183,0.622z"/>
	<polygon fill="#FFFFFF" points="0.359,0.709 0.359,0.496 0.287,0.494 0.287,0.467 0.464,0.467 0.462,0.493 0.389,0.494 
		0.389,0.709 	"/>
	<polygon fill="#FFFFFF" points="0.483,0.709 0.483,0.467 0.62,0.467 0.604,0.493 0.513,0.493 0.513,0.571 0.599,0.571 0.599,0.598 
		0.513,0.598 0.513,0.684 0.606,0.684 0.621,0.709 	"/>
	<path fill="#FFFFFF" d="M0.658,0.92V0.901h0.078v0.063c-0.005,0.006-0.01,0.01-0.015,0.015s-0.012,0.01-0.02,0.013
		C0.696,0.995,0.688,0.996,0.68,0.998C0.674,1,0.666,1,0.658,1c-0.013-0.002-0.021-0.005-0.03-0.008
		C0.622,0.989,0.617,0.985,0.612,0.98C0.606,0.977,0.601,0.969,0.597,0.963C0.589,0.952,0.584,0.939,0.583,0.926L0.582,0.911
		c-0.001-0.01-0.001-0.021,0-0.03C0.585,0.865,0.59,0.852,0.598,0.838c0.008-0.01,0.02-0.019,0.029-0.024
		C0.63,0.812,0.633,0.811,0.638,0.809c0.008-0.004,0.016-0.004,0.025-0.006c0.009,0,0.021,0.002,0.028,0.006
		c0.011,0.003,0.021,0.009,0.027,0.016C0.722,0.828,0.724,0.83,0.725,0.833L0.734,0.84L0.72,0.852L0.715,0.848
		C0.709,0.84,0.701,0.834,0.691,0.829C0.687,0.828,0.682,0.826,0.677,0.824c-0.005,0-0.009,0-0.014,0
		c-0.011,0-0.021,0.003-0.029,0.008C0.631,0.835,0.626,0.84,0.623,0.842C0.62,0.848,0.616,0.853,0.615,0.856
		C0.612,0.862,0.608,0.869,0.607,0.875l-0.001,0.01v0.012c0,0.005,0,0.008,0,0.013l0.001,0.01L0.61,0.932
		C0.611,0.939,0.613,0.943,0.617,0.95c0.005,0.006,0.01,0.014,0.016,0.02c0.006,0.002,0.011,0.006,0.019,0.008
		c0.01,0.003,0.018,0.003,0.024,0.001c0.008,0,0.016-0.003,0.021-0.009c0.006,0,0.01-0.004,0.013-0.006l0.004-0.005V0.92H0.658
		L0.658,0.92z"/>
	<polygon fill="#FFFFFF" points="0.64,0.709 0.64,0.467 0.671,0.467 0.671,0.575 0.768,0.467 0.806,0.467 0.731,0.551 0.814,0.709 
		0.777,0.709 0.71,0.575 0.671,0.62 0.671,0.709 	"/>
	<polygon fill="#FFFFFF" points="0.764,0.997 0.764,0.809 0.871,0.809 0.86,0.83 0.79,0.83 0.79,0.889 0.855,0.889 0.855,0.909 
		0.79,0.909 0.79,0.977 0.86,0.977 0.871,0.997 	"/>
	<polygon fill="#FFFFFF" points="1.049,0.328 1.046,0.328 1.044,0.329 1.043,0.332 1.043,0.334 1.043,0.338 1.043,0.338 1.044,0.34 
		1.044,0.344 1.046,0.346 1.048,0.348 1.048,0.35 1.049,0.354 1.049,0.355 1.051,0.357 1.051,0.359 1.051,0.362 1.052,0.362 
		1.052,0.366 1.052,0.367 1.051,0.37 1.051,0.372 1.051,0.375 1.051,0.377 1.049,0.378 1.049,0.381 1.048,0.381 1.048,0.381 
		1.046,0.385 1.043,0.389 1.041,0.391 1.038,0.393 1.036,0.396 1.033,0.396 1.03,0.399 1.027,0.396 1.025,0.396 1.022,0.393 
		1.021,0.391 1.019,0.389 1.017,0.385 1.016,0.383 1.014,0.381 1.014,0.378 1.012,0.375 1.012,0.374 1.012,0.37 1.011,0.367 
		1.011,0.366 1.011,0.364 1.012,0.362 1.012,0.361 1.012,0.359 1.012,0.357 1.012,0.356 1.014,0.355 1.014,0.353 1.016,0.35 
		1.019,0.342 1.021,0.34 1.021,0.338 1.021,0.335 1.021,0.332 1.021,0.331 1.019,0.329 1.017,0.328 1.014,0.328 1.012,0.329 
		1.009,0.329 1.008,0.331 0.998,0.338 0.997,0.338 0.993,0.34 0.992,0.34 0.99,0.342 0.987,0.342 0.986,0.344 0.984,0.344 
		0.983,0.344 0.979,0.344 0.976,0.344 0.974,0.342 0.971,0.342 0.968,0.34 0.966,0.338 0.965,0.338 0.962,0.335 0.96,0.334 
		0.958,0.331 0.957,0.329 0.957,0.326 0.955,0.324 0.955,0.321 0.955,0.319 0.955,0.318 0.955,0.314 0.957,0.313 0.957,0.311 
		0.958,0.309 0.958,0.305 0.96,0.305 0.962,0.303 0.962,0.301 0.963,0.299 0.965,0.297 0.979,0.281 0.99,0.272 0.99,0.271 
		0.992,0.268 0.993,0.266 0.995,0.264 0.995,0.262 0.998,0.254 1,0.253 1,0.25 1.001,0.248 1.003,0.248 1.005,0.25 1.006,0.251 
		1.006,0.253 1.008,0.256 1.008,0.258 1.006,0.262 1.006,0.262 1.006,0.264 1.005,0.268 1.003,0.271 0.997,0.283 0.992,0.292 
		0.992,0.294 0.992,0.297 0.99,0.299 0.99,0.301 0.99,0.303 0.992,0.305 0.992,0.307 0.993,0.309 0.997,0.311 0.998,0.313 
		1.001,0.313 1.005,0.313 1.006,0.313 1.009,0.313 1.011,0.313 1.014,0.311 1.016,0.311 1.017,0.309 1.019,0.307 1.021,0.305 
		1.022,0.305 1.022,0.305 1.024,0.301 1.024,0.299 1.025,0.297 1.025,0.294 1.025,0.291 1.025,0.286 1.025,0.283 1.025,0.209 
		0.954,0.209 0.943,0.209 0.941,0.209 0.939,0.209 0.938,0.209 0.935,0.209 0.935,0.21 0.931,0.21 0.93,0.211 0.928,0.213 
		0.927,0.213 0.924,0.215 0.924,0.217 0.922,0.219 0.92,0.221 0.92,0.223 0.919,0.225 0.919,0.227 0.919,0.229 0.919,0.23 
		0.919,0.232 0.919,0.234 0.92,0.237 0.922,0.238 0.924,0.24 0.924,0.242 0.927,0.243 0.928,0.243 0.931,0.243 0.933,0.243 
		0.936,0.243 0.936,0.243 0.939,0.243 0.941,0.242 0.943,0.242 0.944,0.24 0.952,0.237 0.957,0.234 0.96,0.232 0.962,0.232 
		0.965,0.23 0.966,0.23 0.968,0.229 0.97,0.229 0.971,0.229 0.974,0.229 0.977,0.229 0.979,0.23 0.981,0.232 0.981,0.234 
		0.981,0.235 0.979,0.237 0.977,0.237 0.974,0.237 0.973,0.238 0.97,0.238 0.968,0.24 0.966,0.242 0.955,0.25 0.943,0.26 
		0.933,0.27 0.93,0.271 0.928,0.273 0.925,0.273 0.925,0.275 0.922,0.276 0.92,0.276 0.917,0.278 0.915,0.278 0.914,0.278 
		0.912,0.278 0.911,0.278 0.909,0.278 0.908,0.278 0.905,0.278 0.903,0.278 0.9,0.276 0.898,0.276 0.896,0.275 0.893,0.273 
		0.892,0.272 0.89,0.27 0.887,0.268 0.887,0.264 0.885,0.262 0.885,0.262 0.885,0.258 0.885,0.256 0.885,0.254 0.885,0.251 
		0.885,0.248 0.885,0.246 0.887,0.245 0.89,0.24 0.892,0.238 0.898,0.229 0.9,0.229 0.901,0.225 0.901,0.223 0.903,0.221 
		0.901,0.219 0.901,0.217 0.9,0.215 0.898,0.215 0.896,0.213 0.895,0.213 0.893,0.213 0.89,0.215 0.888,0.215 0.881,0.219 
		0.879,0.221 0.877,0.221 0.876,0.221 0.874,0.221 0.873,0.221 0.871,0.223 0.869,0.223 0.868,0.223 0.867,0.223 0.865,0.223 
		0.863,0.223 0.862,0.223 0.86,0.221 0.858,0.221 0.855,0.221 0.852,0.221 0.85,0.219 0.849,0.219 0.847,0.217 0.846,0.217 
		0.844,0.215 0.841,0.211 0.838,0.21 0.838,0.209 0.834,0.207 0.831,0.202 0.836,0.197 0.843,0.191 0.844,0.189 0.846,0.189 
		0.847,0.187 0.85,0.186 0.854,0.186 0.855,0.184 0.857,0.184 0.858,0.184 0.862,0.182 0.863,0.182 0.867,0.182 0.868,0.182 
		0.869,0.182 0.873,0.184 0.874,0.184 0.876,0.186 0.884,0.188 0.887,0.189 0.888,0.191 0.892,0.191 0.895,0.191 0.896,0.191 
		0.898,0.191 0.9,0.191 0.901,0.188 0.903,0.188 0.903,0.186 0.903,0.184 0.901,0.182 0.9,0.178 0.898,0.176 0.896,0.174 
		0.893,0.167 0.892,0.165 0.892,0.164 0.89,0.162 0.888,0.159 0.888,0.157 0.888,0.156 0.887,0.153 0.887,0.149 0.887,0.148 
		0.888,0.146 0.888,0.143 0.89,0.141 0.892,0.137 0.893,0.135 0.895,0.135 0.896,0.133 0.898,0.131 0.9,0.129 0.901,0.129 
		0.905,0.127 0.906,0.127 0.908,0.127 0.911,0.126 0.912,0.126 0.914,0.126 0.915,0.127 0.917,0.127 0.919,0.127 0.92,0.127 
		0.924,0.129 0.927,0.129 0.928,0.131 0.93,0.131 0.931,0.133 0.933,0.135 0.935,0.135 0.938,0.137 0.939,0.141 0.954,0.153 
		0.955,0.156 0.958,0.159 0.963,0.162 0.966,0.165 0.968,0.165 0.97,0.167 0.971,0.167 0.973,0.168 0.979,0.168 0.981,0.17 
		0.983,0.172 0.983,0.174 0.983,0.176 0.979,0.178 0.977,0.178 0.974,0.178 0.973,0.178 0.971,0.178 0.968,0.178 0.962,0.174 
		0.96,0.174 0.957,0.172 0.948,0.167 0.939,0.162 0.938,0.162 0.935,0.161 0.933,0.161 0.931,0.161 0.928,0.161 0.927,0.162 
		0.925,0.162 0.922,0.164 0.92,0.165 0.92,0.167 0.919,0.17 0.919,0.172 0.917,0.176 0.917,0.178 0.917,0.18 0.919,0.184 
		0.92,0.186 0.92,0.188 0.924,0.189 0.925,0.191 0.927,0.192 0.927,0.192 0.928,0.192 0.931,0.194 0.935,0.194 0.936,0.194 
		0.938,0.194 0.948,0.194 1.025,0.194 1.025,0.122 1.025,0.111 1.025,0.108 1.025,0.106 1.025,0.105 1.024,0.104 1.024,0.1 
		1.022,0.1 1.022,0.098 1.021,0.096 1.019,0.094 1.017,0.092 1.014,0.092 1.012,0.09 1.011,0.09 1.009,0.09 1.006,0.088 
		1.005,0.088 1.001,0.09 1,0.09 0.997,0.092 0.995,0.092 0.993,0.092 0.992,0.096 0.992,0.098 0.992,0.098 0.99,0.1 0.99,0.103 
		0.992,0.104 0.992,0.105 0.992,0.106 0.992,0.108 0.993,0.109 0.993,0.111 0.998,0.124 1.003,0.135 1.005,0.137 1.006,0.141 
		1.006,0.143 1.006,0.143 1.006,0.146 1.006,0.146 1.005,0.149 1.003,0.151 1.001,0.153 1,0.151 0.998,0.149 0.998,0.148 
		0.998,0.146 0.998,0.143 0.997,0.143 0.995,0.139 0.992,0.135 0.99,0.131 0.99,0.129 0.984,0.124 0.971,0.109 0.963,0.1 
		0.962,0.098 0.96,0.094 0.958,0.092 0.957,0.09 0.957,0.088 0.957,0.084 0.955,0.083 0.955,0.08 0.955,0.078 0.955,0.076 
		0.957,0.073 0.957,0.071 0.958,0.068 0.96,0.067 0.96,0.065 0.963,0.063 0.965,0.062 0.966,0.059 0.968,0.057 0.971,0.057 
		0.973,0.057 0.976,0.057 0.977,0.057 0.981,0.055 0.983,0.057 0.986,0.057 0.987,0.057 0.99,0.057 0.992,0.057 0.993,0.059 
		0.998,0.063 1.003,0.067 1.008,0.068 1.009,0.07 1.012,0.071 1.014,0.071 1.017,0.071 1.019,0.07 1.019,0.07 1.021,0.068 
		1.022,0.067 1.022,0.063 1.021,0.063 1.021,0.062 1.021,0.059 1.019,0.057 1.017,0.055 1.016,0.049 1.012,0.043 1.012,0.04 
		1.011,0.038 1.011,0.035 1.011,0.033 1.011,0.03 1.012,0.027 1.012,0.025 1.014,0.024 1.014,0.021 1.016,0.018 1.017,0.016 
		1.019,0.016 1.021,0.012 1.022,0.01 1.024,0.008 1.025,0.006 1.031,0 1.034,0.003 1.038,0.006 1.041,0.008 1.043,0.012 
		1.044,0.014 1.046,0.016 1.048,0.018 1.049,0.021 1.049,0.022 1.051,0.024 1.051,0.025 1.052,0.028 1.052,0.03 1.052,0.032 
		1.052,0.035 1.052,0.038 1.052,0.04 1.051,0.043 1.049,0.049 1.048,0.053 1.048,0.055 1.044,0.059 1.044,0.062 1.043,0.063 
		1.043,0.065 1.044,0.067 1.044,0.068 1.044,0.07 1.046,0.071 1.048,0.071 1.051,0.073 1.052,0.071 1.054,0.071 1.055,0.071 
		1.057,0.07 1.06,0.068 1.062,0.067 1.07,0.062 1.073,0.062 1.075,0.059 1.076,0.059 1.077,0.057 1.081,0.057 1.082,0.057 
		1.084,0.057 1.087,0.057 1.089,0.057 1.09,0.057 1.092,0.057 1.095,0.059 1.096,0.062 1.096,0.062 1.1,0.063 1.101,0.063 
		1.103,0.065 1.105,0.067 1.106,0.068 1.106,0.071 1.108,0.073 1.108,0.076 1.11,0.08 1.11,0.081 1.108,0.084 1.108,0.088 
		1.108,0.088 1.108,0.09 1.106,0.092 1.106,0.092 1.105,0.096 1.105,0.098 1.103,0.1 1.101,0.1 1.1,0.104 1.096,0.106 1.094,0.109 
		1.087,0.116 1.082,0.122 1.077,0.127 1.075,0.131 1.072,0.135 1.068,0.141 1.067,0.143 1.065,0.143 1.065,0.146 1.065,0.146 
		1.063,0.148 1.063,0.149 1.062,0.151 1.06,0.151 1.058,0.149 1.057,0.146 1.057,0.146 1.057,0.143 1.057,0.141 1.058,0.139 
		1.058,0.137 1.06,0.135 1.065,0.122 1.07,0.113 1.072,0.111 1.072,0.109 1.072,0.108 1.073,0.106 1.073,0.105 1.073,0.104 
		1.073,0.103 1.073,0.1 1.073,0.098 1.072,0.096 1.072,0.094 1.07,0.092 1.07,0.092 1.068,0.09 1.065,0.09 1.063,0.088 1.06,0.088 
		1.057,0.088 1.055,0.088 1.052,0.09 1.051,0.09 1.049,0.092 1.048,0.092 1.046,0.094 1.043,0.098 1.041,0.1 1.041,0.103 
		1.039,0.104 1.039,0.105 1.039,0.106 1.039,0.108 1.039,0.111 1.039,0.113 1.039,0.124 1.039,0.195 1.115,0.194 1.124,0.194 
		1.125,0.194 1.127,0.194 1.129,0.194 1.132,0.194 1.133,0.192 1.135,0.192 1.137,0.191 1.138,0.189 1.14,0.187 1.141,0.186 
		1.141,0.186 1.143,0.182 1.144,0.18 1.144,0.178 1.144,0.176 1.144,0.172 1.144,0.168 1.143,0.167 1.143,0.164 1.141,0.162 
		1.14,0.161 1.138,0.161 1.135,0.161 1.133,0.161 1.132,0.161 1.129,0.161 1.127,0.161 1.125,0.162 1.124,0.162 1.12,0.164 
		1.111,0.168 1.1,0.174 1.098,0.174 1.095,0.176 1.094,0.176 1.09,0.178 1.089,0.178 1.086,0.176 1.084,0.176 1.082,0.174 
		1.082,0.17 1.084,0.168 1.087,0.167 1.089,0.167 1.09,0.167 1.094,0.165 1.095,0.165 1.103,0.159 1.115,0.149 1.127,0.139 
		1.137,0.133 1.138,0.131 1.14,0.129 1.143,0.127 1.144,0.127 1.148,0.126 1.149,0.126 1.151,0.126 1.152,0.126 1.154,0.126 
		1.156,0.126 1.158,0.126 1.16,0.126 1.162,0.127 1.165,0.127 1.167,0.129 1.168,0.131 1.171,0.133 1.173,0.135 1.175,0.137 
		1.175,0.137 1.177,0.141 1.177,0.143 1.178,0.143 1.178,0.146 1.178,0.148 1.178,0.151 1.178,0.153 1.178,0.156 1.177,0.157 
		1.177,0.159 1.175,0.162 1.173,0.164 1.173,0.165 1.167,0.174 1.165,0.176 1.165,0.178 1.163,0.178 1.162,0.18 1.162,0.182 
		1.162,0.186 1.162,0.187 1.163,0.188 1.165,0.189 1.167,0.191 1.168,0.191 1.171,0.191 1.173,0.189 1.175,0.189 1.181,0.187 
		1.182,0.187 1.186,0.186 1.187,0.186 1.189,0.184 1.192,0.184 1.194,0.184 1.197,0.182 1.198,0.182 1.201,0.182 1.203,0.182 
		1.205,0.184 1.208,0.184 1.211,0.186 1.214,0.187 1.216,0.188 1.219,0.189 1.221,0.191 1.224,0.192 1.226,0.194 1.227,0.197 
		1.232,0.202 1.227,0.209 1.226,0.21 1.224,0.211 1.222,0.213 1.221,0.215 1.218,0.217 1.216,0.219 1.213,0.221 1.211,0.221 
		1.208,0.221 1.206,0.221 1.205,0.221 1.203,0.221 1.201,0.223 1.2,0.223 1.197,0.223 1.195,0.221 1.192,0.221 1.191,0.221 
		1.189,0.221 1.187,0.221 1.186,0.221 1.184,0.221 1.182,0.219 1.181,0.219 1.179,0.217 1.175,0.213 1.173,0.213 1.171,0.213 
		1.168,0.213 1.167,0.213 1.165,0.213 1.163,0.215 1.162,0.217 1.16,0.219 1.16,0.221 1.16,0.223 1.162,0.225 1.163,0.229 
		1.165,0.229 1.168,0.234 1.171,0.238 1.173,0.242 1.175,0.243 1.175,0.246 1.175,0.25 1.177,0.251 1.177,0.253 1.177,0.256 
		1.177,0.258 1.175,0.26 1.175,0.262 1.173,0.264 1.173,0.266 1.171,0.27 1.17,0.271 1.168,0.272 1.165,0.273 1.163,0.275 
		1.162,0.276 1.158,0.276 1.156,0.278 1.154,0.278 1.152,0.278 1.151,0.278 1.148,0.278 1.144,0.278 1.143,0.276 1.14,0.276 
		1.138,0.275 1.137,0.273 1.133,0.272 1.132,0.271 1.129,0.27 1.116,0.256 1.105,0.246 1.101,0.242 1.096,0.238 1.095,0.237 
		1.087,0.234 1.084,0.232 1.082,0.23 1.084,0.229 1.086,0.229 1.087,0.227 1.089,0.227 1.09,0.227 1.092,0.229 1.094,0.229 
		1.096,0.229 1.098,0.229 1.101,0.229 1.106,0.232 1.117,0.238 1.122,0.242 1.124,0.242 1.125,0.242 1.129,0.243 1.13,0.243 
		1.133,0.243 1.135,0.243 1.138,0.242 1.138,0.242 1.141,0.24 1.143,0.238 1.144,0.235 1.144,0.234 1.146,0.232 1.146,0.229 
		1.146,0.229 1.144,0.227 1.144,0.223 1.143,0.221 1.143,0.219 1.141,0.217 1.14,0.215 1.138,0.213 1.137,0.211 1.133,0.211 
		1.132,0.21 1.129,0.21 1.125,0.209 1.122,0.209 1.116,0.209 1.039,0.209 1.039,0.283 1.039,0.284 1.039,0.286 1.039,0.289 
		1.039,0.292 1.041,0.297 1.041,0.301 1.043,0.303 1.043,0.305 1.044,0.305 1.046,0.307 1.048,0.309 1.049,0.309 1.051,0.311 
		1.052,0.313 1.054,0.313 1.055,0.313 1.058,0.313 1.06,0.313 1.062,0.313 1.065,0.313 1.067,0.313 1.068,0.311 1.07,0.309 
		1.072,0.307 1.073,0.305 1.075,0.305 1.075,0.301 1.075,0.299 1.075,0.297 1.073,0.294 1.073,0.292 1.073,0.289 1.072,0.288 
		1.068,0.281 1.063,0.271 1.06,0.262 1.058,0.26 1.058,0.258 1.058,0.256 1.058,0.254 1.058,0.251 1.06,0.25 1.062,0.248 
		1.063,0.246 1.065,0.248 1.067,0.25 1.067,0.251 1.067,0.253 1.067,0.256 1.068,0.258 1.068,0.26 1.072,0.264 1.073,0.268 
		1.076,0.271 1.077,0.273 1.089,0.286 1.098,0.299 1.1,0.301 1.101,0.303 1.103,0.305 1.105,0.307 1.105,0.309 1.106,0.311 
		1.106,0.313 1.108,0.314 1.108,0.316 1.108,0.319 1.108,0.321 1.108,0.323 1.108,0.326 1.108,0.329 1.106,0.331 1.106,0.332 
		1.105,0.334 1.103,0.338 1.1,0.338 1.098,0.34 1.096,0.342 1.094,0.344 1.092,0.344 1.089,0.346 1.087,0.346 1.084,0.346 
		1.082,0.346 1.079,0.346 1.077,0.344 1.076,0.344 1.073,0.342 1.072,0.342 1.07,0.34 1.068,0.34 1.067,0.338 1.065,0.338 
		1.055,0.331 1.054,0.329 1.052,0.328 	"/>
	<polygon fill="#FFFFFF" points="0.896,0.997 0.895,0.809 0.93,0.809 1.008,0.956 1.008,0.809 1.031,0.809 1.031,0.997 1.003,0.997 
		0.919,0.838 0.919,0.997 	"/>
	<path fill="#FFFFFF" d="M0.905,0.711L0.903,0.469h0.084c0.015,0,0.024,0.004,0.035,0.009c0.011,0.006,0.021,0.014,0.024,0.024
		c0.006,0.01,0.009,0.022,0.011,0.034c0,0.013-0.003,0.022-0.009,0.035C1.043,0.579,1.037,0.588,1.027,0.594
		C1.022,0.596,1.018,0.6,1.011,0.602C1.005,0.604,0.997,0.606,0.99,0.606H0.933V0.71L0.905,0.711L0.905,0.711z M0.933,0.579H0.99
		c0.007,0,0.015-0.001,0.021-0.006C1.016,0.57,1.021,0.564,1.024,0.557C1.027,0.551,1.03,0.543,1.029,0.535
		c0-0.006-0.002-0.014-0.007-0.021C1.019,0.508,1.014,0.503,1.008,0.499C1.003,0.496,0.997,0.494,0.99,0.494
		c-0.001,0-0.004,0-0.007,0H0.933V0.579L0.933,0.579z"/>
	<polygon fill="#FFFFFF" points="1.063,0.997 1.063,0.809 1.182,0.809 1.238,0.963 1.289,0.809 1.316,0.809 1.252,0.994 
		1.226,0.994 1.163,0.83 1.089,0.83 1.089,0.887 1.152,0.887 1.152,0.909 1.087,0.909 1.087,0.977 1.16,0.977 1.171,0.997 	"/>
	<polygon fill="#FFFFFF" points="1.076,0.711 1.076,0.467 1.106,0.467 1.106,0.567 1.216,0.567 1.214,0.467 1.244,0.467 
		1.244,0.711 1.214,0.711 1.216,0.596 1.106,0.596 1.106,0.711 	"/>
	<polygon fill="#FFFFFF" points="1.286,0.711 1.286,0.467 1.316,0.467 1.316,0.711 	"/>
	<polygon fill="#FFFFFF" points="1.323,0.997 1.323,0.809 1.429,0.809 1.418,0.83 1.348,0.83 1.348,0.887 1.413,0.887 1.413,0.908 
		1.348,0.908 1.348,0.975 1.421,0.975 1.432,0.995 	"/>
	<polygon fill="#FFFFFF" points="1.351,0.711 1.349,0.467 1.381,0.467 1.381,0.682 1.488,0.682 1.488,0.711 	"/>
	<polygon fill="#FFFFFF" points="1.509,0.711 1.509,0.467 1.538,0.467 1.538,0.711 	"/>
	<path fill="#FFFFFF" d="M1.572,0.711V0.467h0.083c0.015,0,0.023,0.002,0.035,0.008C1.701,0.481,1.71,0.489,1.715,0.499
		c0.006,0.011,0.01,0.022,0.01,0.035c0,0.011-0.004,0.022-0.008,0.033C1.71,0.577,1.704,0.585,1.696,0.592
		C1.69,0.594,1.685,0.596,1.678,0.6c-0.006,0-0.012,0.003-0.021,0.003H1.602V0.71L1.572,0.711L1.572,0.711z M1.602,0.577h0.056
		c0.009,0,0.015-0.003,0.021-0.006c0.007-0.005,0.013-0.01,0.016-0.02c0.003-0.006,0.006-0.014,0.006-0.021
		c0-0.008-0.004-0.017-0.007-0.022C1.688,0.506,1.683,0.5,1.678,0.497c-0.007-0.003-0.013-0.005-0.02-0.006
		c-0.002,0-0.005,0-0.006,0H1.602V0.577L1.602,0.577z"/>
	<path fill="#FFFFFF" d="M1.748,0.711V0.467h0.084c0.012,0,0.022,0.002,0.034,0.008C1.877,0.482,1.885,0.49,1.89,0.499
		C1.897,0.51,1.9,0.521,1.9,0.534c0,0.011-0.001,0.022-0.008,0.033c-0.005,0.01-0.013,0.018-0.021,0.024
		C1.866,0.594,1.86,0.596,1.855,0.6c-0.007,0-0.015,0.003-0.021,0.003H1.777V0.71L1.748,0.711L1.748,0.711L1.748,0.711z
		 M1.779,0.577h0.056c0.009,0,0.017-0.003,0.021-0.006c0.007-0.005,0.014-0.01,0.017-0.02c0.003-0.006,0.005-0.014,0.005-0.021
		c0-0.008-0.002-0.017-0.007-0.022C1.865,0.506,1.86,0.5,1.854,0.497C1.847,0.494,1.842,0.492,1.836,0.491c-0.004,0-0.005,0-0.007,0
		H1.778L1.779,0.577L1.779,0.577z"/>
	<polygon fill="#FFFFFF" points="1.925,0.711 1.925,0.467 2.06,0.467 2.047,0.493 1.955,0.493 1.955,0.567 2.031,0.567 2.031,0.596 
		1.956,0.596 1.956,0.682 2.049,0.682 2.063,0.711 	"/>
</g>
</svg>
