<?xml version="1.0" encoding="utf-8"?>
<!-- Generator: Adobe Illustrator 13.0.0, SVG Export Plug-In . SVG Version: 6.00 Build 14948)  -->
<!DOCTYPE svg PUBLIC "-//W3C//DTD SVG 1.1//EN" "http://www.w3.org/Graphics/SVG/1.1/DTD/svg11.dtd">
<svg version="1.1" id="Layer_1" xmlns="http://www.w3.org/2000/svg" xmlns:xlink="http://www.w3.org/1999/xlink" x="0px" y="0px"
	 width="2.893px" height="1px" viewBox="62.332 1.42 2.893 1" enable-background="new 62.332 1.42 2.893 1" xml:space="preserve">
<g>
	<g>
		<path fill="#FFFFFF" d="M1.77,0.236c-0.005,0-0.008,0.003-0.008,0.01C1.723,0.223,1.679,0.21,1.632,0.209
			c-0.081-0.001-0.146,0.026-0.19,0.079c-0.032,0.04-0.058,0.079-0.068,0.116C1.353,0.467,1.348,0.532,1.353,0.597
			C1.357,0.64,1.367,0.681,1.381,0.724c0.016,0.049,0.036,0.088,0.061,0.114c0.023,0.027,0.052,0.048,0.081,0.058
			c0.023,0.009,0.054,0.015,0.086,0.017c0.04,0.001,0.08-0.009,0.121-0.03c0.037,0,0.063,0,0.076,0.001S1.825,0.88,1.823,0.87V0.56
			c0-0.008,0.002-0.013,0.005-0.015L1.579,0.544V0.57l0.07,0.003C1.673,0.575,1.688,0.58,1.7,0.586
			c0.016,0.011,0.021,0.026,0.021,0.05v0.148c0,0.01-0.005,0.021-0.013,0.034L1.685,0.853C1.677,0.866,1.669,0.873,1.66,0.877
			C1.649,0.882,1.635,0.886,1.615,0.886c-0.021,0-0.037-0.005-0.056-0.015c-0.017-0.01-0.033-0.026-0.049-0.049
			C1.499,0.804,1.488,0.767,1.48,0.709C1.478,0.694,1.474,0.656,1.469,0.597C1.467,0.56,1.466,0.532,1.467,0.511
			c0.002-0.041,0.01-0.092,0.026-0.147c0.021-0.087,0.065-0.129,0.133-0.125c0.023,0,0.05,0.005,0.072,0.017
			c0.018,0.009,0.034,0.021,0.057,0.04c0.014,0.012,0.026,0.032,0.042,0.061l0.021,0.046l0.009,0.012
			c0.003,0.004,0.006,0.005,0.01,0.004c0.005-0.002,0.005-0.008,0.001-0.02C1.798,0.29,1.775,0.236,1.77,0.236z"/>
		<path fill="#FFFFFF" d="M1.922,0.248C1.94,0.247,1.953,0.249,1.963,0.254l0.01,0.01l0.01,0.01
			c0.011,0.009,0.015,0.021,0.017,0.037L1.995,0.398c0.002,0.244,0.002,0.375,0.002,0.397c-0.002,0.022-0.015,0.042-0.035,0.06
			C1.956,0.863,1.942,0.866,1.923,0.867c-0.009,0-0.013,0.004-0.013,0.013c0,0.009,0.003,0.013,0.01,0.011h0.418
			c0.057-0.139,0.084-0.209,0.086-0.216l0.002-0.012c0-0.004-0.002-0.007-0.004-0.009c-0.004-0.003-0.01-0.003-0.019-0.002
			c-0.016,0.04-0.036,0.08-0.065,0.123C2.32,0.802,2.294,0.824,2.263,0.839C2.24,0.851,2.22,0.859,2.2,0.861L2.159,0.862
			C2.14,0.861,2.13,0.859,2.122,0.855C2.112,0.849,2.106,0.836,2.106,0.816L2.105,0.568c0.072-0.002,0.113-0.002,0.127,0
			C2.242,0.57,2.248,0.573,2.253,0.576c0.004,0.003,0.012,0.009,0.021,0.017C2.281,0.599,2.29,0.609,2.298,0.625
			C2.306,0.636,2.31,0.642,2.314,0.642C2.32,0.638,2.322,0.634,2.322,0.627L2.259,0.421c-0.004-0.004-0.01-0.004-0.02,0
			C2.243,0.433,2.245,0.449,2.243,0.47c0,0.022-0.004,0.037-0.011,0.045C2.226,0.526,2.212,0.534,2.189,0.538L2.103,0.537
			l0.002-0.268c0-0.016,0.008-0.022,0.023-0.021c0.031-0.002,0.063,0.001,0.1,0.008c0.021,0.006,0.047,0.021,0.074,0.047
			c0.008,0.01,0.021,0.024,0.039,0.045l0.008,0.018c0.004,0.007,0.008,0.012,0.014,0.013C2.377,0.377,2.379,0.37,2.375,0.358
			l-0.048-0.13L2.118,0.224L1.898,0.226C1.894,0.242,1.901,0.25,1.922,0.248z"/>
		<path fill="#FFFFFF" d="M0.356,0.008L0.284,0.005H0.001l0.002,0.022c0.019,0,0.034,0.002,0.046,0.007
			C0.06,0.039,0.071,0.045,0.085,0.056C0.1,0.07,0.108,0.088,0.109,0.112L0.111,0.17c0.001,0.432,0.001,0.661,0.001,0.69
			c0,0.024-0.003,0.045-0.007,0.058C0.1,0.935,0.09,0.949,0.075,0.958c-0.021,0.014-0.048,0.02-0.073,0.018V1h0.171l0.162-0.002
			l0.001-0.023c-0.016,0-0.037-0.004-0.069-0.013S0.219,0.917,0.221,0.857V0.573C0.317,0.579,0.393,0.564,0.45,0.528
			C0.535,0.476,0.578,0.39,0.58,0.269c0.001-0.054-0.012-0.102-0.032-0.144C0.526,0.088,0.499,0.06,0.463,0.041
			C0.433,0.025,0.398,0.013,0.356,0.008z M0.222,0.052C0.22,0.043,0.223,0.04,0.231,0.039c0.021-0.002,0.043-0.002,0.071,0
			C0.347,0.042,0.38,0.054,0.398,0.072C0.42,0.093,0.437,0.124,0.447,0.163C0.459,0.203,0.462,0.248,0.458,0.3
			C0.454,0.353,0.436,0.403,0.406,0.451c-0.016,0.021-0.03,0.041-0.048,0.056C0.342,0.523,0.323,0.532,0.305,0.536
			C0.257,0.547,0.226,0.548,0.217,0.541L0.22,0.082L0.222,0.052z"/>
		<path fill="#FFFFFF" d="M0.59,0.23v0.018C0.606,0.25,0.62,0.253,0.63,0.259c0.01,0.006,0.016,0.027,0.016,0.063
			c0.002,0.28,0.003,0.434,0.002,0.461c0,0.021-0.003,0.035-0.01,0.047C0.633,0.841,0.624,0.851,0.61,0.86
			C0.594,0.871,0.58,0.875,0.566,0.873L0.565,0.888L0.94,0.892L0.939,0.871L0.898,0.867C0.885,0.865,0.876,0.862,0.87,0.855
			C0.862,0.851,0.862,0.837,0.871,0.819l0.082-0.246l0.126,0.001C1.117,0.689,1.14,0.755,1.144,0.767
			c0.007,0.015,0.011,0.028,0.013,0.041c0.002,0.021-0.004,0.034-0.016,0.045c-0.018,0.014-0.042,0.02-0.074,0.018L1.065,0.888
			h0.288L1.351,0.871C1.348,0.869,1.335,0.864,1.308,0.855C1.284,0.847,1.264,0.818,1.254,0.767l-0.197-0.6l-0.071,0.2L0.85,0.765
			C0.84,0.794,0.83,0.819,0.819,0.836C0.809,0.855,0.8,0.864,0.793,0.864c-0.009,0-0.02-0.004-0.025-0.011
			C0.752,0.843,0.746,0.82,0.749,0.781c0-0.288,0-0.442,0-0.463c-0.001-0.014,0-0.025,0.002-0.032l0.01-0.022
			c0.007-0.012,0.024-0.018,0.053-0.016V0.23H0.59L0.59,0.23z M1.071,0.538L0.966,0.536l0.05-0.165L1.071,0.538z"/>
		<path fill="#FFFFFF" d="M2.284,0.161C2.308,0.119,2.337,0.085,2.37,0.064c0.034-0.021,0.082-0.032,0.143-0.031l-0.002,0.88
			c0,0.008-0.004,0.017-0.012,0.026C2.491,0.948,2.482,0.957,2.47,0.963C2.452,0.974,2.431,0.976,2.404,0.972
			C2.398,0.974,2.396,0.978,2.396,0.986c0,0.007,0.006,0.012,0.015,0.012l0.176,0.001c0.121,0,0.184,0,0.186-0.002
			c0.002-0.001,0.002-0.005,0.002-0.011c0-0.006-0.002-0.01-0.006-0.012L2.74,0.972c-0.021,0-0.039-0.006-0.054-0.017
			c-0.006-0.004-0.01-0.008-0.016-0.013L2.659,0.929c-0.011-0.01-0.017-0.037-0.019-0.082l0.004-0.814L2.712,0.04
			C2.737,0.045,2.761,0.055,2.78,0.064c0.031,0.02,0.062,0.054,0.089,0.104C2.87,0.181,2.874,0.185,2.88,0.185
			S2.89,0.179,2.892,0.17L2.827,0L2.314,0.001L2.255,0.169c-0.002,0.005,0,0.01,0.006,0.012c0.008,0.002,0.012,0.002,0.014-0.004
			L2.284,0.161z"/>
	</g>
</g>
</svg>
