<?xml version="1.0" encoding="utf-8"?>
<!-- Generator: Adobe Illustrator 13.0.0, SVG Export Plug-In . SVG Version: 6.00 Build 14948)  -->
<!DOCTYPE svg PUBLIC "-//W3C//DTD SVG 1.1//EN" "http://www.w3.org/Graphics/SVG/1.1/DTD/svg11.dtd">
<svg version="1.1" id="Layer_1" xmlns="http://www.w3.org/2000/svg" xmlns:xlink="http://www.w3.org/1999/xlink" x="0px" y="0px"
	 width="4.324px" height="1px" viewBox="61.619 7.163 4.324 1" enable-background="new 61.619 7.163 4.324 1" xml:space="preserve">
<g>
	<g>
		<path fill="#FFFFFF" d="M0.001,0.983V0.936c0-0.01,0.002-0.019,0.007-0.024c0.005-0.007,0.011-0.011,0.021-0.015l0.02-0.007
			C0.06,0.886,0.067,0.881,0.07,0.874c0.003-0.007,0.006-0.017,0.006-0.031V0.159c0-0.016-0.002-0.026-0.006-0.032
			C0.068,0.121,0.062,0.116,0.053,0.112L0.036,0.104C0.028,0.1,0.022,0.094,0.02,0.088C0.016,0.083,0.015,0.074,0.015,0.065V0.018
			H0.38c0.123,0,0.214,0.021,0.275,0.066c0.062,0.045,0.092,0.112,0.092,0.202c0,0.07-0.021,0.128-0.063,0.17
			S0.582,0.52,0.506,0.526c0.037,0.015,0.071,0.05,0.106,0.104c0.002,0.005,0.004,0.008,0.006,0.01l0.107,0.175
			C0.739,0.839,0.751,0.856,0.76,0.866c0.008,0.01,0.018,0.018,0.025,0.021l0.027,0.014c0.01,0.006,0.017,0.012,0.021,0.018
			S0.839,0.932,0.839,0.94v0.047H0.611L0.467,0.754C0.415,0.665,0.376,0.608,0.353,0.586C0.328,0.564,0.304,0.552,0.279,0.552
			c-0.004,0-0.006,0-0.008,0s-0.003,0-0.005,0.001v0.291c0,0.015,0.002,0.024,0.007,0.031c0.004,0.007,0.01,0.012,0.022,0.016
			L0.314,0.9c0.01,0.002,0.017,0.008,0.021,0.015S0.341,0.93,0.341,0.939v0.047L0.001,0.983L0.001,0.983z M0.266,0.451h0.06
			c0.076,0,0.132-0.013,0.168-0.039C0.529,0.386,0.547,0.346,0.547,0.29c0-0.059-0.018-0.102-0.051-0.129
			C0.46,0.133,0.406,0.119,0.332,0.119H0.266V0.451L0.266,0.451z"/>
		<path fill="#FFFFFF" d="M0.889,0.499c0-0.146,0.042-0.268,0.125-0.36C1.097,0.047,1.206,0,1.339,0
			c0.134,0,0.242,0.046,0.326,0.139C1.748,0.232,1.79,0.353,1.79,0.499c0,0.148-0.042,0.27-0.126,0.361C1.58,0.953,1.472,1,1.338,1
			C1.205,1,1.097,0.954,1.013,0.86C0.931,0.768,0.889,0.647,0.889,0.499z M1.091,0.499c0,0.133,0.021,0.234,0.063,0.301
			c0.043,0.068,0.104,0.102,0.187,0.102S1.487,0.869,1.529,0.8C1.57,0.733,1.59,0.632,1.59,0.499s-0.021-0.233-0.063-0.3
			C1.486,0.131,1.422,0.096,1.34,0.096S1.197,0.131,1.154,0.199C1.113,0.266,1.091,0.366,1.091,0.499z"/>
		<path fill="#FFFFFF" d="M1.891,0.983V0.936c0-0.01,0.002-0.019,0.007-0.024c0.004-0.007,0.01-0.011,0.02-0.015l0.02-0.007
			c0.01-0.004,0.019-0.009,0.021-0.016s0.006-0.017,0.006-0.031V0.159c0-0.016-0.002-0.026-0.006-0.032S1.947,0.116,1.937,0.112
			L1.916,0.104C1.908,0.1,1.902,0.096,1.898,0.09C1.893,0.084,1.891,0.075,1.891,0.065V0.018h0.351v0.047
			c0,0.01-0.002,0.018-0.008,0.022C2.23,0.095,2.221,0.099,2.211,0.104L2.189,0.11C2.176,0.114,2.168,0.12,2.164,0.127
			S2.156,0.143,2.156,0.159V0.88h0.25c0.024,0,0.047-0.007,0.067-0.02c0.021-0.014,0.035-0.031,0.045-0.055
			C2.521,0.8,2.523,0.793,2.527,0.784c0.014-0.032,0.03-0.048,0.051-0.048h0.041v0.253c-0.006,0-0.02,0-0.034-0.002
			c-0.071-0.002-0.12-0.002-0.146-0.002L1.891,0.983L1.891,0.983z"/>
		<path fill="#FFFFFF" d="M2.678,0.983V0.936c0-0.01,0.004-0.019,0.008-0.024c0.006-0.007,0.013-0.011,0.021-0.015L2.727,0.89
			c0.012-0.004,0.02-0.009,0.021-0.016c0.003-0.005,0.005-0.016,0.005-0.03V0.159c0-0.016-0.002-0.026-0.005-0.032
			C2.744,0.121,2.736,0.116,2.725,0.112l-0.02-0.008C2.697,0.1,2.689,0.096,2.686,0.09S2.678,0.075,2.678,0.065V0.018h0.527
			c0.016,0,0.033,0,0.061-0.003c0.023-0.001,0.051-0.002,0.08-0.004v0.233H3.313c-0.015,0-0.022-0.002-0.03-0.007
			C3.273,0.233,3.266,0.223,3.26,0.209C3.245,0.176,3.23,0.153,3.207,0.141C3.186,0.128,3.157,0.122,3.12,0.122H2.943V0.44h0.084
			c0.016,0,0.027-0.002,0.039-0.006c0.01-0.005,0.019-0.011,0.021-0.019l0.02-0.024c0.002-0.002,0.004-0.003,0.006-0.006
			C3.125,0.368,3.137,0.36,3.15,0.36h0.043v0.263H3.15c-0.015,0-0.025-0.009-0.039-0.026C3.109,0.595,3.109,0.594,3.109,0.593
			L3.089,0.568C3.083,0.559,3.076,0.553,3.066,0.549C3.055,0.545,3.043,0.543,3.027,0.543H2.943v0.338h0.25
			c0.022,0,0.047-0.007,0.065-0.021c0.021-0.013,0.034-0.03,0.046-0.054c0.002-0.005,0.006-0.012,0.01-0.021
			c0.014-0.031,0.028-0.046,0.051-0.046h0.042v0.246H2.678V0.983z"/>
		<path fill="#FFFFFF" d="M3.432,0.983V0.934c0-0.007,0.002-0.013,0.008-0.02C3.443,0.909,3.45,0.903,3.456,0.899l0.037-0.02
			c0.012-0.003,0.021-0.011,0.032-0.02c0.013-0.011,0.021-0.021,0.027-0.03l0.232-0.327L3.563,0.158
			C3.555,0.147,3.547,0.138,3.542,0.132c-0.01-0.007-0.021-0.013-0.031-0.018l-0.026-0.01c-0.014-0.005-0.02-0.008-0.023-0.012
			C3.457,0.087,3.455,0.081,3.455,0.071V0.018h0.363v0.041c0,0.008-0.002,0.015-0.004,0.02S3.807,0.088,3.799,0.093L3.783,0.104
			C3.781,0.106,3.777,0.11,3.775,0.114C3.773,0.119,3.771,0.125,3.771,0.13c0,0.003,0.002,0.006,0.002,0.01
			c0,0.004,0.002,0.005,0.004,0.007l0.125,0.205l0.135-0.188c0.004-0.006,0.008-0.011,0.01-0.017
			C4.051,0.14,4.051,0.135,4.051,0.131c0-0.005,0-0.009-0.002-0.013S4.045,0.112,4.043,0.11l-0.02-0.011
			c0,0-0.002-0.001-0.004-0.002C4.004,0.092,3.998,0.082,3.998,0.069V0.018h0.268v0.049c0,0.01-0.002,0.017-0.006,0.021
			C4.256,0.095,4.25,0.099,4.242,0.102L4.215,0.114c-0.008,0.004-0.016,0.011-0.025,0.02C4.18,0.144,4.17,0.155,4.16,0.173
			l-0.189,0.27l0.256,0.395c0.008,0.011,0.015,0.021,0.021,0.026c0.008,0.008,0.017,0.015,0.024,0.019l0.024,0.015
			c0.002,0,0.005,0,0.007,0.002c0.016,0.008,0.021,0.017,0.021,0.028v0.056h-0.36V0.938c0-0.009,0-0.017,0.004-0.021
			c0.003-0.005,0.007-0.01,0.015-0.015l0.019-0.01C4.003,0.89,4.007,0.886,4.01,0.881C4.014,0.876,4.014,0.87,4.014,0.865
			c0-0.005,0-0.009-0.002-0.015C4.01,0.845,4.005,0.84,4.001,0.834L3.848,0.598L3.686,0.833c0,0-0.002,0.001-0.002,0.002
			C3.676,0.846,3.671,0.855,3.671,0.86c0,0.004,0.002,0.011,0.005,0.016C3.678,0.881,3.68,0.884,3.682,0.885L3.7,0.896
			c0.002,0,0.002,0.002,0.006,0.002c0.015,0.008,0.021,0.018,0.021,0.029v0.057L3.432,0.983L3.432,0.983z"/>
	</g>
</g>
</svg>
