<?xml version="1.0" encoding="utf-8"?>
<!-- Generator: Adobe Illustrator 13.0.0, SVG Export Plug-In . SVG Version: 6.00 Build 14948)  -->
<!DOCTYPE svg PUBLIC "-//W3C//DTD SVG 1.1//EN" "http://www.w3.org/Graphics/SVG/1.1/DTD/svg11.dtd">
<svg version="1.1" id="Layer_1" xmlns="http://www.w3.org/2000/svg" xmlns:xlink="http://www.w3.org/1999/xlink" x="0px" y="0px"
	 width="5.32px" height="1px" viewBox="61.119 6.777 5.32 1" enable-background="new 61.119 6.777 5.32 1" xml:space="preserve">
<g>
	<path fill="#FFFFFF" d="M4.77,0.001c-0.305,0-0.55,0.223-0.55,0.498c0,0.273,0.245,0.498,0.55,0.498s0.551-0.224,0.551-0.498
		C5.321,0.223,5.074,0.001,4.77,0.001L4.77,0.001L4.77,0.001L4.77,0.001z M4.77,0.862c-0.222,0-0.399-0.164-0.399-0.365
		S4.55,0.133,4.77,0.133c0.222,0,0.399,0.164,0.399,0.364C5.17,0.7,4.991,0.862,4.77,0.862L4.77,0.862L4.77,0.862L4.77,0.862z"/>
	<polygon fill="#FFFFFF" points="1.149,0.161 1.315,0.161 1.315,0.835 1.149,0.835 1.149,0.966 2.266,0.966 2.266,0.649 
		2.098,0.649 2.098,0.835 1.484,0.835 1.484,0.568 1.756,0.568 1.756,0.681 1.925,0.681 1.925,0.325 1.756,0.325 1.756,0.437 
		1.484,0.437 1.484,0.161 2.098,0.161 2.098,0.346 2.266,0.346 2.266,0.03 1.149,0.03 	"/>
	<polygon fill="#FFFFFF" points="2.387,0.161 2.553,0.161 2.553,0.835 2.387,0.835 2.387,0.966 2.887,0.966 2.887,0.835 
		2.722,0.835 2.722,0.161 2.887,0.161 2.887,0.03 2.387,0.03 	"/>
	<polygon fill="#FFFFFF" points="3.724,0.411 4.059,0.161 4.209,0.161 4.209,0.03 3.734,0.03 3.734,0.161 3.83,0.161 3.339,0.53 
		3.339,0.161 3.505,0.161 3.505,0.03 3.005,0.03 3.005,0.161 3.17,0.161 3.17,0.835 3.005,0.835 3.005,0.966 3.505,0.966 
		3.505,0.835 3.339,0.835 3.339,0.702 3.598,0.508 3.887,0.835 3.734,0.835 3.734,0.966 4.231,0.966 4.231,0.835 4.098,0.835 	"/>
	<path fill="#FFFFFF" d="M0.527,0.425c-0.204,0-0.374-0.003-0.374-0.145c0-0.134,0.239-0.146,0.324-0.146S0.865,0.184,0.865,0.3l0,0
		v0.047h0.169V0.03H0.865v0.063l0,0C0.796,0.065,0.648,0.005,0.479,0.005S0.001,0.044,0,0.284c-0.001,0.246,0.247,0.28,0.523,0.28
		c0.16,0,0.369-0.008,0.369,0.144c0,0.149-0.25,0.166-0.328,0.166s-0.379-0.028-0.379-0.17l0,0V0.649H0.017v0.316h0.169V0.913l0,0
		C0.249,0.95,0.407,0.999,0.573,0.999c0.167,0,0.475-0.025,0.475-0.297S0.73,0.425,0.527,0.425L0.527,0.425L0.527,0.425L0.527,0.425
		z"/>
</g>
</svg>
