<?xml version="1.0" encoding="utf-8"?>
<!-- Generator: Adobe Illustrator 13.0.0, SVG Export Plug-In . SVG Version: 6.00 Build 14948)  -->
<!DOCTYPE svg PUBLIC "-//W3C//DTD SVG 1.1//EN" "http://www.w3.org/Graphics/SVG/1.1/DTD/svg11.dtd">
<svg version="1.1" id="Layer_1" xmlns="http://www.w3.org/2000/svg" xmlns:xlink="http://www.w3.org/1999/xlink" x="0px" y="0px"
	 width="2.247px" height="1px" viewBox="69.472 -4.534 2.247 1" enable-background="new 69.472 -4.534 2.247 1"
	 xml:space="preserve">
<g>
	<g>
		<path fill="#FFFFFF" d="M2.081,0.936L2.081,0.936c-0.006,0-0.011,0.002-0.015,0.007c-0.002,0.004-0.004,0.011-0.004,0.02
			c0,0.009,0,0.015,0.004,0.021C2.07,0.989,2.075,0.991,2.079,0.991c0.006,0,0.01-0.002,0.012-0.007
			c0.004-0.005,0.006-0.012,0.006-0.02c0-0.008-0.002-0.016-0.006-0.02C2.086,0.938,2.083,0.936,2.081,0.936L2.081,0.936z
			 M2.081,0.925c0.008,0,0.016,0.003,0.021,0.011c0.006,0.007,0.008,0.016,0.008,0.026c0,0.01-0.002,0.021-0.008,0.026
			c-0.007,0.006-0.015,0.01-0.021,0.01s-0.017-0.003-0.021-0.01c-0.006-0.007-0.01-0.016-0.01-0.027c0-0.011,0.004-0.02,0.011-0.027
			C2.062,0.929,2.07,0.925,2.081,0.925L2.081,0.925z M1.997,0.971c0,0.001,0,0.003,0,0.005c0,0.004,0.002,0.007,0.006,0.01
			c0.002,0.002,0.006,0.003,0.011,0.003s0.009-0.001,0.011-0.003c0.004-0.002,0.004-0.005,0.004-0.008s0-0.006-0.004-0.009
			C2.021,0.967,2.016,0.966,2.01,0.966c-0.002,0-0.006,0-0.008,0C2,0.968,2,0.969,1.997,0.971L1.997,0.971z M2.019,0.926
			L2.019,0.926l0.008,0.008C2.021,0.937,2.014,0.941,2.008,0.945C2.004,0.949,2,0.954,1.999,0.96
			c0.004-0.002,0.01-0.003,0.016-0.003c0.008,0,0.014,0.002,0.02,0.006c0.004,0.004,0.008,0.009,0.008,0.015
			s-0.004,0.011-0.01,0.016C2.027,0.998,2.019,1,2.01,1C2,1,1.995,0.998,1.991,0.993C1.984,0.989,1.982,0.982,1.982,0.974
			c0-0.006,0.002-0.011,0.004-0.017c0.005-0.006,0.009-0.011,0.013-0.016C2.002,0.936,2.01,0.931,2.019,0.926L2.019,0.926z
			 M1.959,0.979L1.959,0.979c0-0.004-0.002-0.007-0.006-0.009C1.95,0.968,1.95,0.967,1.943,0.967c-0.004,0-0.008,0.001-0.012,0.003
			C1.928,0.972,1.926,0.975,1.926,0.978s0.002,0.006,0.005,0.008c0.004,0.002,0.008,0.003,0.012,0.003
			c0.007,0,0.011-0.001,0.013-0.002C1.958,0.984,1.959,0.982,1.959,0.979L1.959,0.979z M1.958,0.946c0-0.003,0-0.006-0.004-0.008
			C1.952,0.936,1.95,0.935,1.943,0.935c-0.004,0-0.008,0.001-0.01,0.003C1.93,0.94,1.928,0.942,1.928,0.946
			c0,0.003,0.002,0.005,0.005,0.007c0.004,0.002,0.008,0.003,0.01,0.003c0.007,0,0.009-0.001,0.013-0.003
			C1.958,0.951,1.958,0.949,1.958,0.946L1.958,0.946z M1.917,0.945c0-0.005,0.002-0.01,0.008-0.014
			C1.93,0.927,1.937,0.925,1.945,0.925c0.009,0,0.015,0.002,0.021,0.006C1.971,0.935,1.973,0.94,1.973,0.945
			c0,0.007-0.004,0.012-0.014,0.016c0.011,0.004,0.015,0.01,0.015,0.017c0,0.006-0.003,0.011-0.011,0.015
			c-0.004,0.004-0.012,0.006-0.02,0.006c-0.01,0-0.018-0.001-0.021-0.006C1.917,0.989,1.915,0.984,1.915,0.978
			c0-0.007,0.004-0.013,0.015-0.017C1.922,0.959,1.92,0.957,1.918,0.954C1.917,0.952,1.917,0.949,1.917,0.945L1.917,0.945z
			 M1.87,0.926h0.016v0.072H1.87V0.926L1.87,0.926z M1.728,0.927h0.051v0.009H1.743v0.022h0.034v0.009H1.743v0.022h0.036v0.009
			H1.728V0.927L1.728,0.927z M1.711,0.983v0.011C1.706,0.998,1.693,1,1.681,1C1.67,1,1.663,0.998,1.657,0.995
			C1.65,0.992,1.644,0.987,1.64,0.981C1.635,0.976,1.633,0.97,1.633,0.963c0-0.01,0.005-0.019,0.015-0.026
			C1.659,0.93,1.668,0.926,1.681,0.926c0.01,0,0.021,0.002,0.03,0.006v0.011C1.7,0.938,1.691,0.936,1.682,0.936
			c-0.01,0-0.02,0.002-0.023,0.008C1.65,0.949,1.648,0.955,1.648,0.963S1.65,0.978,1.659,0.984c0.006,0.005,0.014,0.008,0.023,0.008
			C1.693,0.991,1.704,0.988,1.711,0.983L1.711,0.983z M1.605,0.927h0.014v0.072H1.607l-0.06-0.055v0.055h-0.01V0.927h0.01
			l0.062,0.056V0.927H1.605z M1.502,0.927h0.014v0.072H1.502V0.927L1.502,0.927z M1.465,0.969l-0.01-0.005
			c-0.004-0.003-0.01-0.006-0.012-0.009s-0.004-0.006-0.004-0.01c0-0.005,0.002-0.01,0.008-0.014
			c0.004-0.004,0.011-0.005,0.018-0.005c0.009,0,0.016,0.002,0.021,0.005v0.011C1.48,0.937,1.473,0.935,1.464,0.935
			c-0.004,0-0.007,0.001-0.011,0.002c0,0.001-0.002,0.003-0.002,0.006c0,0.002,0.002,0.004,0.004,0.006S1.46,0.953,1.464,0.955
			l0.011,0.004c0.011,0.005,0.017,0.012,0.017,0.02c0,0.006-0.002,0.011-0.008,0.014C1.478,0.996,1.471,0.998,1.462,0.998
			c-0.009,0-0.016-0.002-0.021-0.007V0.978c0.006,0.007,0.014,0.01,0.021,0.01c0.005,0,0.009-0.001,0.011-0.003
			c0.003-0.001,0.005-0.004,0.005-0.006S1.474,0.973,1.465,0.969L1.465,0.969z M1.322,0.926h0.049v0.009H1.333v0.022h0.034v0.009
			H1.333v0.022H1.37v0.009H1.322V0.926L1.322,0.926z M1.256,0.936H1.242V0.99h0.017c0.006,0,0.012,0,0.014-0.001
			c0.004-0.001,0.008-0.002,0.01-0.003c0.002-0.001,0.003-0.002,0.005-0.004c0.004-0.005,0.006-0.012,0.006-0.02
			s-0.003-0.014-0.009-0.02c0-0.001-0.004-0.003-0.006-0.004c-0.004-0.001-0.006-0.002-0.01-0.002
			C1.267,0.936,1.263,0.936,1.256,0.936L1.256,0.936z M1.23,0.998V0.926h0.026c0.013,0,0.021,0.001,0.027,0.004
			C1.291,0.933,1.295,0.937,1.3,0.944c0.004,0.005,0.006,0.011,0.006,0.019c0,0.004-0.001,0.009-0.003,0.014
			c-0.002,0.004-0.006,0.008-0.01,0.011C1.288,0.991,1.285,0.994,1.279,0.996C1.277,0.997,1.273,0.997,1.271,0.998
			c-0.004,0.001-0.009,0-0.018,0H1.23L1.23,0.998z M1.169,0.936H1.167v0.022H1.17c0.008,0,0.012-0.001,0.015-0.001
			c0.002-0.001,0.004-0.002,0.006-0.004c0-0.002,0.002-0.004,0.002-0.006c0-0.002-0.002-0.004-0.004-0.006
			c0-0.002-0.002-0.003-0.006-0.004C1.181,0.936,1.177,0.936,1.169,0.936L1.169,0.936z M1.154,0.998V0.926h0.021
			c0.01,0,0.016,0.002,0.021,0.005C1.201,0.935,1.205,0.94,1.205,0.946c0,0.004-0.002,0.008-0.004,0.011
			C1.197,0.96,1.195,0.963,1.189,0.964C1.193,0.965,1.195,0.967,1.197,0.97c0.004,0.002,0.006,0.007,0.012,0.014
			C1.21,0.988,1.213,0.991,1.214,0.993L1.22,0.998H1.205L1.203,0.994c0,0-0.002,0-0.002-0.001L1.199,0.99L1.195,0.985L1.191,0.979
			C1.189,0.976,1.185,0.974,1.183,0.972C1.181,0.971,1.179,0.969,1.178,0.969c-0.002,0-0.006-0.001-0.01-0.001H1.166v0.031
			L1.154,0.998L1.154,0.998L1.154,0.998z M1.117,0.968L1.103,0.942L1.088,0.968H1.117L1.117,0.968z M1.099,0.926h0.01l0.037,0.072
			H1.131l-0.01-0.021H1.084l-0.01,0.021H1.062L1.099,0.926L1.099,0.926z M1.025,0.963h0.028v0.03
			c-0.012,0.004-0.021,0.006-0.03,0.006c-0.015,0-0.025-0.003-0.033-0.01C0.98,0.982,0.976,0.973,0.976,0.963
			c0-0.011,0.004-0.02,0.014-0.027c0.009-0.007,0.02-0.011,0.033-0.011c0.004,0,0.008,0,0.014,0.001
			c0.004,0.001,0.01,0.003,0.017,0.005v0.01c-0.012-0.005-0.022-0.007-0.03-0.007c-0.01,0-0.019,0.002-0.023,0.008
			c-0.006,0.005-0.01,0.012-0.01,0.02s0.004,0.015,0.01,0.021c0.008,0.005,0.016,0.008,0.023,0.008c0.006,0,0.012-0.001,0.019-0.003
			h0.002V0.972H1.027V0.963H1.025L1.025,0.963L1.025,0.963z M0.926,0.971H0.95v0.01H0.926V0.971L0.926,0.971z M0.851,0.926h0.071
			v0.009H0.894v0.063H0.879V0.935H0.851V0.926L0.851,0.926z M0.828,0.926H0.84v0.072H0.83L0.771,0.943v0.055H0.759V0.926h0.01
			l0.059,0.056V0.926L0.828,0.926z M0.72,0.968L0.706,0.942L0.692,0.968H0.72L0.72,0.968z M0.701,0.926h0.01L0.75,0.998H0.736
			L0.724,0.977H0.687L0.676,0.998H0.663L0.701,0.926L0.701,0.926z M0.662,0.926h0.014L0.638,0.999H0.635L0.597,0.926h0.014
			l0.025,0.051L0.662,0.926L0.662,0.926z M0.578,0.968L0.564,0.942L0.55,0.968H0.578L0.578,0.968z M0.56,0.926h0.008l0.039,0.072
			H0.594L0.582,0.977H0.544L0.532,0.998H0.52L0.56,0.926L0.56,0.926z M0.431,0.969L0.42,0.964C0.414,0.961,0.41,0.958,0.406,0.955
			c-0.002-0.003-0.004-0.006-0.004-0.01c0-0.005,0.004-0.01,0.008-0.014c0.006-0.003,0.012-0.005,0.021-0.005
			c0.008,0,0.014,0.002,0.021,0.005v0.011C0.445,0.937,0.439,0.935,0.431,0.935c-0.005,0-0.009,0.001-0.012,0.002
			C0.417,0.938,0.416,0.94,0.416,0.943c0,0.002,0.001,0.004,0.003,0.006S0.424,0.953,0.43,0.955l0.01,0.004
			c0.01,0.005,0.016,0.012,0.016,0.02c0,0.006-0.002,0.011-0.006,0.014C0.444,0.996,0.438,0.998,0.43,0.998
			c-0.01,0-0.019-0.002-0.023-0.007V0.978c0.008,0.007,0.016,0.01,0.023,0.01c0.004,0,0.008-0.001,0.01-0.003
			c0.004-0.001,0.004-0.004,0.004-0.006C0.443,0.977,0.439,0.973,0.431,0.969L0.431,0.969z M0.371,0.969l-0.01-0.005
			c-0.006-0.003-0.01-0.006-0.013-0.009s-0.004-0.006-0.004-0.01c0-0.005,0.002-0.01,0.007-0.014
			c0.006-0.004,0.012-0.005,0.02-0.005c0.008,0,0.016,0.002,0.021,0.005v0.011C0.385,0.937,0.377,0.935,0.371,0.935
			c-0.004,0-0.008,0.001-0.01,0.002C0.357,0.938,0.357,0.94,0.357,0.943c0,0.002,0,0.004,0.002,0.006s0.006,0.004,0.01,0.006
			L0.38,0.959c0.012,0.005,0.018,0.012,0.018,0.02c0,0.006-0.002,0.011-0.008,0.014C0.384,0.996,0.377,0.998,0.369,0.998
			c-0.008,0-0.016-0.002-0.022-0.007V0.978c0.008,0.007,0.016,0.01,0.022,0.01c0.005,0,0.008-0.001,0.011-0.003
			c0.004-0.001,0.005-0.004,0.005-0.006C0.383,0.977,0.378,0.973,0.371,0.969L0.371,0.969z M0.316,0.927H0.33v0.072H0.316V0.927
			L0.316,0.927z M0.293,0.927h0.014L0.271,0.999H0.269L0.24,0.941L0.21,0.999H0.207L0.171,0.927h0.014l0.023,0.05l0.024-0.05h0.012
			l0.025,0.05L0.293,0.927L0.293,0.927z M0.144,0.969l-0.01-0.005C0.126,0.961,0.123,0.958,0.12,0.955
			c-0.002-0.003-0.004-0.006-0.004-0.01c0-0.005,0.002-0.01,0.008-0.014c0.005-0.004,0.012-0.005,0.021-0.005
			c0.008,0,0.014,0.002,0.021,0.005v0.011C0.158,0.937,0.15,0.935,0.144,0.935S0.135,0.936,0.131,0.937
			C0.129,0.94,0.127,0.941,0.127,0.944c0,0.002,0.001,0.004,0.003,0.006c0.003,0.002,0.006,0.004,0.011,0.006L0.152,0.96
			c0.01,0.005,0.017,0.012,0.017,0.021c0,0.006-0.003,0.011-0.009,0.014C0.156,0.997,0.15,0.999,0.141,0.999
			c-0.01,0-0.018-0.002-0.022-0.007V0.979c0.007,0.007,0.016,0.01,0.022,0.01c0.005,0,0.009-0.001,0.011-0.003
			C0.154,0.985,0.156,0.982,0.156,0.98C0.154,0.977,0.15,0.973,0.144,0.969L0.144,0.969z"/>
		<g>
			<path fill="#FFFFFF" d="M0.877,0.837C0.822,0.85,0.748,0.854,0.695,0.83C0.65,0.81,0.623,0.763,0.617,0.717
				C0.609,0.66,0.633,0.611,0.678,0.577C0.73,0.539,0.814,0.54,0.871,0.566v0.058c-0.043-0.02-0.106-0.031-0.149,0
				c-0.03,0.023-0.04,0.06-0.032,0.097C0.696,0.75,0.72,0.776,0.75,0.785C0.771,0.791,0.792,0.793,0.815,0.79V0.743h-0.03V0.686
				H0.88L0.877,0.837L0.877,0.837"/>
			<polyline fill="#FFFFFF" points="0.179,0.841 0.179,0.606 0.283,0.606 0.283,0.551 0,0.551 0,0.606 0.105,0.606 0.105,0.841 
				0.179,0.841 			"/>
			<path fill="#FFFFFF" d="M0.39,0.732l0.042-0.109l0.046,0.109H0.39 M0.473,0.55H0.389l-0.12,0.291h0.078L0.37,0.784H0.5
				l0.022,0.057h0.08L0.473,0.55z"/>
			<polyline fill="#FFFFFF" points="1.163,0.676 0.999,0.676 0.999,0.551 0.955,0.551 0.955,0.841 0.999,0.841 0.999,0.715 
				1.163,0.715 1.163,0.841 1.208,0.841 1.208,0.551 1.163,0.551 1.163,0.676 			"/>
			<path fill="#FFFFFF" d="M1.7,0.759C1.695,0.767,1.676,0.808,1.624,0.808c-0.052,0-0.061-0.04-0.061-0.064V0.589H1.521v0.149
				c0,0.101,0.075,0.109,0.098,0.109c0.04,0,0.064-0.017,0.081-0.03v0.024h0.043V0.589H1.7V0.759"/>
			<path fill="#FFFFFF" d="M2.247,0.616c0-0.001-0.029-0.032-0.063-0.032c-0.031,0-0.063,0.03-0.078,0.051V0.589H2.06v0.252h0.045
				V0.69c0.013-0.02,0.043-0.063,0.067-0.063c0.022,0,0.048,0.025,0.048,0.025L2.247,0.616"/>
			<path fill="#FFFFFF" d="M1.365,0.584c-0.069,0-0.121,0.052-0.121,0.131c0,0.054,0.035,0.132,0.135,0.132
				c0.063,0,0.103-0.034,0.103-0.036l0.003-0.002V0.757L1.468,0.771c0,0-0.037,0.035-0.088,0.035c-0.054,0-0.093-0.032-0.093-0.09
				V0.715h0.199V0.707C1.488,0.645,1.449,0.584,1.365,0.584 M1.294,0.676c0.013-0.035,0.037-0.05,0.069-0.05
				c0.053,0,0.067,0.032,0.072,0.05H1.294z"/>
			<path fill="#FFFFFF" d="M1.902,0.584c-0.069,0-0.123,0.052-0.123,0.131c0,0.054,0.037,0.132,0.136,0.132
				c0.063,0,0.103-0.034,0.104-0.036l0.001-0.002V0.757L2.004,0.771c-0.002,0-0.037,0.035-0.088,0.035
				c-0.056,0-0.092-0.032-0.092-0.09V0.715h0.196V0.707C2.023,0.645,1.986,0.584,1.902,0.584 M1.833,0.676
				c0.012-0.035,0.035-0.05,0.068-0.05c0.053,0,0.066,0.032,0.07,0.05H1.833z"/>
		</g>
	</g>
	<g>
		<g>
			<g>
				<polygon fill="#FFFFFF" points="1.283,0.246 1.283,0.238 1.279,0.235 1.25,0.235 1.25,0.255 1.279,0.249 				"/>
				<path fill="#FFFFFF" d="M0.853,0.202v0.094l0.23,0.133l0.231-0.133V0.202H0.853z M0.939,0.321L0.939,0.321L0.939,0.321
					L0.922,0.314V0.313V0.271L0.888,0.263v0.029v0.001H0.887L0.872,0.285l0,0V0.221l0,0l0,0h0.016l0.001,0.001V0.25l0.034,0.008
					V0.222l0.001-0.001H0.94v0.001L0.939,0.321L0.939,0.321z M1.021,0.234L1.021,0.234L0.986,0.235v0.034l0.03,0.007l0.001,0.001
					v0.018L1.016,0.296l-0.03-0.008v0.043L1.021,0.35v0.001v0.018V0.37H1.019L0.967,0.34H0.965V0.221L0.967,0.22h0.054v0.001V0.234
					L1.021,0.234z M1.123,0.385L1.123,0.385L1.084,0.407l0,0L1.047,0.385H1.046V0.22l0,0h0.001h0.019v0.001v0.155l0.021,0.01
					l0.021-0.01V0.221V0.22h0.018L1.125,0.221v0.164H1.123z M1.206,0.234L1.206,0.234H1.169v0.038l0.032-0.007l0,0l0,0v0.016v0.001
					L1.169,0.29v0.047l0.035-0.019h0.002l0,0v0.017l0,0l-0.053,0.03H1.152l0,0V0.219l0.002-0.001h0.051l0.001,0.001V0.234
					L1.206,0.234L1.206,0.234z M1.297,0.284L1.285,0.292l0,0L1.258,0.269l-0.01,0.002v0.041l0,0L1.234,0.32l0,0H1.232V0.219
					l0.002-0.001h0.057l0.008,0.006V0.25L1.292,0.259L1.275,0.264L1.297,0.284L1.297,0.284L1.297,0.284z"/>
			</g>
			<g>
				<polygon fill="#FFFFFF" points="1.058,0.12 1.098,0.12 1.078,0.081 				"/>
				<path fill="#FFFFFF" d="M0.853,0.033v0.152h0.465V0.033H0.853z M0.962,0.165H0.929V0.077H0.88V0.054h0.131v0.023H0.962V0.165
					L0.962,0.165z M1.121,0.165L1.107,0.143H1.046L1.035,0.165H1l0.059-0.111h0.039l0.059,0.111H1.121z M1.283,0.163
					C1.256,0.168,1.222,0.169,1.199,0.16C1.178,0.152,1.165,0.134,1.162,0.117C1.16,0.095,1.168,0.076,1.189,0.063
					c0.024-0.014,0.063-0.014,0.09-0.003v0.024C1.259,0.077,1.23,0.07,1.21,0.082C1.197,0.091,1.193,0.105,1.195,0.119
					C1.199,0.13,1.21,0.14,1.222,0.143l0.029,0.002V0.127H1.238V0.106h0.045V0.163L1.283,0.163z"/>
			</g>
		</g>
		<path fill="#FFFFFF" d="M0.818,0v0.315L1.084,0.47l0.269-0.155V0H0.818z M1.337,0.305L1.085,0.451L0.833,0.305v-0.29h0.505
			L1.337,0.305L1.337,0.305z"/>
	</g>
</g>
</svg>
