<?xml version="1.0" encoding="utf-8"?>
<!-- Generator: Adobe Illustrator 13.0.0, SVG Export Plug-In . SVG Version: 6.00 Build 14948)  -->
<!DOCTYPE svg PUBLIC "-//W3C//DTD SVG 1.1//EN" "http://www.w3.org/Graphics/SVG/1.1/DTD/svg11.dtd">
<svg version="1.1" id="Layer_1" xmlns="http://www.w3.org/2000/svg" xmlns:xlink="http://www.w3.org/1999/xlink" x="0px" y="0px"
	 width="1.792px" height="1px" viewBox="62.884 1.135 1.792 1" enable-background="new 62.884 1.135 1.792 1" xml:space="preserve">
<g>
	<path fill="#FFFFFF" d="M1.038,0.183V0.091C1,0.102,0.962,0.099,0.926,0.087v0.096H1.038 M0.866,0.183V0.087
		C0.831,0.099,0.792,0.102,0.754,0.091v0.092H0.866L0.866,0.183z M1.086,0.239c-0.004,0.125-0.077,0.239-0.19,0.293
		c-0.114-0.054-0.187-0.167-0.19-0.293V0c0.043,0.055,0.123,0.064,0.178,0.021c0.005-0.004,0.009-0.008,0.013-0.012
		C0.944,0.06,1.024,0.062,1.075,0.013C1.079,0.009,1.083,0.005,1.086,0V0.239L1.086,0.239z M1.036,0.239h-0.28
		c0.003,0.097,0.056,0.187,0.14,0.235C0.981,0.425,1.034,0.335,1.036,0.239z"/>
	<path fill="#FFFFFF" d="M0.516,0.955c0.008,0,0.016,0,0.023-0.002c0.025-0.005,0.045-0.027,0.049-0.054V0.732
		c0-0.001,0-0.002-0.001-0.003C0.584,0.724,0.581,0.722,0.577,0.72C0.567,0.718,0.558,0.716,0.55,0.716c-0.001,0-0.003,0-0.004,0
		H0.538V0.683h0.144v0.033H0.678c-0.001,0-0.003,0-0.005,0c-0.009,0-0.017,0.002-0.026,0.004C0.642,0.722,0.638,0.724,0.636,0.729
		C0.635,0.73,0.635,0.731,0.635,0.732v0.167c0,0.009-0.002,0.019-0.005,0.026C0.62,0.953,0.598,0.974,0.571,0.986
		c-0.019,0.007-0.039,0.01-0.059,0.009c-0.02,0.001-0.04-0.002-0.059-0.009C0.429,0.979,0.409,0.962,0.396,0.94
		c-0.007-0.011-0.01-0.023-0.01-0.035V0.732c0-0.001,0-0.002-0.001-0.003C0.383,0.724,0.379,0.722,0.374,0.72
		C0.366,0.718,0.356,0.716,0.346,0.716V0.683h0.146v0.033c-0.01,0-0.02,0.002-0.029,0.004c-0.004,0.002-0.01,0.004-0.012,0.009
		c0,0.001,0,0.002,0,0.003v0.167c0,0.024,0.017,0.046,0.041,0.052C0.499,0.954,0.507,0.955,0.516,0.955"/>
	<path fill="#FFFFFF" d="M0.062,0.988V0.954h0.001c0.01,0,0.018,0,0.025-0.001c0.006,0,0.011-0.001,0.018-0.002
		C0.11,0.95,0.112,0.946,0.112,0.941V0.72H0.095c-0.005,0-0.011,0-0.017,0C0.069,0.722,0.06,0.727,0.055,0.734
		C0.044,0.748,0.036,0.763,0.032,0.78H0V0.683h0.287V0.78H0.256C0.252,0.763,0.243,0.747,0.233,0.734
		C0.226,0.727,0.218,0.722,0.209,0.72c-0.006,0-0.012,0-0.018,0H0.175v0.221c0,0.004,0.003,0.008,0.007,0.01
		C0.187,0.952,0.194,0.953,0.2,0.953c0.008,0,0.017,0,0.024,0.001h0.001v0.035L0.062,0.988"/>
	<path fill="#FFFFFF" d="M0.883,0.685c0.029,0.001,0.061,0.008,0.088,0.02c0.07,0.035,0.104,0.12,0.07,0.193
		C1.013,0.951,0.959,0.985,0.899,0.989h-0.16v-0.03c0.008,0,0.018,0,0.025-0.001c0.003,0,0.006-0.001,0.01-0.002
		c0.002,0,0.004-0.001,0.006-0.002c0.002-0.003,0.002-0.007,0.002-0.01V0.733c0-0.001,0-0.002,0-0.003
		C0.78,0.724,0.778,0.72,0.772,0.718c-0.003-0.002-0.006-0.002-0.01-0.004c-0.008,0-0.016-0.002-0.023-0.002V0.685H0.883
		 M0.845,0.718C0.843,0.72,0.842,0.724,0.843,0.728v0.214c0,0.003,0,0.007,0.002,0.01c0.002,0.001,0.004,0.002,0.006,0.002
		C0.854,0.955,0.858,0.955,0.86,0.955c0.008,0,0.018,0.001,0.025,0c0.033,0.003,0.064-0.012,0.083-0.04
		c0.024-0.049,0.024-0.106-0.001-0.153C0.95,0.734,0.92,0.714,0.887,0.712c-0.008,0-0.018,0-0.025,0
		c-0.002,0-0.006,0.002-0.009,0.002C0.849,0.716,0.847,0.716,0.845,0.718z"/>
	<path fill="#FFFFFF" d="M1.264,0.673c0.09,0,0.164,0.072,0.164,0.164C1.428,0.927,1.356,1,1.264,1C1.173,1,1.1,0.927,1.1,0.837
		C1.101,0.746,1.174,0.673,1.264,0.673 M1.333,0.927c0.017-0.028,0.023-0.06,0.021-0.09c0.002-0.033-0.005-0.063-0.021-0.091
		C1.319,0.724,1.292,0.708,1.264,0.709C1.237,0.708,1.209,0.722,1.196,0.747C1.18,0.775,1.173,0.806,1.174,0.837
		C1.173,0.868,1.18,0.9,1.196,0.927C1.209,0.95,1.237,0.964,1.264,0.964C1.291,0.964,1.319,0.95,1.333,0.927z"/>
	<path fill="#FFFFFF" d="M1.671,0.817c0.021-0.005,0.033-0.021,0.035-0.04C1.712,0.75,1.694,0.724,1.667,0.72H1.666
		C1.649,0.718,1.636,0.716,1.623,0.716H1.561V0.82h0.077C1.651,0.821,1.662,0.819,1.671,0.817 M1.612,0.856H1.561V0.94
		c0,0.003,0.002,0.006,0.004,0.008c0.002,0,0.002,0,0.002,0.001C1.571,0.95,1.576,0.951,1.58,0.951
		c0.008,0.001,0.016,0.002,0.022,0.003v0.034H1.46V0.955c0.01-0.001,0.018-0.002,0.024-0.003c0.005,0,0.009-0.001,0.013-0.002
		c0,0,0-0.001,0.002-0.001c0-0.002,0.002-0.005,0.002-0.008V0.732C1.503,0.729,1.5,0.726,1.5,0.724s0-0.002-0.002-0.002
		S1.492,0.72,1.487,0.72C1.478,0.718,1.468,0.716,1.46,0.714V0.685h0.219c0.015,0,0.027,0.004,0.042,0.013
		c0.021,0.015,0.036,0.04,0.038,0.067c0.004,0.048-0.032,0.09-0.081,0.093L1.74,0.939c0.004,0.006,0.01,0.011,0.02,0.012
		c0.012,0.001,0.021,0.002,0.031,0.004v0.033H1.707L1.612,0.856z"/>
</g>
</svg>
