<?xml version="1.0" encoding="utf-8"?>
<!-- Generator: Adobe Illustrator 13.0.0, SVG Export Plug-In . SVG Version: 6.00 Build 14948)  -->
<!DOCTYPE svg PUBLIC "-//W3C//DTD SVG 1.1//EN" "http://www.w3.org/Graphics/SVG/1.1/DTD/svg11.dtd">
<svg version="1.1" id="Layer_1" xmlns="http://www.w3.org/2000/svg" xmlns:xlink="http://www.w3.org/1999/xlink" x="0px" y="0px"
	 width="4.432px" height="1px" viewBox="61.564 4.625 4.432 1" enable-background="new 61.564 4.625 4.432 1" xml:space="preserve">
<g id="VACHERON_3_">
	<polygon fill="#FFFFFF" points="0.097,0.939 0.033,0.67 0,0.67 0.08,0.992 0.113,0.992 0.197,0.67 0.162,0.67 	"/>
	<path fill="#FFFFFF" d="M0.378,0.992h0.033L0.324,0.669H0.291L0.2,0.992h0.033l0.026-0.1h0.091L0.378,0.992L0.378,0.992z
		 M0.272,0.857l0.036-0.133l0.035,0.133H0.272L0.272,0.857z"/>
	<path fill="#FFFFFF" d="M0.636,0.87C0.628,0.937,0.593,0.964,0.557,0.964c-0.056,0-0.085-0.056-0.085-0.136
		c0-0.033,0.004-0.066,0.021-0.092c0.016-0.027,0.04-0.041,0.064-0.041c0.029,0,0.051,0.019,0.063,0.038
		c0.008,0.015,0.01,0.024,0.013,0.036L0.665,0.76C0.659,0.74,0.64,0.663,0.558,0.663s-0.12,0.078-0.12,0.169
		C0.438,0.92,0.476,1,0.554,1C0.623,1,0.66,0.937,0.67,0.875L0.636,0.87L0.636,0.87z"/>
	<polygon fill="#FFFFFF" points="0.879,0.992 0.911,0.992 0.911,0.669 0.879,0.669 0.879,0.806 0.749,0.806 0.749,0.669 
		0.718,0.669 0.718,0.992 0.749,0.992 0.749,0.844 0.879,0.844 	"/>
	<polygon fill="#FFFFFF" points="1.136,0.844 1.136,0.806 1.02,0.806 1.02,0.708 1.154,0.708 1.154,0.67 0.99,0.67 0.99,0.992 
		1.157,0.992 1.157,0.955 1.02,0.955 1.02,0.844 	"/>
	<path fill="#FFFFFF" d="M1.311,0.855l0.063,0.137h0.038L1.347,0.851c0.011-0.002,0.056-0.013,0.056-0.088
		c0-0.029-0.008-0.057-0.024-0.074c-0.02-0.019-0.04-0.019-0.071-0.02H1.218v0.322h0.031V0.855H1.311L1.311,0.855z M1.249,0.706
		h0.062c0.019,0,0.034,0,0.046,0.014C1.37,0.734,1.371,0.756,1.371,0.765c0,0.022-0.009,0.045-0.03,0.051
		C1.331,0.82,1.323,0.82,1.313,0.82H1.249V0.706L1.249,0.706z"/>
	<path fill="#FFFFFF" d="M1.693,0.828c0-0.105-0.053-0.166-0.119-0.166c-0.06,0-0.12,0.049-0.12,0.169C1.452,0.931,1.499,1,1.572,1
		C1.651,1,1.693,0.924,1.693,0.828L1.693,0.828z M1.657,0.828c0,0.066-0.021,0.138-0.086,0.138c-0.061,0-0.086-0.067-0.086-0.135
		c0-0.073,0.025-0.135,0.085-0.135C1.627,0.697,1.657,0.75,1.657,0.828L1.657,0.828z"/>
	<polygon fill="#FFFFFF" points="1.91,0.67 1.912,0.927 1.782,0.67 1.753,0.67 1.753,0.992 1.782,0.992 1.781,0.73 1.91,0.992 
		1.94,0.992 1.94,0.67 	"/>
	<path fill="#FFFFFF" d="M2.338,0.865C2.331,0.931,2.296,0.958,2.261,0.958c-0.055,0-0.083-0.056-0.083-0.133
		c0-0.032,0.004-0.065,0.021-0.091c0.015-0.026,0.038-0.041,0.063-0.041c0.028,0,0.05,0.018,0.062,0.037
		c0.009,0.015,0.011,0.024,0.014,0.037l0.032-0.01c-0.007-0.02-0.026-0.096-0.106-0.096S2.144,0.738,2.144,0.827
		c0,0.088,0.037,0.166,0.113,0.166c0.068,0,0.104-0.063,0.115-0.123L2.338,0.865L2.338,0.865z"/>
	<path fill="#FFFFFF" d="M2.661,0.824c0-0.104-0.053-0.163-0.117-0.163c-0.059,0-0.117,0.048-0.117,0.166
		c0,0.098,0.045,0.166,0.115,0.166C2.62,0.993,2.661,0.918,2.661,0.824L2.661,0.824z M2.628,0.824c0,0.063-0.021,0.136-0.083,0.136
		c-0.062,0-0.085-0.065-0.085-0.132c0-0.071,0.024-0.132,0.084-0.132C2.599,0.696,2.627,0.748,2.628,0.824L2.628,0.824z"/>
	<polygon fill="#FFFFFF" points="2.894,0.669 2.895,0.922 2.768,0.669 2.74,0.669 2.74,0.984 2.768,0.984 2.765,0.728 2.894,0.984 
		2.921,0.984 2.921,0.669 	"/>
	<path fill="#FFFFFF" d="M3.108,0.844C3.13,0.851,3.153,0.861,3.153,0.898c0,0.041-0.024,0.063-0.058,0.063
		c-0.019,0-0.035-0.005-0.05-0.021C3.028,0.918,3.027,0.892,3.027,0.878L2.994,0.884c0.005,0.104,0.076,0.108,0.1,0.108
		c0.015,0,0.041-0.002,0.063-0.022c0.021-0.019,0.029-0.047,0.029-0.076c0-0.021-0.005-0.059-0.041-0.078
		C3.137,0.81,3.126,0.808,3.11,0.801L3.083,0.792c-0.021-0.007-0.046-0.014-0.046-0.05c0-0.033,0.024-0.05,0.054-0.05
		c0.016,0,0.029,0.005,0.041,0.016c0.019,0.018,0.02,0.042,0.02,0.053l0.032-0.003C3.181,0.74,3.177,0.707,3.154,0.685
		C3.132,0.664,3.108,0.662,3.09,0.662c-0.017,0-0.042,0.002-0.063,0.027C3.019,0.699,3.006,0.717,3.006,0.75
		c0,0.064,0.051,0.08,0.083,0.089L3.108,0.844L3.108,0.844z"/>
	<polygon fill="#FFFFFF" points="3.398,0.706 3.398,0.668 3.227,0.668 3.227,0.706 3.297,0.706 3.297,0.984 3.328,0.984 
		3.328,0.706 	"/>
	<path fill="#FFFFFF" d="M3.573,0.984h0.031L3.521,0.669H3.49L3.4,0.984h0.032l0.025-0.097h0.089L3.573,0.984L3.573,0.984z
		 M3.469,0.853L3.503,0.72l0.034,0.133H3.469L3.469,0.853z"/>
	<polygon fill="#FFFFFF" points="3.818,0.669 3.82,0.922 3.693,0.669 3.663,0.669 3.663,0.984 3.693,0.984 3.69,0.728 3.818,0.984 
		3.846,0.984 3.846,0.669 	"/>
	<polygon fill="#FFFFFF" points="4.074,0.706 4.074,0.668 3.903,0.668 3.903,0.706 3.973,0.706 3.973,0.984 4.004,0.984 
		4.004,0.706 	"/>
	<polygon fill="#FFFFFF" points="4.128,0.669 4.128,0.984 4.159,0.984 4.159,0.669 	"/>
	<polygon fill="#FFFFFF" points="4.404,0.669 4.406,0.922 4.279,0.669 4.249,0.669 4.249,0.984 4.279,0.984 4.276,0.728 
		4.404,0.984 4.432,0.984 4.432,0.669 	"/>
	<path fill="#FFFFFF" d="M2.011,0.146c0,0,0.017,0.039,0.017,0.097c0,0.059-0.022,0.104-0.022,0.104S2.15,0.28,2.197,0.269
		C2.229,0.26,2.217,0.271,2.217,0.271S2.196,0.359,2.174,0.41C2.151,0.46,2.137,0.492,2.137,0.492s0.075-0.037,0.109-0.037
		c0.033,0,0.101,0.029,0.101,0.029S2.272,0.301,2.273,0.286C2.274,0.269,2.27,0.267,2.27,0.267s0.169,0.049,0.204,0.062
		C2.475,0.33,2.452,0.275,2.452,0.232c0-0.041,0.021-0.096,0.021-0.096s-0.167,0.073-0.19,0.073c-0.022,0-0.008-0.04,0.01-0.093
		C2.308,0.068,2.351,0,2.351,0S2.273,0.025,2.243,0.025c-0.03,0-0.095-0.017-0.095-0.017S2.203,0.15,2.21,0.175
		C2.218,0.202,2.212,0.21,2.212,0.21S2.13,0.197,2.08,0.171C2.03,0.148,2.011,0.146,2.011,0.146L2.011,0.146z"/>
</g>
</svg>
