<?xml version="1.0" encoding="utf-8"?>
<!-- Generator: Adobe Illustrator 13.0.0, SVG Export Plug-In . SVG Version: 6.00 Build 14948)  -->
<!DOCTYPE svg PUBLIC "-//W3C//DTD SVG 1.1//EN" "http://www.w3.org/Graphics/SVG/1.1/DTD/svg11.dtd">
<svg version="1.1" id="Layer_1" xmlns="http://www.w3.org/2000/svg" xmlns:xlink="http://www.w3.org/1999/xlink" x="0px" y="0px"
	 width="2.492px" height="1px" viewBox="62.534 1.136 2.492 1" enable-background="new 62.534 1.136 2.492 1" xml:space="preserve">
<g>
	<rect x="1.568" y="0.379" fill="#FFFFFF" width="0.043" height="0.277"/>
	<polygon fill="#FFFFFF" points="0.004,0.379 0.004,0.422 0.287,0.422 0.004,0.613 0.004,0.613 0.004,0.655 0.373,0.655 
		0.373,0.613 0.085,0.613 0.373,0.418 0.373,0.379 	"/>
	<polygon fill="#FFFFFF" points="1.408,0.379 1.365,0.379 1.365,0.604 1.098,0.381 1.098,0.379 1.097,0.379 1.055,0.379 
		1.055,0.656 1.098,0.656 1.098,0.436 1.361,0.656 1.408,0.656 	"/>
	<polygon fill="#FFFFFF" points="2.449,0.379 2.449,0.487 2.212,0.487 2.212,0.379 2.169,0.379 2.169,0.656 2.212,0.656 
		2.212,0.529 2.449,0.529 2.449,0.656 2.492,0.656 2.492,0.379 	"/>
	<polygon fill="#FFFFFF" points="2.04,0.379 1.906,0.379 1.906,0.379 1.863,0.379 1.863,0.379 1.73,0.379 1.73,0.422 1.863,0.422 
		1.863,0.656 1.906,0.656 1.906,0.422 2.04,0.422 	"/>
	<polygon fill="#FFFFFF" points="0.871,0.613 0.603,0.613 0.603,0.536 0.861,0.536 0.861,0.494 0.603,0.494 0.603,0.422 
		0.869,0.422 0.869,0.379 0.603,0.379 0.603,0.379 0.561,0.379 0.561,0.656 0.603,0.656 0.603,0.656 0.871,0.656 	"/>
	<path fill="#FFFFFF" d="M0.049,0.797C0.044,0.795,0.037,0.791,0.027,0.791c-0.006,0-0.012,0.004-0.012,0.01
		c0,0.015,0.039,0.017,0.039,0.041c0,0.015-0.012,0.021-0.029,0.021c-0.012,0-0.021-0.003-0.023-0.003V0.846
		C0.007,0.85,0.015,0.854,0.025,0.854c0.01,0,0.015-0.007,0.015-0.011C0.04,0.825,0,0.824,0,0.803c0-0.015,0.013-0.021,0.027-0.021
		c0.01,0,0.018,0.001,0.021,0.002L0.049,0.797L0.049,0.797z"/>
	<polygon fill="#FFFFFF" points="0.099,0.783 0.111,0.783 0.123,0.844 0.123,0.844 0.144,0.783 0.156,0.783 0.177,0.844 
		0.177,0.844 0.189,0.783 0.201,0.783 0.186,0.862 0.171,0.862 0.15,0.803 0.15,0.803 0.129,0.862 0.113,0.862 	"/>
	<rect x="0.26" y="0.783" fill="#FFFFFF" width="0.014" height="0.08"/>
	<path fill="#FFFFFF" d="M0.382,0.797C0.377,0.795,0.369,0.791,0.361,0.791c-0.008,0-0.013,0.004-0.013,0.01
		c0,0.015,0.039,0.017,0.039,0.041c0,0.015-0.012,0.021-0.03,0.021c-0.011,0-0.021-0.003-0.022-0.003V0.846
		C0.34,0.85,0.348,0.854,0.357,0.854c0.012,0,0.016-0.007,0.016-0.011c0-0.019-0.04-0.02-0.04-0.041
		c0-0.015,0.013-0.021,0.028-0.021c0.008,0,0.017,0.001,0.02,0.002L0.382,0.797L0.382,0.797z"/>
	<path fill="#FFFFFF" d="M0.492,0.797C0.486,0.795,0.48,0.791,0.471,0.791c-0.007,0-0.012,0.004-0.012,0.01
		c0,0.015,0.04,0.017,0.04,0.041C0.498,0.855,0.486,0.863,0.468,0.863c-0.011,0-0.021-0.003-0.022-0.003V0.846
		C0.449,0.85,0.458,0.854,0.468,0.854c0.011,0,0.015-0.007,0.015-0.011c0-0.019-0.039-0.02-0.039-0.041
		c0-0.015,0.013-0.021,0.027-0.021c0.01,0,0.018,0.001,0.021,0.002V0.797L0.492,0.797z"/>
	<polygon fill="#FFFFFF" points="0.602,0.783 0.615,0.783 0.627,0.844 0.627,0.844 0.648,0.783 0.66,0.783 0.681,0.844 0.681,0.844 
		0.693,0.783 0.706,0.783 0.689,0.862 0.675,0.862 0.654,0.803 0.654,0.803 0.633,0.862 0.619,0.862 	"/>
	<path fill="#FFFFFF" d="M0.768,0.831h0.023L0.779,0.797l0,0L0.768,0.831z M0.771,0.783h0.016l0.029,0.08H0.801L0.794,0.842h-0.03
		L0.757,0.862H0.742L0.771,0.783z"/>
	<polygon fill="#FFFFFF" points="0.882,0.793 0.861,0.793 0.861,0.783 0.916,0.783 0.916,0.793 0.895,0.793 0.895,0.862 
		0.882,0.862 	"/>
	<path fill="#FFFFFF" d="M1.023,0.859C1.02,0.86,1.012,0.864,1.002,0.864c-0.024,0-0.035-0.017-0.035-0.042
		c0-0.023,0.009-0.041,0.033-0.041c0.019,0,0.027,0.011,0.027,0.022H1.012C1.012,0.799,1.011,0.79,1,0.79
		c-0.016,0-0.018,0.017-0.018,0.029c0,0.019,0.006,0.033,0.022,0.033c0.009,0,0.017-0.005,0.019-0.007V0.859L1.023,0.859z"/>
	<polygon fill="#FFFFFF" points="1.084,0.783 1.098,0.783 1.098,0.815 1.128,0.815 1.128,0.783 1.142,0.783 1.142,0.862 
		1.128,0.862 1.128,0.826 1.098,0.826 1.098,0.862 1.084,0.862 	"/>
	<polygon fill="#FFFFFF" points="1.26,0.783 1.279,0.783 1.302,0.846 1.302,0.846 1.324,0.783 1.344,0.783 1.344,0.862 1.332,0.862 
		1.332,0.801 1.331,0.801 1.309,0.862 1.296,0.862 1.273,0.801 1.271,0.801 1.271,0.862 1.26,0.862 	"/>
	<path fill="#FFFFFF" d="M1.415,0.831h0.022L1.426,0.797l0,0L1.415,0.831z M1.418,0.783h0.017l0.028,0.08H1.447L1.441,0.842H1.41
		L1.404,0.863H1.389L1.418,0.783z"/>
	<polygon fill="#FFFFFF" points="1.519,0.783 1.535,0.783 1.568,0.842 1.568,0.842 1.568,0.783 1.581,0.783 1.581,0.862 
		1.564,0.862 1.531,0.801 1.531,0.801 1.531,0.862 1.519,0.862 	"/>
	<path fill="#FFFFFF" d="M1.703,0.838c0,0.018-0.012,0.025-0.029,0.025c-0.017,0-0.029-0.008-0.029-0.025V0.783h0.014v0.055
		c0,0.01,0.004,0.017,0.016,0.017c0.012,0,0.016-0.007,0.016-0.017V0.783h0.014v0.055H1.703z"/>
	<polygon fill="#FFFFFF" points="1.768,0.783 1.813,0.783 1.813,0.793 1.781,0.793 1.781,0.816 1.811,0.816 1.811,0.826 
		1.781,0.826 1.781,0.862 1.768,0.862 	"/>
	<path fill="#FFFFFF" d="M1.889,0.831H1.91L1.898,0.797l0,0L1.889,0.831z M1.891,0.783h0.019l0.026,0.08H1.921L1.914,0.842h-0.03
		L1.877,0.862H1.861L1.891,0.783z"/>
	<path fill="#FFFFFF" d="M2.045,0.859C2.041,0.86,2.031,0.864,2.023,0.864C2,0.864,1.988,0.848,1.988,0.822
		c0-0.023,0.01-0.041,0.033-0.041c0.02,0,0.025,0.011,0.025,0.022H2.033c0-0.006-0.002-0.015-0.014-0.015
		c-0.016,0-0.018,0.017-0.018,0.029c0,0.019,0.005,0.033,0.021,0.033c0.009,0,0.018-0.005,0.02-0.007L2.045,0.859L2.045,0.859z"/>
	<polygon fill="#FFFFFF" points="2.117,0.793 2.098,0.793 2.098,0.783 2.152,0.783 2.152,0.793 2.131,0.793 2.131,0.862 
		2.117,0.862 	"/>
	<path fill="#FFFFFF" d="M2.266,0.838c0,0.018-0.012,0.025-0.029,0.025c-0.016,0-0.028-0.008-0.028-0.025V0.783h0.015v0.055
		c0,0.01,0.004,0.017,0.016,0.017s0.016-0.007,0.016-0.017V0.783h0.014L2.266,0.838L2.266,0.838z"/>
	<path fill="#FFFFFF" d="M2.343,0.818h0.005c0.01,0,0.019-0.001,0.019-0.014c0-0.008-0.005-0.013-0.013-0.013H2.342L2.343,0.818
		L2.343,0.818z M2.328,0.783h0.025c0.016,0,0.025,0.005,0.025,0.021c0,0.012-0.009,0.016-0.018,0.019l0,0
		C2.375,0.824,2.377,0.831,2.378,0.84l0.006,0.022H2.369L2.365,0.844C2.361,0.831,2.359,0.827,2.348,0.827H2.342v0.034H2.326V0.783
		H2.328z"/>
	<polygon fill="#FFFFFF" points="2.443,0.783 2.49,0.783 2.49,0.793 2.457,0.793 2.457,0.816 2.49,0.816 2.49,0.826 2.457,0.826 
		2.457,0.853 2.492,0.853 2.492,0.862 2.443,0.862 	"/>
	<path fill="#FFFFFF" d="M0.865,0.952C0.861,0.951,0.857,0.949,0.851,0.949c-0.005,0-0.009,0.002-0.009,0.007
		c0,0.009,0.027,0.011,0.027,0.027c0,0.01-0.008,0.016-0.021,0.016c-0.007,0-0.014-0.002-0.016-0.002v-0.01
		c0.004,0.002,0.01,0.005,0.018,0.005c0.008,0,0.01-0.004,0.01-0.008c0-0.012-0.027-0.014-0.027-0.028
		c0-0.01,0.009-0.014,0.02-0.014c0.006,0,0.012,0.001,0.014,0.001v0.009H0.865z"/>
	<rect x="0.925" y="0.943" fill="#FFFFFF" width="0.01" height="0.055"/>
	<polygon fill="#FFFFFF" points="0.992,0.943 1.005,0.943 1.027,0.983 1.027,0.983 1.027,0.943 1.037,0.943 1.037,0.998 
		1.025,0.998 1.002,0.956 1.002,0.956 1.002,0.998 0.992,0.998 	"/>
	<path fill="#FFFFFF" d="M1.133,0.996C1.13,0.997,1.124,0.999,1.117,0.999c-0.018,0-0.024-0.012-0.024-0.028
		c0-0.016,0.006-0.028,0.022-0.028c0.014,0,0.02,0.007,0.02,0.016H1.124c0-0.004-0.001-0.009-0.009-0.009
		c-0.01,0-0.013,0.012-0.013,0.02c0,0.015,0.005,0.023,0.017,0.023c0.006,0,0.012-0.003,0.014-0.004V0.996L1.133,0.996z"/>
	<polygon fill="#FFFFFF" points="1.188,0.943 1.222,0.943 1.222,0.95 1.197,0.95 1.197,0.967 1.221,0.967 1.221,0.973 1.197,0.973 
		1.197,0.991 1.223,0.991 1.223,0.998 1.188,0.998 	"/>
	<polygon fill="#FFFFFF" points="1.365,0.947 1.352,0.953 1.352,0.961 1.363,0.955 1.363,0.998 1.373,0.998 1.373,0.947 	"/>
	<path fill="#FFFFFF" d="M1.459,0.969c0.005,0,0.007-0.002,0.007-0.008c0-0.005-0.002-0.008-0.007-0.008
		c-0.004,0-0.008,0.003-0.008,0.008C1.451,0.965,1.455,0.969,1.459,0.969 M1.459,0.993c0.005,0,0.008-0.004,0.008-0.01
		c0-0.005-0.002-0.009-0.008-0.009S1.451,0.979,1.451,0.983C1.451,0.989,1.453,0.993,1.459,0.993 M1.439,0.985
		c0-0.01,0.006-0.013,0.01-0.013C1.445,0.97,1.439,0.968,1.439,0.96c0-0.01,0.008-0.014,0.019-0.014c0.01,0,0.018,0.004,0.018,0.014
		c0,0.008-0.005,0.01-0.008,0.012c0.004,0.002,0.009,0.004,0.009,0.014c0,0.011-0.008,0.015-0.019,0.015
		C1.447,1.001,1.439,0.995,1.439,0.985"/>
	<path fill="#FFFFFF" d="M1.553,0.993c0.006,0,0.008-0.005,0.008-0.01c0-0.005-0.002-0.01-0.008-0.01
		c-0.006,0-0.008,0.005-0.008,0.01C1.545,0.988,1.547,0.993,1.553,0.993 M1.56,0.959c0-0.002-0.001-0.006-0.006-0.006
		c-0.008,0-0.009,0.01-0.009,0.02C1.547,0.971,1.55,0.967,1.557,0.967c0.012,0,0.016,0.008,0.016,0.017C1.573,0.994,1.565,1,1.554,1
		C1.537,1,1.533,0.988,1.533,0.974c0-0.016,0.004-0.025,0.021-0.025c0.013,0,0.017,0.007,0.017,0.012H1.56V0.959z"/>
	<path fill="#FFFFFF" d="M1.639,0.969c0.002,0,0.005-0.002,0.01-0.002c0.01,0,0.017,0.006,0.017,0.018C1.665,0.995,1.656,1,1.646,1
		c-0.016,0-0.02-0.007-0.02-0.013h0.011c0,0.003,0.001,0.006,0.009,0.006c0.006,0,0.008-0.003,0.008-0.01
		c0-0.005-0.002-0.011-0.008-0.011c-0.005,0-0.007,0.003-0.008,0.005H1.63l0.001-0.029H1.66v0.006H1.64L1.639,0.969z"/>
	<path fill="#FFFFFF" d="M1.299,0.194L1.317,0.22L1.295,0.196L1.248,0.131L1.201,0.196L1.18,0.221l0.018-0.026L1.245,0.13
		L1.168,0.104l-0.03-0.013L1.169,0.1l0.075,0.024V0.045l0.002-0.033l0.003,0.033v0.08l0.075-0.024l0.033-0.007L1.328,0.105
		L1.252,0.131L1.299,0.194z M1.371,0.088H1.277L1.248-0.001L1.219,0.088H1.125l0.076,0.056L1.172,0.232l0.076-0.055l0.076,0.055
		L1.295,0.144L1.371,0.088z"/>
</g>
</svg>
